<?xml version="1.0" encoding="UTF-8"?>
<svg id="Layer_1" data-name="Layer 1" xmlns="http://www.w3.org/2000/svg" viewBox="0 0 192.49 206.23">
  <path d="m138.36,201.04c-4.06-4.35-8.12-8.7-12.76-13.92-12.76,9.86-30.45,17.11-53.65,17.11-47.27,0-68.15-28.13-68.15-55.39,0-25.81,14.79-44.37,37.12-55.97v-1.16c-8.41-9.28-14.79-23.78-14.79-37.7C26.13,29.37,45.56,2.4,84.71,2.4c30.16,0,53.07,17.69,53.07,45.82,0,19.72-11.6,36.54-38.57,50.17l-.29,1.16c11.31,12.47,23.2,26.68,32.77,36.54,7.83-12.18,13.92-30.16,16.53-47.56h39.44c-5.22,29.58-15.08,54.81-32.48,74.24,11.02,12.47,22.33,25.23,34.51,38.28h-51.33Zm-33.35-38.57c-12.18-12.18-28.13-29.87-44.08-47.85-8.12,5.8-15.37,14.21-15.37,26.97,0,16.53,12.47,30.74,32.48,30.74,11.6,0,21.17-4.35,26.97-9.86Zm-39.44-112.52c0,9.86,4.64,18.56,13.34,28.13,14.21-9.86,21.46-17.4,21.46-28.71,0-9.28-5.51-19.43-17.11-19.43s-17.69,9.86-17.69,20.01Z" style="fill: none; stroke: #fff; stroke-linecap: round; stroke-linejoin: round; stroke-width: 4px;"/>
</svg>