<svg width="127" height="57" viewBox="0 0 127 57" fill="none" xmlns="http://www.w3.org/2000/svg">
<g clip-path="url(#clip0_1_8)">
<path d="M56.5521 29.11H31.3251V37.3596H56.5521V29.11Z" fill="white"/>
<path d="M42.4476 16.4687H32.1302V24.2456H42.4476V16.4687Z" fill="white"/>
<path d="M56.5521 1.63162H31.3251V9.40851H56.5521V1.63162Z" fill="white"/>
<path d="M124.093 9.94223C122.646 7.02971 120.589 4.77288 117.95 3.14126C115.326 1.55539 112.284 0.762451 108.825 0.762451C105.366 0.762451 102.369 1.55539 99.7154 3.11077C97.0764 4.68139 95.0338 6.92296 93.5727 9.82024C92.1115 12.687 91.381 16.0265 91.381 19.8387C91.381 23.6509 92.0966 26.6702 93.5578 29.4607C95.004 32.2512 97.0466 34.4013 99.7005 35.9414C102.354 37.4968 105.396 38.2745 108.825 38.2745C112.254 38.2745 115.341 37.512 117.965 35.9872C120.604 34.4623 122.646 32.3122 124.108 29.5369C125.539 26.7312 126.255 23.5289 126.255 19.9302C126.255 16.3315 125.524 12.8395 124.078 9.92698L124.093 9.94223ZM101.877 14.0594C102.563 12.4888 103.502 11.2841 104.695 10.4454C105.888 9.60675 107.245 9.17979 108.766 9.17979C109.764 9.17979 110.689 9.37802 111.554 9.72874L101.102 22.3242C100.938 21.4398 100.863 20.5096 100.863 19.5185C100.863 17.4446 101.206 15.63 101.892 14.0594H101.877ZM115.728 24.9623C115.028 26.5482 114.073 27.7528 112.866 28.5915C111.658 29.4302 110.316 29.8572 108.825 29.8572C107.796 29.8572 106.842 29.6437 105.963 29.2472L116.533 16.5145C116.697 17.4141 116.787 18.3596 116.787 19.3812C116.787 21.5161 116.429 23.3764 115.728 24.9623Z" stroke="white" stroke-miterlimit="10"/>
<path d="M4.5027 37.3596H25.242L20.4858 29.11H0L4.5027 37.3596Z" fill="white"/>
<path d="M0 29.1404L9.82543 29.2929L26.7329 12.7022L17.0715 12.5193L0 29.1404Z" fill="white"/>
<path d="M0 1.63162L4.77107 9.40851H26.7329L21.9171 1.63162H0Z" fill="white"/>
<path d="M66.0794 7.24318C66.1688 7.24318 66.2285 7.19744 66.2732 7.12119C66.3179 7.04495 66.3328 6.92296 66.3328 6.75522V6.38925H65.7961V6.78572C65.7961 7.0907 65.8855 7.24318 66.0645 7.24318H66.0794Z" fill="white"/>
<path d="M65.5128 22.0803C65.7663 22.0803 65.9452 22.0193 66.0794 21.8973C66.2136 21.7753 66.2732 21.5923 66.2732 21.3636V21.0586H64.7226V21.3331C64.7226 21.5771 64.7822 21.76 64.9164 21.882C65.0506 22.004 65.2444 22.0803 65.4979 22.0803H65.5128Z" fill="white"/>
<path d="M64.9761 7.36517C65.0655 7.36517 65.1401 7.31943 65.1997 7.22794C65.2593 7.13644 65.2892 7.01445 65.2892 6.84672V6.38925H64.6928V6.84672C64.6928 7.0297 64.7226 7.16694 64.7673 7.24318C64.8121 7.31943 64.8866 7.36517 64.991 7.36517H64.9761Z" fill="white"/>
<path d="M65.975 29.1862C66.2136 29.1862 66.3478 29.0337 66.3478 28.7288V28.4543H65.647V28.7288C65.647 29.0337 65.7663 29.1862 65.9899 29.1862H65.975Z" fill="white"/>
<path d="M65.9601 9.92697C65.8259 9.86598 65.6768 9.83548 65.5128 9.83548C65.3488 9.83548 65.1997 9.86598 65.0655 9.92697C64.9313 9.98797 64.8419 10.0642 64.7673 10.171C64.7077 10.2777 64.663 10.3844 64.663 10.5217C64.663 10.6589 64.6928 10.7657 64.7673 10.8724C64.8419 10.9791 64.9313 11.0554 65.0655 11.1164C65.1997 11.1774 65.3488 11.2079 65.5128 11.2079C65.6768 11.2079 65.8259 11.1774 65.9601 11.1164C66.0794 11.0554 66.1837 10.9791 66.2434 10.8724C66.303 10.7657 66.3478 10.6589 66.3478 10.5217C66.3478 10.3844 66.3179 10.2777 66.2434 10.171C66.1688 10.0642 66.0794 9.98797 65.9452 9.92697H65.9601Z" fill="white"/>
<path d="M83.2105 24.0321C87.1168 22.0498 89.07 18.6493 89.07 13.8307C89.07 11.3299 88.5332 9.16455 87.4747 7.33469C86.4161 5.50484 84.9251 4.10195 82.9869 3.12602C81.0486 2.1501 78.7525 1.66214 76.0986 1.66214H61.025V37.3901H70.5075V19.2745H70.6864L71.5363 20.9671L74.0411 25.5875L80.3926 37.3901H90.546L83.2105 24.0321ZM64.0666 6.86198L64.6331 6.40452H64.0666V5.59633H66.974V6.80098C66.974 7.2127 66.9143 7.51768 66.7801 7.73116C66.6459 7.94464 66.467 8.05139 66.2136 8.05139C66.0496 8.05139 65.9154 8.00564 65.7961 7.8989C65.6917 7.8074 65.6172 7.65492 65.5725 7.47193C65.5277 7.70066 65.4532 7.8684 65.3339 7.99039C65.2146 8.11238 65.0506 8.17338 64.8717 8.17338C64.6182 8.17338 64.4244 8.08188 64.2753 7.8989C64.1411 7.71591 64.0666 7.45668 64.0666 7.13646V6.83148V6.86198ZM66.974 31.7175L65.7961 32.297V32.3275L66.974 32.9069V33.8066L64.9761 32.7239H64.0666V31.9158H64.9761L66.974 30.8331V31.7328V31.7175ZM66.974 28.9422C66.974 29.171 66.9292 29.3692 66.8547 29.5217C66.7801 29.6894 66.6609 29.8114 66.5118 29.9029C66.3627 29.9944 66.1837 30.0402 65.9899 30.0402C65.6023 30.0402 65.319 29.8724 65.155 29.5369L64.0666 30.1621V29.293L65.0357 28.744L65.4084 28.5305L65.5426 28.4543H64.0666V27.6461H66.974V28.927V28.9422ZM66.974 25.7705L64.0666 26.7922V25.9077L64.6331 25.74V25.191L65.2594 25.069V25.557L66.2285 25.2673L64.0666 24.6116V23.7271L66.974 24.6878V25.7857V25.7705ZM66.974 21.2873C66.974 21.8363 66.8547 22.2328 66.6161 22.492C66.3776 22.7512 66.0197 22.8885 65.5277 22.8885C65.1997 22.8885 64.9313 22.8275 64.7077 22.7207C64.4841 22.5987 64.32 22.4463 64.2157 22.248C64.1113 22.0498 64.0517 21.8058 64.0666 21.5466L64.663 21.0739H64.0666V20.2657H66.974V21.2873ZM66.974 17.3074L65.8408 18.1308L65.3637 18.4663C65.6768 18.4511 65.9601 18.4206 66.2285 18.4206H66.974V19.2288H64.0666V18.5578L65.2146 17.7496L65.6917 17.4294C65.483 17.4294 65.2146 17.4599 64.9164 17.4599H64.0666V16.6517H66.974V17.3074ZM66.974 13.8307H65.2444C65.0655 13.8307 64.9313 13.8764 64.827 13.9527C64.7226 14.0289 64.6779 14.1509 64.6779 14.3186C64.6779 14.4864 64.7226 14.5931 64.827 14.6846C64.9313 14.7609 65.0655 14.8066 65.2444 14.8066H66.974V15.63H65.2146C64.9313 15.63 64.7077 15.569 64.5288 15.4623C64.3499 15.3556 64.2157 15.2031 64.1262 15.0048C64.0368 14.8219 63.992 14.5931 63.992 14.3339C63.992 13.9222 64.0964 13.6019 64.3051 13.3732C64.5139 13.1445 64.827 13.0377 65.2146 13.0377H66.974V13.8612V13.8307ZM66.8547 11.2994C66.7205 11.5281 66.5416 11.6958 66.303 11.8178C66.0645 11.9398 65.7961 12.0008 65.483 12.0008C65.1699 12.0008 64.9313 11.9398 64.6928 11.8178C64.4691 11.6958 64.2902 11.5129 64.171 11.2994C64.0517 11.0859 63.992 10.8114 63.992 10.5217C63.992 10.232 64.0517 9.97273 64.1859 9.744C64.3051 9.51527 64.4841 9.34753 64.7077 9.22554C64.9313 9.10355 65.1997 9.04256 65.4979 9.04256C65.811 9.04256 66.0794 9.10355 66.3179 9.22554C66.5565 9.34753 66.7354 9.53052 66.8696 9.744C67.0038 9.95749 67.0634 10.232 67.0634 10.5217C67.0634 10.8114 67.0038 11.0706 66.8696 11.2994H66.8547ZM73.8175 18.0393H70.5075V9.39328H73.8175C77.3958 9.39328 79.1849 10.9029 79.1849 13.9222C79.1849 16.667 77.3958 18.0393 73.8175 18.0393Z" fill="white"/>
<path d="M4.50272 45.0907C5.99368 45.0907 7.12681 45.3957 7.8872 45.9904C8.64759 46.6003 9.03524 47.5 9.03524 48.6894C9.03524 49.8788 8.64759 50.7785 7.8872 51.3732C7.12681 51.9679 5.99368 52.2729 4.50272 52.2729H1.96808V56.6798H0.894592V45.0754H4.50272V45.0907ZM4.62199 51.3732C5.75512 51.3732 6.59006 51.1445 7.14172 50.6717C7.69337 50.2143 7.96175 49.5433 7.96175 48.6894C7.96175 47.8355 7.69337 47.1645 7.14172 46.6918C6.59006 46.2343 5.75512 46.0056 4.62199 46.0056H1.96808V51.3732H4.62199Z" fill="white"/>
<path d="M13.4485 56.2528C12.6732 55.7496 12.0768 55.0482 11.6444 54.1485C11.2269 53.2488 11.0033 52.1966 11.0033 51.0225C11.0033 49.8483 11.212 48.8114 11.6146 47.8507C12.0171 46.89 12.6135 46.1429 13.4037 45.6092C14.179 45.0754 15.1034 44.801 16.1471 44.801C17.1908 44.801 18.0704 45.0602 18.8457 45.5787C19.621 46.0971 20.2174 46.8443 20.6498 47.7897C21.0822 48.7352 21.2909 49.8178 21.2909 51.053C21.2909 52.2881 21.0822 53.2793 20.6647 54.1637C20.2472 55.0482 19.636 55.7648 18.8607 56.2528C18.0854 56.7408 17.1759 57 16.1471 57C15.1183 57 14.2089 56.756 13.4336 56.2528H13.4485ZM18.309 55.4446C18.9203 55.0177 19.3974 54.4077 19.7403 53.63C20.0683 52.8523 20.2323 51.9374 20.2323 50.9005C20.2323 49.8636 20.0534 48.9639 19.7105 48.1862C19.3676 47.4085 18.8905 46.7986 18.2792 46.3563C17.6679 45.9141 16.9522 45.7159 16.1471 45.7159C15.342 45.7159 14.6711 45.9294 14.0598 46.3563C13.4485 46.7833 12.9565 47.3933 12.6135 48.1862C12.2706 48.9791 12.0917 49.8788 12.0917 50.9005C12.0917 51.9222 12.2557 52.8523 12.5837 53.63C12.9117 54.4077 13.3888 55.0177 14.015 55.4446C14.6263 55.8716 15.342 56.0851 16.162 56.0851C16.982 56.0851 17.6977 55.8716 18.309 55.4446Z" fill="white"/>
<path d="M27.4337 45.0907C28.9396 45.0907 30.0727 45.3804 30.848 45.9599C31.6233 46.5393 32.0258 47.3933 32.0258 48.5369C32.0258 50.1381 31.2655 51.1902 29.7298 51.6782L32.503 56.695H31.2505L28.7308 51.8917C28.3283 51.9527 27.8959 51.9832 27.4337 51.9832H25.1078V56.695H24.0343V45.0907H27.4337ZM27.553 51.0682C28.701 51.0682 29.5509 50.8547 30.1025 50.4125C30.6542 49.9703 30.9524 49.3451 30.9524 48.5369C30.9524 47.7287 30.6691 47.1035 30.1025 46.6613C29.5359 46.2191 28.6861 46.0056 27.553 46.0056H25.1078V51.0682H27.553Z" fill="white"/>
<path d="M33.7404 46.0056V45.0907H42.4178V46.0056H38.6159V56.695H37.5424V46.0056H33.7404Z" fill="white"/>
<path d="M51.8855 45.0907V46.0056H45.6234V50.3515H51.6618V51.2665H45.6234V56.695H44.5499V45.0907H51.8855Z" fill="white"/>
<path d="M56.3732 56.2528C55.5979 55.7496 55.0015 55.0482 54.5692 54.1485C54.1517 53.2488 53.928 52.1966 53.928 51.0225C53.928 49.8483 54.1368 48.8114 54.5393 47.8507C54.9419 46.89 55.5383 46.1429 56.3285 45.6092C57.1038 45.0754 58.0282 44.801 59.0719 44.801C60.1155 44.801 60.9952 45.0602 61.7705 45.5787C62.5458 46.0971 63.1422 46.8443 63.5746 47.7897C64.0069 48.7352 64.2157 49.8178 64.2157 51.053C64.2157 52.2881 64.0069 53.2793 63.5895 54.1637C63.172 55.0482 62.5607 55.7648 61.7854 56.2528C61.0101 56.7408 60.1006 57 59.0719 57C58.0431 57 57.1336 56.756 56.3583 56.2528H56.3732ZM61.2337 55.4446C61.845 55.0177 62.3221 54.4077 62.6651 53.63C62.9931 52.8523 63.1571 51.9374 63.1571 50.9005C63.1571 49.8636 62.9782 48.9639 62.6352 48.1862C62.2923 47.4085 61.8152 46.7986 61.2039 46.3563C60.5926 45.9141 59.877 45.7159 59.0719 45.7159C58.2667 45.7159 57.5958 45.9294 56.9845 46.3563C56.3732 46.7833 55.8812 47.3933 55.5383 48.1862C55.1954 48.9791 55.0164 49.8788 55.0164 50.9005C55.0164 51.9222 55.1804 52.8523 55.5085 53.63C55.8365 54.4077 56.3136 55.0177 56.9398 55.4446C57.5511 55.8716 58.2667 56.0851 59.0868 56.0851C59.9068 56.0851 60.6225 55.8716 61.2337 55.4446Z" fill="white"/>
<path d="M67.8834 45.0907V55.7801H74.2498V56.695H66.8099V45.0907H67.8834Z" fill="white"/>
<path d="M77.8282 45.0907V56.695H76.7547V45.0907H77.8282Z" fill="white"/>
<path d="M83.2105 56.2528C82.4352 55.7496 81.8388 55.0482 81.4064 54.1485C80.989 53.2488 80.7653 52.1966 80.7653 51.0225C80.7653 49.8483 80.9741 48.8114 81.3766 47.8507C81.7792 46.89 82.3756 46.1429 83.1658 45.6092C83.9411 45.0754 84.8655 44.801 85.9091 44.801C86.9528 44.801 87.8325 45.0602 88.6078 45.5787C89.3831 46.0971 89.9795 46.8443 90.4118 47.7897C90.8442 48.7352 91.0529 49.8178 91.0529 51.053C91.0529 52.2881 90.8442 53.2793 90.4267 54.1637C90.0093 55.0482 89.398 55.7648 88.6227 56.2528C87.8474 56.7408 86.9379 57 85.9091 57C84.8804 57 83.9709 56.756 83.1956 56.2528H83.2105ZM88.071 55.4446C88.6823 55.0177 89.1594 54.4077 89.5023 53.63C89.8304 52.8523 89.9944 51.9374 89.9944 50.9005C89.9944 49.8636 89.8154 48.9639 89.4725 48.1862C89.1296 47.4085 88.6525 46.7986 88.0412 46.3563C87.4299 45.9141 86.7143 45.7159 85.9091 45.7159C85.104 45.7159 84.4331 45.9294 83.8218 46.3563C83.2105 46.7833 82.7185 47.3933 82.3756 48.1862C82.0326 48.9791 81.8537 49.8788 81.8537 50.9005C81.8537 51.9222 82.0177 52.8523 82.3457 53.63C82.6738 54.4077 83.1509 55.0177 83.7771 55.4446C84.3884 55.8716 85.104 56.0851 85.924 56.0851C86.7441 56.0851 87.4597 55.8716 88.071 55.4446Z" fill="white"/>
</g>
<defs>
<clipPath id="clip0_1_8">
<rect width="127" height="57" fill="white"/>
</clipPath>
</defs>
</svg>
