<svg width="297" height="250" viewBox="0 0 297 250" fill="none" xmlns="http://www.w3.org/2000/svg">
<rect y="158.251" width="283" height="110" rx="55" transform="rotate(-34 0 158.251)" fill="#2D2D2D"/>
<path d="M119.843 169.454C117.376 171.118 114.928 172.21 112.499 172.729C110.07 173.248 107.859 173.175 105.868 172.511C103.876 171.848 102.307 170.609 101.161 168.796L106.175 165.414L106.431 165.879C106.986 166.701 107.849 167.238 109.022 167.489C110.195 167.74 111.531 167.688 113.029 167.334C114.535 166.935 116.045 166.226 117.557 165.206C119.494 163.9 120.733 162.446 121.274 160.846C121.842 159.227 121.625 157.675 120.623 156.19C119.693 154.81 118.384 154.072 116.697 153.974C114.993 153.851 112.505 154.255 109.235 155.186C106.223 156.099 103.599 156.73 101.364 157.079C99.2894 157.437 97.4961 157.353 95.9845 156.829C94.4549 156.278 93.1802 155.247 92.1602 153.734C91.0329 152.063 90.4553 150.291 90.4274 148.419C90.426 146.528 91.0062 144.67 92.1679 142.844C93.3382 140.974 95.0508 139.279 97.3058 137.758C99.6138 136.201 101.814 135.199 103.906 134.753C105.954 134.298 107.849 134.332 109.591 134.856C111.316 135.352 112.728 136.272 113.826 137.615L108.892 140.943C107.911 140.061 106.587 139.7 104.919 139.86C103.278 140.002 101.555 140.681 99.7512 141.898C98.0268 143.061 96.8981 144.421 96.3651 145.977C95.8142 147.506 95.9414 148.868 96.7466 150.062C97.3014 150.884 98.0007 151.378 98.8448 151.542C99.7246 151.759 100.728 151.758 101.854 151.539C103.068 151.337 104.828 150.883 107.131 150.179C110.649 149.157 113.455 148.538 115.549 148.323C117.784 148.089 119.693 148.345 121.277 149.09C122.87 149.792 124.283 151.058 125.518 152.888C127.379 155.647 127.807 158.485 126.802 161.402C125.797 164.318 123.478 167.002 119.843 169.454ZM148.873 149.873C146.008 151.805 143.085 152.851 140.104 153.009C137.149 153.149 134.305 152.423 131.572 150.832C128.847 149.196 126.393 146.759 124.21 143.523C121.902 140.1 120.495 136.784 119.989 133.574C119.466 130.337 119.814 127.362 121.032 124.649C122.234 121.909 124.267 119.572 127.132 117.64C129.413 116.101 131.765 115.152 134.186 114.792C136.615 114.389 138.928 114.585 141.125 115.381C143.321 116.176 145.228 117.515 146.845 119.397L141.95 122.698C140.148 121.057 138.244 120.18 136.238 120.067C134.213 119.927 132.14 120.573 130.018 122.004C128.161 123.257 126.865 124.826 126.129 126.711C125.403 128.552 125.267 130.612 125.723 132.891C126.188 135.125 127.244 137.462 128.89 139.903C131.359 143.564 134.11 145.897 137.142 146.901C140.174 147.905 143.109 147.45 145.948 145.535C148.229 143.996 149.657 142.222 150.232 140.213C150.816 138.16 150.573 135.969 149.504 133.641L154.558 130.232C155.919 132.479 156.611 134.792 156.633 137.17C156.663 139.504 156.014 141.775 154.686 143.984C153.384 146.174 151.447 148.137 148.873 149.873ZM177.447 130.599C174.98 132.263 172.532 133.355 170.103 133.874C167.674 134.393 165.464 134.321 163.472 133.657C161.48 132.993 159.912 131.755 158.766 129.941L163.78 126.559L164.035 127.024C164.59 127.846 165.454 128.383 166.627 128.634C167.8 128.885 169.135 128.834 170.633 128.479C172.14 128.081 173.649 127.371 175.161 126.351C177.098 125.045 178.337 123.592 178.879 121.991C179.447 120.373 179.23 118.821 178.228 117.335C177.297 115.956 175.989 115.217 174.302 115.12C172.597 114.996 170.11 115.4 166.84 116.332C163.827 117.244 161.203 117.876 158.969 118.225C156.894 118.582 155.1 118.499 153.589 117.974C152.059 117.424 150.785 116.392 149.765 114.88C148.637 113.208 148.06 111.437 148.032 109.564C148.03 107.674 148.611 105.815 149.772 103.99C150.942 102.12 152.655 100.424 154.91 98.903C157.218 97.3462 159.418 96.3447 161.51 95.8985C163.558 95.4437 165.453 95.4778 167.196 96.0009C168.92 96.4975 170.332 97.4173 171.431 98.7604L166.496 102.089C165.515 101.206 164.191 100.845 162.523 101.005C160.882 101.147 159.159 101.827 157.355 103.043C155.631 104.207 154.502 105.566 153.969 107.122C153.419 108.652 153.546 110.013 154.351 111.207C154.906 112.03 155.605 112.523 156.449 112.687C157.329 112.904 158.332 112.903 159.458 112.684C160.673 112.482 162.432 112.029 164.736 111.324C168.254 110.302 171.059 109.684 173.153 109.468C175.388 109.234 177.298 109.49 178.882 110.236C180.474 110.937 181.888 112.203 183.122 114.034C184.983 116.793 185.411 119.631 184.406 122.547C183.402 125.464 181.082 128.148 177.447 130.599ZM204.209 112.548C201.742 114.212 199.294 115.304 196.865 115.823C194.436 116.342 192.226 116.269 190.234 115.606C188.242 114.942 186.674 113.703 185.528 111.89L190.542 108.508L190.797 108.973C191.352 109.795 192.216 110.332 193.389 110.583C194.561 110.834 195.897 110.782 197.395 110.428C198.902 110.03 200.411 109.32 201.923 108.3C203.86 106.994 205.099 105.541 205.641 103.94C206.209 102.322 205.992 100.77 204.99 99.284C204.059 97.9045 202.75 97.1661 201.064 97.0687C199.359 96.9448 196.872 97.3488 193.602 98.2806C190.589 99.1933 187.965 99.8243 185.731 100.174C183.656 100.531 181.862 100.448 180.351 99.9232C178.821 99.3723 177.546 98.3408 176.526 96.8287C175.399 95.1573 174.822 93.3854 174.794 91.5128C174.792 89.6224 175.372 87.7643 176.534 85.9386C177.704 84.0684 179.417 82.3729 181.672 80.8519C183.98 79.2951 186.18 78.2936 188.272 77.8474C190.32 77.3925 192.215 77.4266 193.958 77.9497C195.682 78.4463 197.094 79.3661 198.193 80.7092L193.258 84.0376C192.277 83.1553 190.953 82.7942 189.285 82.9541C187.644 83.0961 185.921 83.7755 184.117 84.9923C182.393 86.1554 181.264 87.515 180.731 89.0711C180.18 90.6006 180.308 91.9623 181.113 93.1561C181.668 93.9785 182.367 94.4717 183.211 94.6358C184.091 94.8529 185.094 94.8519 186.22 94.6328C187.435 94.431 189.194 93.9777 191.498 93.273C195.016 92.251 197.821 91.6323 199.915 91.4169C202.15 91.1829 204.06 91.4388 205.644 92.1847C207.236 92.8861 208.65 94.1521 209.884 95.9826C211.745 98.7416 212.173 101.579 211.168 104.496C210.164 107.412 207.844 110.097 204.209 112.548Z" fill="white"/>
</svg>
