<svg width="305" height="197" viewBox="0 0 305 197" fill="none" xmlns="http://www.w3.org/2000/svg">
<rect x="36.7765" y="0.33667" width="283" height="110" rx="55" transform="rotate(19 36.7765 0.33667)" fill="#2D2D2D"/>
<path d="M68.4427 92.7963C69.6029 93.1619 70.5272 93.3279 71.2157 93.2942C71.8833 93.321 72.4471 93.109 72.9069 92.6581C73.3563 92.2375 73.7529 91.528 74.0967 90.5295L82.8793 65.0232L88.4162 66.9297L79.4618 92.9353C78.7013 95.144 77.8408 96.7092 76.8805 97.6307C75.9305 98.522 74.7723 98.9862 73.4058 99.0233C72.0288 99.0907 70.2057 98.7337 67.9365 97.9524L66.8018 97.5617L68.4427 92.7963ZM86.976 62.1188C85.9171 61.7541 85.1641 61.1395 84.7173 60.2749C84.2704 59.4103 84.2085 58.5091 84.5314 57.5711C84.8648 56.6029 85.4737 55.9157 86.3581 55.5095C87.2426 55.1033 88.2143 55.0826 89.2733 55.4472C90.3322 55.8118 91.0852 56.4264 91.532 57.291C91.9789 58.1556 92.0356 59.072 91.7022 60.0402C91.3793 60.9782 90.7756 61.6503 89.8912 62.0564C89.0067 62.4626 88.035 62.4834 86.976 62.1188ZM108.742 101.9C106.788 101.972 104.646 101.607 102.317 100.805C99.0187 99.6693 96.3641 97.943 94.3528 95.6259C92.3719 93.3193 91.1543 90.5649 90.7001 87.3625C90.2762 84.1706 90.6998 80.729 91.9708 77.0377C93.2939 73.1951 95.1306 70.1216 97.4809 67.8173C99.8416 65.4826 102.523 63.9861 105.525 63.3275C108.557 62.6794 111.707 62.9179 114.975 64.0431C118.242 65.1682 120.871 66.9196 122.862 69.2971C124.842 71.7049 126.018 74.5804 126.39 77.9236C126.802 81.247 126.368 84.7694 125.086 88.491C123.992 91.6679 122.463 94.3397 120.499 96.5062C118.575 98.6528 116.344 100.169 113.805 101.055L115.035 107.215L109.362 105.261L108.742 101.9ZM103.942 96.0848C105.122 96.4911 106.39 96.6908 107.746 96.684L105.742 85.9929L111.188 87.8682L112.678 95.3361C114.184 94.5009 115.536 93.2745 116.736 91.6571C117.967 90.0501 118.957 88.1573 119.707 85.9788C120.655 83.2255 121.009 80.6737 120.769 78.3236C120.529 75.9734 119.759 73.9824 118.46 72.3504C117.171 70.6881 115.452 69.4872 113.304 68.7475C111.186 68.0182 109.102 67.9268 107.053 68.4733C105.044 69 103.211 70.1457 101.554 71.9104C99.9078 73.6449 98.6106 75.8888 97.6625 78.6422C96.7249 81.3653 96.3505 83.9269 96.5393 86.3272C96.7688 88.7076 97.5229 90.744 98.8016 92.4365C100.08 94.129 101.794 95.3451 103.942 96.0848ZM132.204 110.842C129.451 109.894 127.639 108.373 126.769 106.28C125.889 104.217 125.985 101.627 127.058 98.511L132.684 82.1724L138.221 84.079L132.845 99.6914C132.158 101.688 131.991 103.205 132.345 104.24C132.729 105.286 133.714 106.015 135.299 106.425C138.468 107.246 141.477 106.962 144.324 105.573L150.294 88.2358L155.83 90.1424L147.142 115.376L141.832 113.548L142.635 110.626C139.487 111.708 136.55 111.932 133.824 111.298L132.204 110.842ZM164.775 122.311C160.66 120.894 157.849 118.64 156.341 115.549C154.823 112.488 154.783 108.87 156.221 104.694C157.2 101.85 158.619 99.5972 160.477 97.9356C162.254 96.3137 164.262 95.2963 166.503 94.8832C168.774 94.4806 171.104 94.6908 173.494 95.5138C175.764 96.2952 177.66 97.4726 179.182 99.0461C180.705 100.62 181.678 102.562 182.1 104.873C182.563 107.165 182.417 109.653 181.662 112.338L180.74 115.015L161.179 108.28C160.52 110.49 160.642 112.444 161.546 114.143C162.451 115.842 164.037 117.082 166.307 117.863C167.819 118.384 169.164 118.559 170.339 118.389C171.545 118.229 172.501 117.762 173.207 116.99L178.925 118.959C177.488 121.07 175.521 122.407 173.026 122.969C170.521 123.562 167.77 123.342 164.775 122.311ZM176.581 108.811C177.118 106.762 176.958 104.964 176.103 103.418C175.259 101.841 173.838 100.709 171.841 100.021C169.935 99.3647 168.163 99.3978 166.527 100.12C164.901 100.813 163.623 102.116 162.694 104.029L176.581 108.811ZM195.892 103.936L194.962 107.373C196.286 106.475 197.608 105.881 198.926 105.591C200.255 105.27 201.505 105.277 202.675 105.612C204.401 106.105 205.862 106.777 207.058 107.629L205.386 112.485C203.758 111.315 202.121 110.515 200.476 110.084C199.336 109.759 198.152 109.757 196.924 110.079C195.696 110.401 194.516 111.027 193.384 111.957L187.477 129.112L181.94 127.206L190.581 102.108L195.892 103.936ZM200.366 138.272C202.645 139.124 204.575 139.366 206.157 138.997C207.76 138.669 209.434 137.638 211.182 135.904L208.873 108.406L214.591 110.375L215.545 130.604L215.636 130.635L228.116 115.032L233.834 117.001L218.63 134.915C215.712 138.378 213.274 140.838 211.316 142.296C210.052 143.215 208.822 143.84 207.624 144.172C206.457 144.515 205.181 144.583 203.797 144.378C202.402 144.202 200.717 143.74 198.741 142.992L200.366 138.272Z" fill="white"/>
</svg>
