<svg width="337" height="206" viewBox="0 0 337 206" fill="none" xmlns="http://www.w3.org/2000/svg">
<rect x="34.886" width="321.029" height="102" rx="51" transform="rotate(20 34.886 0)" fill="#2D2D2D"/>
<path d="M117.638 103.939C114.39 102.757 111.826 101.007 109.946 98.6877C108.096 96.3797 107.011 93.6523 106.692 90.5054C106.414 87.3394 106.943 83.9221 108.278 80.2536C109.69 76.3745 111.546 73.2871 113.846 70.9912C116.157 68.6653 118.768 67.198 121.68 66.5892C124.603 65.9503 127.688 66.2219 130.936 67.4039C133.522 68.3451 135.672 69.6895 137.385 71.437C139.14 73.1654 140.341 75.1519 140.988 77.3967C141.635 79.6414 141.673 81.9708 141.101 84.3847L135.553 82.3654C135.822 79.9432 135.412 77.8871 134.325 76.1972C133.248 74.4773 131.507 73.1795 129.101 72.3039C126.996 71.5378 124.965 71.4114 123.007 71.9249C121.091 72.4191 119.345 73.5204 117.769 75.2286C116.235 76.9178 114.965 79.1456 113.958 81.912C112.447 86.0617 112.177 89.6581 113.147 92.7013C114.116 95.7445 116.21 97.8516 119.427 99.0227C122.013 99.9639 124.288 100.077 126.251 99.3609C128.255 98.6261 129.885 97.1421 131.141 94.9088L136.869 96.9937C135.851 99.4157 134.387 101.335 132.475 102.75C130.605 104.147 128.386 104.957 125.819 105.18C123.282 105.414 120.555 105.001 117.638 103.939ZM150.026 115.727C147.229 114.71 144.907 113.371 143.06 111.711C141.212 110.051 139.971 108.22 139.338 106.218C138.704 104.217 138.784 102.22 139.577 100.227L145.261 102.295L145.035 102.775C144.696 103.707 144.769 104.722 145.255 105.818C145.742 106.915 146.568 107.965 147.736 108.968C148.944 109.953 150.405 110.757 152.119 111.381C154.314 112.18 156.218 112.328 157.831 111.826C159.474 111.334 160.602 110.246 161.215 108.562C161.784 106.999 161.613 105.506 160.7 104.084C159.798 102.632 158.009 100.857 155.333 98.7594C152.824 96.8585 150.772 95.1068 149.175 93.5043C147.667 92.0357 146.68 90.5359 146.216 89.0047C145.762 87.4435 145.848 85.8059 146.472 84.0919C147.161 82.1975 148.255 80.6886 149.754 79.5654C151.282 78.4532 153.126 77.8304 155.286 77.6971C157.487 77.5446 159.866 77.9335 162.422 78.8638C165.038 79.816 167.141 81.0073 168.732 82.4376C170.303 83.8269 171.39 85.3801 171.991 87.0972C172.603 88.7842 172.688 90.467 172.248 92.1455L166.655 90.1098C166.792 88.7975 166.305 87.5138 165.196 86.2586C164.116 85.0143 162.554 84.0201 160.509 83.2758C158.555 82.5644 156.791 82.4505 155.219 82.9339C153.658 83.3873 152.631 84.2905 152.139 85.6437C151.799 86.5759 151.811 87.4316 152.175 88.2109C152.516 89.0503 153.107 89.8611 153.946 90.6433C154.823 91.5074 156.224 92.6643 158.148 94.1139C161.043 96.3593 163.192 98.2655 164.597 99.8324C166.1 101.503 167.016 103.199 167.343 104.918C167.712 106.619 167.518 108.507 166.763 110.582C165.625 113.709 163.581 115.723 160.631 116.625C157.68 117.526 154.146 117.227 150.026 115.727ZM180.36 126.768C177.563 125.75 175.241 124.411 173.394 122.751C171.546 121.091 170.305 119.26 169.672 117.259C169.038 115.258 169.118 113.26 169.911 111.268L175.595 113.336L175.369 113.816C175.03 114.748 175.103 115.762 175.589 116.859C176.076 117.955 176.902 119.005 178.069 120.009C179.278 120.994 180.739 121.798 182.453 122.422C184.648 123.221 186.552 123.369 188.165 122.866C189.808 122.375 190.936 121.287 191.549 119.603C192.118 118.039 191.947 116.547 191.034 115.125C190.132 113.673 188.343 111.898 185.667 109.8C183.158 107.899 181.106 106.148 179.509 104.545C178.001 103.076 177.014 101.577 176.55 100.045C176.096 98.4842 176.182 96.8466 176.806 95.1326C177.495 93.2381 178.589 91.7293 180.088 90.6061C181.616 89.4938 183.46 88.871 185.62 88.7377C187.821 88.5853 190.2 88.9742 192.756 89.9045C195.372 90.8567 197.475 92.0479 199.066 93.4782C200.637 94.8676 201.724 96.4208 202.325 98.1378C202.937 99.8249 203.022 101.508 202.582 103.186L196.988 101.15C197.126 99.8382 196.639 98.5545 195.53 97.2993C194.45 96.055 192.888 95.0607 190.843 94.3165C188.889 93.6051 187.125 93.4911 185.553 93.9746C183.992 94.4279 182.965 95.3312 182.473 96.6844C182.133 97.6165 182.145 98.4723 182.509 99.2516C182.85 100.091 183.44 100.902 184.28 101.684C185.157 102.548 186.558 103.705 188.482 105.155C191.377 107.4 193.526 109.306 194.931 110.873C196.434 112.544 197.35 114.239 197.677 115.959C198.046 117.66 197.852 119.547 197.097 121.622C195.959 124.75 193.915 126.764 190.965 127.665C188.014 128.567 184.48 128.267 180.36 126.768ZM209.972 137.546C206.364 136.233 203.759 134.314 202.158 131.79C200.556 129.266 200.174 126.386 201.012 123.149L206.65 125.201C206.02 128.99 207.63 131.585 211.479 132.986C213.493 133.72 215.299 133.764 216.896 133.119C218.523 132.485 219.665 131.266 220.321 129.462C221.098 127.327 220.983 125.446 219.974 123.819C219.007 122.173 217.245 120.885 214.689 119.955L209.457 118.05L211 113.81L215.015 115.271C217.541 116.191 219.681 116.391 221.437 115.872C223.203 115.323 224.42 114.131 225.087 112.297C225.602 110.884 225.542 109.551 224.908 108.299C224.315 107.027 223.267 106.118 221.764 105.571C220.26 105.023 218.879 104.981 217.622 105.442C216.364 105.904 215.414 106.784 214.771 108.082L209.268 106.08C210.042 104.42 211.142 103.084 212.566 102.07C214.032 101.037 215.698 100.434 217.566 100.263C219.444 100.061 221.406 100.332 223.45 101.076C225.615 101.864 227.327 102.964 228.584 104.375C229.822 105.745 230.625 107.281 230.994 108.981C231.392 110.693 231.307 112.33 230.738 113.894C230.125 115.578 229.101 116.942 227.665 117.986C226.26 119.041 224.623 119.654 222.756 119.826L222.608 120.232C224.292 121.594 225.414 123.33 225.973 125.441C226.574 127.532 226.486 129.646 225.709 131.781C224.987 133.765 223.835 135.338 222.255 136.5C220.674 137.661 218.814 138.329 216.673 138.504C214.551 138.719 212.318 138.4 209.972 137.546Z" fill="white"/>
</svg>
