<svg width="342" height="214" viewBox="0 0 342 214" fill="none" xmlns="http://www.w3.org/2000/svg">
<rect y="110.472" width="323" height="110" rx="55" transform="rotate(-20 0 110.472)" fill="#2D2D2D"/>
<path d="M90.1651 114.983L95.4185 129.416L112.874 123.063L107.621 108.629L113.124 106.626L125.781 141.402L120.278 143.405L114.516 127.573L97.0602 133.927L102.823 149.759L97.3197 151.762L84.6623 116.985L90.1651 114.983ZM119.14 109.545L117.498 105.034L145.554 94.8228L147.195 99.3333L135.964 103.421L146.98 133.687L141.432 135.706L130.416 105.44L119.14 109.545ZM156.857 90.7086L178.197 114.254L178.288 114.221L179.049 82.6314L186.446 79.939L199.104 114.715L193.601 116.718L186.066 96.0147C185.234 93.7294 184.617 91.8937 184.215 90.5078L184.124 90.5406L183.317 120.461L178.401 122.251L158.505 99.8654L158.414 99.8983C158.997 101.219 159.704 103.021 160.536 105.307L168.072 126.01L162.569 128.013L149.911 93.2368L156.857 90.7086ZM198.25 75.6428L209.266 105.908L226 99.8177L227.642 104.328L205.27 112.471L192.612 77.6949L198.25 75.6428ZM244.273 99.2966C240.905 100.522 237.801 100.648 234.96 99.6726C232.13 98.7275 230.012 96.7911 228.606 93.8634L234.154 91.8442C235.138 93.4268 236.372 94.4763 237.854 94.9926C239.355 95.4678 240.947 95.399 242.631 94.7861C244.586 94.0747 245.913 92.8085 246.612 90.9875C247.311 89.1665 247.262 87.1584 246.463 84.9633C245.74 82.9787 244.589 81.5929 243.008 80.806C241.417 79.989 239.704 79.9143 237.87 80.5819C236.908 80.9322 235.962 81.5148 235.033 82.3298C234.122 83.1037 233.322 83.9911 232.63 84.992L227.263 86.9456L222.643 66.8156L241.407 59.9861L243.049 64.4966L229.156 69.553L231.456 79.8006C232.123 79.013 232.933 78.2924 233.887 77.6387C234.86 76.9439 235.873 76.4051 236.925 76.022C239.151 75.2121 241.26 74.9723 243.253 75.3025C245.276 75.6218 247.045 76.4592 248.56 77.8148C250.075 79.1704 251.232 80.9457 252.031 83.1408C252.885 85.4863 253.129 87.7472 252.763 89.9235C252.417 92.0589 251.501 93.9414 250.017 95.5713C248.563 97.1902 246.648 98.432 244.273 99.2966Z" fill="white"/>
</svg>
