<svg width="373" height="285" viewBox="0 0 373 285" fill="none" xmlns="http://www.w3.org/2000/svg">
<rect x="56.6542" width="369" height="110" rx="55" transform="rotate(31 56.6542 0)" fill="#2AE2BD"/>
<path d="M103.416 69.4495L84.3556 101.172L79.336 98.1555L98.3965 66.4334L103.416 69.4495ZM95.7724 108.591C94.6203 107.899 93.8772 107.117 93.543 106.244C93.1923 105.399 93.1765 104.4 93.4955 103.247C93.842 102.112 94.5261 100.693 95.548 98.9929L111.147 73.031L116.167 76.047L100.345 102.379C99.9165 103.092 99.6774 103.677 99.6277 104.132C99.5781 104.588 99.7397 105.002 100.113 105.375C100.486 105.749 101.114 106.164 101.997 106.62L99.7967 110.282C98.4304 109.946 97.089 109.383 95.7724 108.591ZM109.098 116.598C107.946 115.906 107.203 115.124 106.869 114.251C106.518 113.406 106.502 112.407 106.821 111.254C107.168 110.119 107.852 108.7 108.874 107L124.473 81.0379L129.493 84.054L113.671 110.386C113.242 111.099 113.003 111.684 112.954 112.139C112.904 112.595 113.066 113.009 113.438 113.382C113.811 113.756 114.44 114.171 115.323 114.627L113.123 118.288C111.756 117.953 110.415 117.39 109.098 116.598ZM124.481 126.121C121.985 124.622 120.529 122.757 120.113 120.529C119.681 118.328 120.314 115.815 122.012 112.99L130.911 98.178L135.931 101.194L127.427 115.348C126.339 117.158 125.861 118.606 125.992 119.693C126.15 120.796 126.962 121.713 128.427 122.444C131.356 123.906 134.358 124.253 137.432 123.487L146.875 107.77L151.895 110.786L138.15 133.662L133.336 130.77L134.729 128.079C131.425 128.483 128.505 128.091 125.971 126.904L124.481 126.121ZM152.351 143.147C150.102 141.796 148.369 140.269 147.151 138.567C145.934 136.865 145.28 135.128 145.187 133.355C145.123 131.599 145.645 129.953 146.755 128.417L151.898 131.507C151.837 131.546 151.716 131.716 151.535 132.017C150.843 133.169 150.839 134.418 151.524 135.763C152.226 137.08 153.468 138.275 155.251 139.346C156.376 140.022 157.438 140.305 158.436 140.196C159.452 140.059 160.207 139.58 160.701 138.757C161.13 138.044 161.111 137.174 160.645 136.147C160.152 135.104 159.083 133.622 157.438 131.7C155.491 129.224 154.221 127.546 153.629 126.668C152.818 125.471 152.377 124.31 152.306 123.185C152.263 122.076 152.604 120.919 153.329 119.712C154.12 118.395 155.188 117.487 156.533 116.989C157.894 116.463 159.417 116.351 161.102 116.654C162.803 116.93 164.531 117.595 166.287 118.65C168.838 120.182 170.587 122.055 171.535 124.267C172.511 126.496 172.504 128.713 171.515 130.919L166.536 127.927C166.948 126.868 166.93 125.905 166.48 125.038C166.047 124.143 165.118 123.267 163.691 122.41C162.539 121.718 161.475 121.377 160.498 121.387C159.565 121.387 158.893 121.729 158.481 122.415C158.085 123.073 158.117 123.858 158.578 124.769C159.027 125.637 160.055 127.094 161.662 129.143C163.439 131.405 164.716 133.162 165.495 134.413C166.312 135.726 166.739 136.972 166.777 138.151C166.814 139.331 166.462 140.539 165.721 141.773C164.765 143.364 163.535 144.417 162.031 144.932C160.56 145.392 158.99 145.457 157.322 145.126C155.681 144.812 154.024 144.153 152.351 143.147ZM174.967 156.064C173.239 155.026 172.008 153.969 171.273 152.893C170.566 151.833 170.339 150.596 170.592 149.18C170.873 147.781 171.656 146.011 172.942 143.872L179.493 132.969L175.996 130.867L178.468 126.753L181.965 128.854L185.352 123.217L190.372 126.233L186.985 131.87L192.457 135.158L189.985 139.273L184.512 135.985L177.763 147.217C177.22 148.122 176.89 148.857 176.774 149.422C176.686 150.004 176.859 150.556 177.292 151.077C177.752 151.615 178.559 152.231 179.711 152.923C180.588 153.45 181.132 153.758 181.34 153.846L178.893 157.919C177.318 157.309 176.009 156.691 174.967 156.064ZM201.257 140.446L199.633 143.614C201.116 143.011 202.532 142.705 203.882 142.695C205.248 142.657 206.469 142.924 207.544 143.496C209.13 144.336 210.419 145.298 211.412 146.379L208.766 150.782C207.417 149.299 205.983 148.176 204.463 147.412C203.415 146.857 202.258 146.61 200.99 146.669C199.722 146.729 198.438 147.096 197.137 147.77L187.792 163.322L182.772 160.306L196.443 137.554L201.257 140.446ZM209.722 177.619C206.595 175.74 204.766 173.223 204.236 170.067C203.689 166.938 204.545 163.495 206.802 159.737C208.253 157.324 209.963 155.44 211.935 154.085C213.933 152.748 216.005 152.033 218.151 151.941C220.313 151.821 222.355 152.339 224.275 153.492C227.209 155.256 228.813 157.619 229.086 160.583L230.841 158.222L235.572 161.065L221.901 183.817L217.169 180.974L218.497 178.3C215.499 179.56 212.574 179.333 209.722 177.619ZM212.836 173.834C214.317 174.724 215.941 174.972 217.709 174.578C219.476 174.184 221.005 173.255 222.296 171.791L225.979 165.66C226.156 164.124 225.904 162.647 225.225 161.231C224.589 159.804 223.654 158.719 222.42 157.977C221.35 157.335 220.17 157.092 218.88 157.251C217.634 157.398 216.386 157.954 215.134 158.92C213.898 159.857 212.794 161.135 211.822 162.754C210.372 165.167 209.728 167.357 209.892 169.321C210.099 171.275 211.08 172.78 212.836 173.834ZM236.039 192.76C234.311 191.722 233.08 190.665 232.345 189.589C231.638 188.529 231.411 187.291 231.664 185.875C231.945 184.476 232.728 182.707 234.013 180.567L240.565 169.664L237.068 167.563L239.54 163.448L243.037 165.55L246.424 159.913L251.443 162.929L248.057 168.566L253.529 171.854L251.056 175.968L245.584 172.68L238.835 183.913C238.291 184.818 237.962 185.553 237.846 186.118C237.758 186.7 237.93 187.251 238.364 187.773C238.824 188.311 239.631 188.926 240.783 189.619C241.66 190.146 242.203 190.454 242.412 190.542L239.965 194.615C238.39 194.005 237.081 193.386 236.039 192.76ZM254.047 204.252C251.77 202.884 250.059 201.166 248.914 199.096C247.779 197.07 247.284 194.85 247.428 192.435C247.572 190.021 248.361 187.62 249.795 185.234C251.245 182.82 253.008 181.005 255.083 179.788C257.175 178.543 259.395 177.955 261.744 178.022C264.093 178.089 266.364 178.782 268.559 180.101C270.726 181.403 272.376 183.067 273.511 185.093C274.646 187.118 275.155 189.347 275.038 191.778C274.938 194.181 274.162 196.59 272.712 199.004C271.278 201.39 269.529 203.214 267.465 204.475C265.445 205.725 263.265 206.338 260.928 206.315C258.59 206.291 256.296 205.604 254.047 204.252ZM256.519 200.138C257.726 200.863 259.007 201.185 260.363 201.104C261.735 200.995 263.058 200.502 264.332 199.624C265.622 198.72 266.728 197.499 267.651 195.963C269.135 193.495 269.693 191.198 269.327 189.074C269.004 186.939 267.897 185.303 266.004 184.166C264.797 183.441 263.502 183.111 262.119 183.176C260.764 183.257 259.449 183.736 258.175 184.614C256.902 185.491 255.795 186.711 254.856 188.275C253.883 189.893 253.322 191.479 253.173 193.032C253.024 194.585 253.232 195.979 253.796 197.214C254.405 198.438 255.312 199.413 256.519 200.138ZM288.794 193.043L287.17 196.211C288.652 195.609 290.068 195.302 291.418 195.292C292.785 195.255 294.006 195.522 295.081 196.093C296.666 196.934 297.955 197.895 298.948 198.977L296.303 203.379C294.954 201.896 293.519 200.773 292 200.009C290.952 199.454 289.794 199.207 288.526 199.266C287.258 199.326 285.974 199.693 284.673 200.367L275.328 215.919L270.309 212.903L283.98 190.151L288.794 193.043Z" fill="black"/>
</svg>
