<svg width="221" height="212" viewBox="0 0 221 212" fill="none" xmlns="http://www.w3.org/2000/svg">
<rect y="128.587" width="196" height="110" rx="55" transform="rotate(-41 0 128.587)" fill="#2AE2BD"/>
<path d="M95.6033 121.677L75.1362 115.619L80.0992 111.305L95.675 116.273L95.7475 116.21L92.9956 100.094L97.9586 95.7797L101.11 116.891L122.781 123.238L117.818 127.552L101.069 122.332L100.997 122.395L103.835 139.707L98.8722 144.022L95.6033 121.677ZM110.019 85.2955C114.777 81.1597 119.333 79.2554 123.688 79.5826C128.046 79.8646 132.251 82.3362 136.303 86.9973C140.334 91.6342 142.208 96.1317 141.926 100.49C141.623 104.824 139.081 109.069 134.299 113.226L126.112 120.343L101.832 92.4124L110.019 85.2955ZM131.299 109.409C134.68 106.47 136.404 103.551 136.471 100.653C136.562 97.7329 135.032 94.4618 131.883 90.8392C128.713 87.1924 125.676 85.2108 122.772 84.8943C119.893 84.5569 116.762 85.8577 113.381 88.7968L109.432 92.2293L127.351 112.842L131.299 109.409Z" fill="black"/>
</svg>
