<svg width="385" height="186" viewBox="0 0 385 186" fill="none" xmlns="http://www.w3.org/2000/svg">
<rect x="23.4669" y="0.842285" width="369" height="110" rx="55" transform="rotate(12 23.4669 0.842285)" fill="#2AE2BD"/>
<path d="M86.8041 50.3697L79.1097 86.5689L73.3816 85.3514L81.076 49.1521L86.8041 50.3697ZM92.3201 89.8676C91.0055 89.5882 90.0481 89.0903 89.448 88.3738C88.8411 87.6887 88.501 86.7495 88.4275 85.5561C88.3853 84.3694 88.5705 82.8057 88.9829 80.8651L95.2802 51.2389L101.008 52.4565L94.6212 82.5052C94.4482 83.319 94.4123 83.9493 94.5137 84.3961C94.615 84.843 94.9027 85.1822 95.3769 85.4139C95.8511 85.6455 96.58 85.8332 97.5637 85.9768L96.6755 90.1555C95.2743 90.2829 93.8226 90.187 92.3201 89.8676ZM107.527 93.0999C106.212 92.8205 105.255 92.3225 104.655 91.6061C104.048 90.921 103.708 89.9817 103.634 88.7884C103.592 87.6017 103.777 86.038 104.19 84.0973L110.487 54.4712L116.215 55.6887L109.828 85.7374C109.655 86.5513 109.619 87.1816 109.72 87.6284C109.822 88.0752 110.109 88.4145 110.584 88.6461C111.058 88.8778 111.787 89.0654 112.77 89.2091L111.882 93.3877C110.481 93.5152 109.029 93.4193 107.527 93.0999ZM125.172 97.0959C122.324 96.4904 120.34 95.2019 119.222 93.2303C118.096 91.2899 117.877 88.7078 118.562 85.4838L122.154 68.5814L127.883 69.7989L124.449 85.9501C124.01 88.016 124.03 89.5413 124.507 90.5261C125.016 91.5176 126.082 92.1204 127.705 92.3345C130.951 92.7627 133.902 92.1142 136.559 90.3889L140.372 72.4535L146.1 73.6711L140.551 99.7759L135.058 98.6082L135.498 95.6104C132.506 97.0681 129.618 97.6484 126.835 97.3513L125.172 97.0959ZM157.067 104.121C154.5 103.575 152.364 102.696 150.659 101.483C148.954 100.27 147.769 98.8403 147.105 97.1942C146.472 95.5548 146.43 93.8283 146.979 92.0148L152.848 93.2623C152.804 93.3183 152.745 93.5184 152.671 93.8627C152.392 95.1773 152.795 96.359 153.881 97.4076C154.973 98.4249 156.537 99.1498 158.571 99.5823C159.855 99.8551 160.951 99.7773 161.86 99.3489C162.775 98.8892 163.333 98.1899 163.532 97.2508C163.705 96.437 163.405 95.6206 162.63 94.8017C161.824 93.9761 160.33 92.9225 158.149 91.641C155.502 89.9334 153.756 88.7607 152.91 88.1229C151.753 87.2554 150.958 86.3012 150.525 85.2604C150.123 84.2263 150.069 83.0206 150.362 81.6434C150.681 80.141 151.395 78.9351 152.504 78.0259C153.62 77.0854 155.024 76.4841 156.716 76.222C158.414 75.9287 160.264 75.9949 162.268 76.4207C165.179 77.0394 167.442 78.2403 169.059 80.0234C170.707 81.8131 171.422 83.9117 171.205 86.3192L165.524 85.1116C165.569 83.9762 165.238 83.0715 164.53 82.3977C163.83 81.6926 162.665 81.1671 161.038 80.8212C159.723 80.5417 158.606 80.5659 157.685 80.8937C156.803 81.1969 156.279 81.7398 156.112 82.5223C155.953 83.2735 156.239 84.005 156.971 84.7167C157.678 85.3905 159.125 86.4341 161.311 87.8475C163.727 89.408 165.507 90.6533 166.651 91.5834C167.85 92.5581 168.66 93.5971 169.08 94.7005C169.5 95.8039 169.56 97.0598 169.26 98.4684C168.875 100.284 168.054 101.68 166.8 102.656C165.559 103.57 164.096 104.143 162.411 104.373C160.758 104.611 158.976 104.527 157.067 104.121ZM182.656 108.971C180.684 108.552 179.176 107.953 178.131 107.175C177.117 106.403 176.499 105.307 176.278 103.886C176.088 102.471 176.252 100.543 176.771 98.1019L179.416 85.6599L175.425 84.8116L176.423 80.1165L180.414 80.9648L181.781 74.5325L187.509 75.75L186.142 82.1823L192.386 83.5096L191.388 88.2047L185.144 86.8774L182.419 99.6951C182.2 100.728 182.127 101.53 182.202 102.103C182.308 102.681 182.651 103.147 183.23 103.499C183.841 103.858 184.804 104.177 186.118 104.456C187.12 104.669 187.734 104.783 187.959 104.798L186.971 109.447C185.284 109.382 183.845 109.224 182.656 108.971ZM202.429 85.6442L201.925 89.1685C203.13 88.1161 204.369 87.3653 205.643 86.9162C206.922 86.4358 208.164 86.2907 209.366 86.4809C211.139 86.7596 212.671 87.2488 213.962 87.9484L212.894 92.9722C211.136 92.0096 209.414 91.4146 207.728 91.1871C206.557 91.0036 205.381 91.1463 204.202 91.6154C203.023 92.0844 201.928 92.8495 200.917 93.9106L197.145 111.658L191.417 110.441L196.935 84.4766L202.429 85.6442ZM222.535 118.036C218.966 117.278 216.418 115.493 214.889 112.682C213.353 109.902 213.041 106.368 213.953 102.079C214.538 99.3249 215.542 96.9865 216.965 95.0643C218.419 93.1488 220.146 91.7982 222.145 91.0127C224.15 90.1958 226.249 90.0203 228.44 90.486C231.789 91.1979 234.075 92.9106 235.297 95.624L236.188 92.8199L241.587 93.9676L236.068 119.932L230.669 118.784L231.053 115.823C228.629 117.99 225.79 118.728 222.535 118.036ZM224.247 113.444C225.937 113.803 227.554 113.509 229.096 112.561C230.639 111.613 231.782 110.237 232.526 108.432L234.013 101.436C233.68 99.9257 232.961 98.6116 231.857 97.4937C230.792 96.3512 229.554 95.6302 228.146 95.3308C226.925 95.0713 225.731 95.2264 224.563 95.796C223.433 96.341 222.433 97.2735 221.564 98.5936C220.701 99.8823 220.073 101.45 219.681 103.297C219.095 106.051 219.2 108.331 219.994 110.135C220.826 111.915 222.244 113.018 224.247 113.444ZM252.348 123.784C250.376 123.365 248.867 122.767 247.822 121.988C246.808 121.217 246.191 120.12 245.969 118.699C245.779 117.285 245.944 115.357 246.463 112.915L249.107 100.473L245.117 99.625L246.115 94.9299L250.105 95.7782L251.473 89.3459L257.201 90.5634L255.833 96.9957L262.078 98.323L261.08 103.018L254.835 101.691L252.111 114.508C251.891 115.541 251.819 116.344 251.894 116.916C252 117.495 252.342 117.96 252.922 118.312C253.533 118.671 254.495 118.99 255.81 119.27C256.812 119.482 257.425 119.597 257.651 119.612L256.663 124.26C254.975 124.196 253.537 124.037 252.348 123.784ZM273.116 128.788C270.518 128.235 268.34 127.167 266.583 125.583C264.851 124.037 263.66 122.1 263.01 119.769C262.36 117.439 262.325 114.913 262.904 112.19C263.489 109.435 264.565 107.145 266.131 105.319C267.703 103.461 269.611 102.182 271.854 101.481C274.097 100.78 276.47 100.695 278.974 101.227C281.447 101.753 283.549 102.789 285.282 104.335C287.014 105.881 288.221 107.822 288.902 110.159C289.59 112.464 289.641 114.994 289.055 117.748C288.477 120.472 287.417 122.765 285.875 124.63C284.372 126.469 282.511 127.759 280.293 128.498C278.075 129.237 275.683 129.333 273.116 128.788ZM274.114 124.093C275.491 124.385 276.807 124.273 278.063 123.754C279.324 123.204 280.415 122.308 281.333 121.063C282.259 119.788 282.908 118.274 283.28 116.521C283.879 113.704 283.66 111.351 282.622 109.462C281.622 107.548 280.042 106.362 277.882 105.903C276.505 105.61 275.173 105.719 273.887 106.231C272.631 106.749 271.544 107.631 270.626 108.875C269.707 110.119 269.058 111.633 268.679 113.417C268.286 115.264 268.272 116.946 268.637 118.463C269.001 119.98 269.651 121.23 270.587 122.214C271.561 123.174 272.737 123.8 274.114 124.093ZM302.32 106.877L301.816 110.401C303.022 109.349 304.261 108.598 305.534 108.149C306.814 107.668 308.055 107.523 309.258 107.713C311.031 107.992 312.562 108.481 313.853 109.181L312.785 114.205C311.027 113.242 309.305 112.647 307.619 112.42C306.448 112.236 305.273 112.379 304.093 112.848C302.914 113.317 301.819 114.082 300.808 115.143L297.036 132.891L291.308 131.673L296.827 105.709L302.32 106.877Z" fill="black"/>
</svg>
