<svg width="363" height="284" viewBox="0 0 363 284" fill="none" xmlns="http://www.w3.org/2000/svg">
<rect x="58.4203" y="0.63501" width="358" height="110" rx="55" transform="rotate(32 58.4203 0.63501)" fill="white"/>
<path d="M75.9123 98.1554C72.9815 96.324 70.8375 94.0787 69.4805 91.4195C68.1506 88.7773 67.6568 85.884 67.999 82.7396C68.3854 79.585 69.613 76.3523 71.6818 73.0415C73.8693 69.5408 76.3266 66.9066 79.0536 65.1392C81.7975 63.3445 84.6569 62.4522 87.6317 62.4621C90.6234 62.4448 93.5847 63.3519 96.5156 65.1833C98.8494 66.6416 100.673 68.4036 101.986 70.4692C103.343 72.5246 104.104 74.7175 104.271 77.0478C104.437 79.3781 103.99 81.6643 102.928 83.9065L97.9213 80.7779C98.6877 78.4645 98.7146 76.3682 98.0021 74.4891C97.3066 72.5829 95.8733 70.9515 93.7023 69.5949C91.8027 68.4078 89.8421 67.8619 87.8205 67.9571C85.8429 68.0421 83.9062 68.7563 82.0102 70.0997C80.1583 71.4329 78.4523 73.3478 76.8922 75.8445C74.5521 79.5895 73.5399 83.0511 73.8557 86.2294C74.1714 89.4076 75.7811 91.904 78.6849 93.7184C81.0187 95.1768 83.2201 95.76 85.2892 95.4681C87.4024 95.166 89.3052 94.0532 90.9976 92.1298L96.1673 95.3602C94.6683 97.5177 92.8368 99.09 90.6728 100.077C88.5529 101.054 86.2141 101.385 83.6565 101.07C81.1261 100.772 78.5447 99.8003 75.9123 98.1554ZM113.977 89.5087L99.9108 112.019L94.9446 108.916L109.011 86.4055L113.977 89.5087ZM113.656 84.4971C112.706 83.9036 112.111 83.1354 111.87 82.1924C111.629 81.2495 111.771 80.3573 112.297 79.5161C112.84 78.6477 113.588 78.1151 114.541 77.9182C115.494 77.7214 116.445 77.9198 117.395 78.5133C118.345 79.1068 118.94 79.875 119.181 80.818C119.422 81.7609 119.271 82.6666 118.729 83.535C118.203 84.3763 117.464 84.8953 116.51 85.0921C115.557 85.289 114.606 85.0906 113.656 84.4971ZM124.79 96.2654L123.009 99.5677C126.371 98.8381 129.444 99.0227 132.229 100.121C132.768 100.345 133.296 100.618 133.811 100.94C135.06 101.72 136.086 102.796 136.89 104.166C137.677 105.563 137.981 107.13 137.801 108.867C137.621 110.604 136.955 112.395 135.802 114.24L126.721 128.772L121.755 125.669L130.429 111.788C132.447 108.559 132.275 106.207 129.914 104.731C127.553 103.256 124.37 102.946 120.364 103.801L110.927 118.903L105.961 115.8L120.027 93.2894L124.79 96.2654ZM142.266 139.618C138.576 137.312 136.344 134.483 135.57 131.132C134.779 127.808 135.554 124.273 137.894 120.528C139.488 117.977 141.377 116.101 143.562 114.901C145.658 113.72 147.844 113.18 150.12 113.282C152.423 113.4 154.647 114.129 156.79 115.469C158.826 116.741 160.408 118.315 161.538 120.19C162.668 122.066 163.178 124.177 163.07 126.525C163.006 128.862 162.304 131.253 160.964 133.699L159.464 136.101L141.919 125.138C140.78 127.142 140.459 129.074 140.958 130.933C141.457 132.792 142.724 134.357 144.759 135.629C146.116 136.477 147.386 136.95 148.57 137.048C149.781 137.163 150.817 136.924 151.679 136.33L156.808 139.535C154.932 141.269 152.716 142.129 150.158 142.116C147.584 142.129 144.953 141.297 142.266 139.618ZM156.807 129.12C157.79 127.244 158.04 125.457 157.554 123.757C157.086 122.031 155.956 120.608 154.165 119.489C152.456 118.421 150.722 118.054 148.965 118.39C147.225 118.699 145.687 119.681 144.351 121.337L156.807 129.12ZM176.719 128.714L175.279 131.38C176.948 131.065 178.508 130.983 179.96 131.136C181.429 131.261 182.638 131.621 183.588 132.214C186.139 133.808 187.116 136.079 186.519 139.027C188.283 138.619 189.965 138.463 191.566 138.558C193.195 138.67 194.524 139.048 195.556 139.692C197.537 140.93 198.593 142.59 198.726 144.673C198.902 146.746 198.1 149.207 196.32 152.056L187.239 166.588L182.273 163.485L190.692 150.011C191.879 148.112 192.529 146.65 192.641 145.625C192.753 144.601 192.32 143.783 191.343 143.173C190.013 142.342 187.89 142.298 184.973 143.041C184.915 143.194 184.64 143.664 184.149 144.451L175.068 158.983L170.102 155.88L178.521 142.406C179.674 140.56 180.364 139.124 180.592 138.096C180.785 137.123 180.379 136.322 179.375 135.695C178.046 134.864 175.812 134.845 172.674 135.639L162.856 151.352L157.89 148.249L171.956 125.738L176.719 128.714ZM200.991 176.313C197.897 174.38 196.113 171.831 195.637 168.666C195.145 165.529 196.061 162.101 198.384 158.383C199.876 155.995 201.62 154.141 203.614 152.822C205.635 151.519 207.72 150.84 209.867 150.786C212.031 150.704 214.063 151.257 215.962 152.444C218.866 154.258 220.428 156.65 220.649 159.618L222.445 157.287L227.126 160.212L213.06 182.723L208.379 179.798L209.752 177.147C206.734 178.355 203.813 178.077 200.991 176.313ZM204.17 172.583C205.636 173.499 207.255 173.775 209.029 173.412C210.803 173.049 212.348 172.147 213.664 170.705L217.454 164.64C217.658 163.106 217.432 161.626 216.777 160.198C216.167 158.76 215.251 157.659 214.029 156.896C212.971 156.235 211.796 155.972 210.503 156.108C209.255 156.233 207.997 156.768 206.728 157.711C205.477 158.627 204.351 159.885 203.35 161.486C201.858 163.875 201.176 166.052 201.305 168.02C201.479 169.977 202.434 171.498 204.17 172.583ZM231.016 184.83L233.204 181.33L258.637 167.62L265.802 172.097L252.753 192.979L256.457 195.294L254.015 199.202L250.311 196.887L246.216 203.441L241.25 200.338L245.345 193.784L231.016 184.83ZM254.756 178.723C255.486 177.556 256.132 176.582 256.695 175.802C257.285 175.039 258.099 174.038 259.137 172.8C258.278 173.509 257.466 174.114 256.7 174.616C255.977 175.108 254.987 175.697 253.728 176.382L239.116 184.458L247.787 189.876L254.756 178.723ZM283.532 183.119C288.878 186.46 292.031 190.261 292.992 194.521C293.996 198.771 292.862 203.515 289.589 208.752C286.333 213.963 282.58 217.07 278.33 218.074C274.097 219.052 269.294 217.862 263.921 214.504L254.721 208.755L274.332 177.371L283.532 183.119ZM266.693 210.52C270.492 212.894 273.788 213.689 276.579 212.905C279.398 212.138 282.079 209.72 284.623 205.649C287.183 201.551 288.191 198.068 287.644 195.198C287.125 192.345 284.966 189.732 281.166 187.358L276.729 184.585L262.256 207.747L266.693 210.52Z" fill="black"/>
</svg>
