<svg width="330" height="173" viewBox="0 0 330 173" fill="none" xmlns="http://www.w3.org/2000/svg">
<rect y="65.0762" width="313" height="110" rx="55" transform="rotate(-12 0 65.0762)" fill="#2D2D2D"/>
<path d="M98.6533 89.1718L94.3338 90.0899C94.1297 91.8999 93.3325 93.4598 91.9425 94.7694C90.5524 96.079 88.7305 96.9734 86.4768 97.4524C83.6285 98.0578 81.1872 97.8079 79.1529 96.7027C77.112 95.5662 75.8321 93.7772 75.3132 91.3358C74.7942 88.8943 75.2392 86.7551 76.648 84.918C78.0502 83.0496 80.1755 81.8127 83.0239 81.2073C85.4653 80.6884 87.6196 80.8193 89.4868 81.6002C91.3852 82.3744 92.7598 83.6852 93.6105 85.5327L97.6952 84.6645L96.4877 78.9834L101.699 77.8757L106.956 102.374L101.744 103.482L98.6533 89.1718ZM111.699 110.837L91.2281 115.188L92.0265 118.944L112.497 114.593L111.699 110.837ZM89.7012 108.005L90.2701 110.681L110.741 106.33L110.172 103.653L115.9 102.436L119.183 117.883L87.2565 124.669L83.9732 109.222L89.7012 108.005ZM77.6228 105.665L76.6847 101.251L98.0944 96.7005L99.0325 101.114L90.5344 102.92L91.3427 106.723L86.1311 107.831L85.3228 104.028L77.6228 105.665ZM85.5088 92.8981C86.8234 92.6187 87.8178 92.0638 88.4919 91.2335C89.166 90.4032 89.39 89.456 89.1638 88.3917C88.9375 87.3275 88.3477 86.5532 87.3941 86.0689C86.4406 85.5846 85.3065 85.4821 83.9919 85.7616C82.6773 86.041 81.6829 86.5959 81.0088 87.4262C80.3347 88.2565 80.1107 89.2037 80.3369 90.2679C80.5632 91.3322 81.153 92.1064 82.1066 92.5908C83.0601 93.0751 84.1942 93.1776 85.5088 92.8981ZM105.08 77.1571L110.291 76.0494L115.548 100.548L110.336 101.656L105.08 77.1571ZM130.95 91.0908L139.432 80.8966L138.364 75.8728L129.35 77.7889L128.372 73.1877L152.129 68.138L153.107 72.7392L144.092 74.6553L145.16 79.6791L157.055 85.5421L154.436 90.0737L143.184 84.4665L135.186 94.1654L130.95 91.0908ZM138.634 95.15L144.362 93.9325L145.131 97.5477L163.254 93.6955L162.485 90.0803L168.213 88.8627L171.996 106.657L142.416 112.944L138.634 95.15ZM165.29 103.274L164.232 98.2967L146.109 102.149L147.166 107.126L165.29 103.274ZM151.684 75.7406L159.102 74.1638L157.376 66.0413L163.104 64.8238L167.774 86.7969L162.046 88.0144L160.1 78.859L152.682 80.4358L151.684 75.7406ZM174.367 68.4656L173.399 63.9113L205.232 57.1451L208.415 72.1224L202.687 73.34L200.472 62.9168L174.367 68.4656ZM174.532 82.1708L211.529 74.3067L212.487 78.814L175.49 86.6781L174.532 82.1708ZM178.948 90.0161L184.676 88.7986L186.652 98.0949L213.508 92.3865L214.486 96.9877L181.902 103.914L178.948 90.0161ZM216.529 72.9497L224.513 59.7206L223.026 52.7249L228.754 51.5074L230.241 58.5031L242.602 66.3281L239.842 70.8896L228.315 63.5253L221.053 75.7665L216.529 72.9497ZM243.025 92.0992C239.864 92.7712 237.045 92.9777 234.569 92.7189C232.093 92.46 230.095 91.756 228.575 90.6069C227.061 89.4892 226.112 88.0226 225.726 86.2071C225.34 84.3917 225.611 82.6656 226.539 81.0289C227.46 79.3609 228.999 77.9051 231.156 76.6616C233.312 75.418 235.971 74.4603 239.133 73.7883C242.294 73.1163 245.113 72.9098 247.589 73.1687C250.065 73.4276 252.063 74.1315 253.583 75.2806C255.096 76.3983 256.046 77.8649 256.432 79.6804C256.818 81.4958 256.547 83.2219 255.619 84.8586C254.697 86.5266 253.158 87.9824 251.002 89.2259C248.845 90.4695 246.186 91.4273 243.025 92.0992ZM242.027 87.4041C244.969 86.7787 247.215 85.8761 248.763 84.6964C250.35 83.5413 250.997 82.2751 250.704 80.8979C250.411 79.5207 249.305 78.6271 247.386 78.2172C245.491 77.7693 243.073 77.858 240.131 78.4834C237.189 79.1088 234.927 80.0147 233.348 81.2011C231.792 82.3495 231.161 83.6124 231.454 84.9896C231.747 86.3668 232.837 87.2638 234.725 87.6804C236.651 88.1216 239.085 88.0295 242.027 87.4041ZM237.17 60.8579L236.172 56.1628L244.482 54.3964L243.085 47.8233L248.813 46.6057L253.683 69.5179L247.955 70.7354L245.48 59.0915L237.17 60.8579Z" fill="white"/>
</svg>
