<svg width="294" height="193" viewBox="0 0 294 193" fill="none" xmlns="http://www.w3.org/2000/svg">
<rect y="88.8801" width="273" height="110" rx="55" transform="rotate(-19 0 88.8801)" fill="#2D2D2D"/>
<path d="M108.139 128.736C104.871 129.861 101.777 130.114 98.8566 129.495C95.9663 128.866 93.407 127.429 91.1787 125.184C88.9703 122.898 87.2306 119.91 85.9596 116.219C84.6157 112.315 84.115 108.748 84.4575 105.517C84.7897 102.255 85.8956 99.471 87.7754 97.1654C89.6448 94.8295 92.2133 93.099 95.481 91.9738C98.0831 91.0778 100.6 90.7697 103.031 91.0493C105.483 91.2882 107.666 92.0763 109.582 93.4134C111.498 94.7506 112.993 96.5372 114.067 98.7732L108.485 100.695C107.169 98.6438 105.557 97.3037 103.649 96.6749C101.729 96.0158 99.5595 96.1029 97.139 96.9364C95.021 97.6657 93.3629 98.8458 92.1646 100.477C90.9862 102.067 90.3224 104.022 90.1732 106.341C90.0439 108.619 90.4584 111.15 91.4169 113.933C92.8546 118.109 94.9078 121.074 97.5765 122.829C100.245 124.583 103.198 124.903 106.436 123.789C109.038 122.893 110.876 121.549 111.952 119.757C113.047 117.925 113.38 115.746 112.95 113.22L118.714 111.235C119.447 113.758 119.516 116.171 118.922 118.474C118.347 120.736 117.132 122.762 115.278 124.551C113.454 126.33 111.074 127.725 108.139 128.736ZM140.728 117.514C137.914 118.483 135.267 118.904 132.786 118.777C130.306 118.649 128.189 118.007 126.437 116.851C124.685 115.694 123.491 114.092 122.853 112.044L128.572 110.075L128.698 110.59C129.021 111.528 129.716 112.27 130.784 112.816C131.852 113.362 133.156 113.657 134.694 113.703C136.253 113.708 137.894 113.413 139.619 112.82C141.828 112.059 143.401 110.976 144.338 109.57C145.306 108.154 145.498 106.599 144.915 104.904C144.373 103.331 143.3 102.279 141.696 101.748C140.081 101.187 137.574 100.934 134.174 100.988C131.028 101.089 128.33 101.02 126.081 100.779C123.985 100.587 122.274 100.042 120.95 99.1447C119.615 98.2167 118.651 96.8904 118.057 95.1658C117.4 93.2596 117.301 91.3985 117.759 89.5826C118.247 87.7562 119.288 86.1116 120.883 84.6487C122.497 83.1452 124.59 81.9507 127.162 81.0651C129.794 80.1587 132.179 79.7608 134.315 79.8713C136.411 79.9619 138.233 80.4854 139.78 81.4416C141.317 82.3676 142.443 83.6215 143.157 85.2032L137.529 87.141C136.81 86.0349 135.624 85.3433 133.972 85.0661C132.35 84.7785 130.51 84.9889 128.453 85.6974C126.486 86.3746 125.044 87.3957 124.126 88.7608C123.198 90.0956 122.969 91.4438 123.437 92.8054C123.76 93.7433 124.308 94.4008 125.081 94.7777C125.875 95.2152 126.844 95.4738 127.988 95.5536C129.214 95.673 131.03 95.6905 133.438 95.6061C137.101 95.5295 139.971 95.658 142.049 95.9917C144.269 96.3443 146.047 97.0857 147.384 98.2161C148.74 99.3057 149.778 100.894 150.497 102.982C151.58 106.129 151.259 108.981 149.534 111.538C147.808 114.095 144.873 116.087 140.728 117.514ZM171.25 107.005C168.436 107.974 165.789 108.394 163.308 108.267C160.828 108.14 158.711 107.498 156.959 106.341C155.207 105.185 154.013 103.582 153.375 101.534L159.094 99.5652L159.22 100.08C159.543 101.018 160.239 101.76 161.306 102.306C162.374 102.852 163.678 103.148 165.216 103.193C166.775 103.198 168.416 102.904 170.141 102.31C172.35 101.549 173.923 100.466 174.86 99.0605C175.828 97.6443 176.02 96.0891 175.437 94.3947C174.895 92.8214 173.822 91.7694 172.218 91.2387C170.603 90.6778 168.096 90.4242 164.696 90.478C161.55 90.5799 158.852 90.5103 156.604 90.2694C154.507 90.0776 152.796 89.5328 151.472 88.6351C150.137 87.7071 149.173 86.3808 148.579 84.6562C147.922 82.75 147.823 80.8889 148.281 79.073C148.769 77.2466 149.81 75.602 151.405 74.1392C153.019 72.6356 155.112 71.4411 157.684 70.5555C160.317 69.6492 162.701 69.2512 164.837 69.3617C166.933 69.4523 168.755 69.9758 170.302 70.932C171.839 71.858 172.965 73.1119 173.679 74.6936L168.051 76.6314C167.332 75.5253 166.146 74.8337 164.494 74.5565C162.872 74.2689 161.032 74.4794 158.975 75.1878C157.008 75.865 155.566 76.8861 154.648 78.2512C153.72 79.5861 153.491 80.9343 153.96 82.2958C154.282 83.2338 154.83 83.8912 155.603 84.2681C156.397 84.7056 157.366 84.9642 158.51 85.044C159.736 85.1634 161.553 85.1809 163.96 85.0965C167.623 85.0199 170.493 85.1484 172.571 85.4821C174.791 85.8347 176.569 86.5761 177.906 87.7065C179.262 88.7961 180.3 90.3848 181.019 92.4725C182.102 95.6192 181.781 98.4711 180.056 101.028C178.33 103.585 175.395 105.577 171.25 107.005ZM201.046 96.7452C197.415 97.9954 194.183 98.1436 191.35 97.19C188.518 96.2363 186.408 94.2382 185.022 91.1957L190.695 89.2423C192.59 92.5834 195.474 93.5871 199.347 92.2536C201.374 91.5556 202.805 90.4536 203.641 88.9476C204.506 87.4312 204.626 85.7654 204.001 83.95C203.261 81.8017 201.988 80.4127 200.18 79.7829C198.393 79.1124 196.213 79.2199 193.641 80.1054L188.376 81.9182L186.907 77.652L190.947 76.2612C193.488 75.386 195.278 74.1945 196.315 72.6865C197.343 71.1483 197.538 69.4564 196.903 67.6107C196.413 66.1887 195.528 65.1905 194.247 64.6162C192.986 64.0012 191.599 63.9541 190.087 64.4751C188.574 64.996 187.474 65.8316 186.787 66.9819C186.1 68.1322 185.915 69.4142 186.233 70.8278L180.696 72.7343C180.253 70.9576 180.267 69.227 180.736 67.5425C181.225 65.8173 182.141 64.3004 183.484 62.9918C184.817 61.653 186.512 60.6294 188.569 59.9209C190.748 59.1708 192.77 58.9485 194.635 59.2539C196.459 59.5395 198.05 60.2272 199.406 61.3168C200.793 62.3961 201.757 63.7224 202.299 65.2957C202.883 66.9901 202.945 68.6947 202.486 70.4095C202.058 72.1138 201.172 73.6203 199.829 74.9288L199.969 75.3373C202.135 75.3362 204.1 75.9797 205.863 77.2677C207.646 78.5151 208.908 80.2129 209.647 82.3611C210.335 84.3581 210.43 86.3052 209.933 88.2025C209.435 90.0998 208.41 91.7898 206.856 93.2725C205.343 94.775 203.406 95.9326 201.046 96.7452Z" fill="white"/>
</svg>
