<svg width="357" height="265" viewBox="0 0 357 265" fill="none" xmlns="http://www.w3.org/2000/svg">
<rect y="168.229" width="347" height="110" rx="55" transform="rotate(-29 0 168.229)" fill="white"/>
<path d="M84.3918 162.053C89.4017 159.276 93.5972 158.067 96.9785 158.424C100.372 158.738 103.039 160.644 104.978 164.143C106.917 167.641 107.129 170.927 105.612 173.999C104.108 177.028 100.851 179.931 95.8411 182.708L91.2231 185.268L97.7157 196.981L92.5939 199.82L74.6521 167.452L84.3918 162.053ZM94.6895 177.858C100.399 174.694 102.121 171.068 99.8562 166.982C97.5912 162.896 93.6039 162.435 87.8944 165.6L82.1009 168.811L88.896 181.07L94.6895 177.858ZM113.28 158.004L115.212 160.994C115.431 159.409 115.874 158.03 116.54 156.856C117.191 155.653 118.033 154.73 119.065 154.084C120.586 153.131 122.063 152.496 123.496 152.177L125.986 156.669C124.028 157.096 122.338 157.777 120.916 158.711C119.912 159.341 119.118 160.22 118.536 161.347C117.954 162.475 117.629 163.771 117.563 165.235L126.359 181.104L121.237 183.943L108.368 160.727L113.28 158.004ZM151.553 168.236C147.746 170.346 144.19 170.927 140.884 169.979C137.593 169.059 134.878 166.668 132.737 162.806C131.278 160.175 130.553 157.613 130.562 155.12C130.546 152.714 131.134 150.541 132.326 148.599C133.546 146.643 135.262 145.051 137.473 143.826C139.572 142.662 141.716 142.041 143.904 141.962C146.092 141.884 148.186 142.461 150.187 143.693C152.2 144.882 153.951 146.656 155.441 149.013L156.814 151.49L138.719 161.52C139.92 163.488 141.455 164.705 143.322 165.17C145.19 165.635 147.173 165.286 149.272 164.122C150.672 163.346 151.701 162.465 152.361 161.477C153.049 160.474 153.342 159.451 153.24 158.41L158.53 155.478C159.137 157.959 158.815 160.314 157.563 162.545C156.327 164.803 154.323 166.7 151.553 168.236ZM149.42 150.429C148.257 148.66 146.814 147.575 145.092 147.176C143.355 146.748 141.563 147.046 139.716 148.07C137.953 149.048 136.792 150.386 136.234 152.086C135.661 153.757 135.774 155.579 136.574 157.55L149.42 150.429ZM158.719 132.817L160.353 135.369C160.886 133.756 161.571 132.352 162.408 131.156C163.23 129.933 164.13 129.049 165.11 128.506C167.741 127.048 170.201 127.294 172.489 129.245C172.988 127.505 173.667 125.958 174.527 124.604C175.414 123.234 176.389 122.254 177.453 121.665C179.496 120.532 181.46 120.413 183.346 121.306C185.244 122.157 187.008 124.051 188.637 126.99L196.944 141.978L191.823 144.817L184.12 130.921C183.034 128.961 182.07 127.685 181.228 127.09C180.387 126.496 179.462 126.478 178.455 127.036C177.083 127.796 176.015 129.632 175.251 132.544C175.357 132.668 175.634 133.136 176.084 133.948L184.392 148.936L179.27 151.775L171.567 137.879C170.513 135.975 169.591 134.675 168.802 133.978C168.044 133.337 167.147 133.304 166.112 133.878C164.74 134.638 163.641 136.583 162.815 139.712L171.797 155.917L166.676 158.756L153.807 135.54L158.719 132.817ZM195.424 112.471L208.293 135.687L203.171 138.526L190.302 115.31L195.424 112.471ZM190.885 110.322C189.906 110.865 188.945 111.013 188.004 110.767C187.062 110.521 186.351 109.963 185.87 109.096C185.373 108.2 185.27 107.288 185.56 106.359C185.85 105.43 186.485 104.694 187.464 104.151C188.444 103.608 189.405 103.46 190.346 103.706C191.288 103.952 192.007 104.523 192.503 105.419C192.984 106.287 193.079 107.185 192.79 108.114C192.5 109.043 191.865 109.779 190.885 110.322ZM226.249 126.831C222.443 128.941 218.887 129.522 215.581 128.574C212.29 127.654 209.574 125.263 207.433 121.4C205.975 118.77 205.25 116.208 205.259 113.715C205.242 111.309 205.83 109.136 207.023 107.194C208.243 105.237 209.958 103.646 212.17 102.421C214.269 101.257 216.412 100.636 218.6 100.557C220.789 100.478 222.883 101.055 224.883 102.288C226.896 103.477 228.648 105.251 230.137 107.608L231.51 110.085L213.416 120.115C214.617 122.083 216.151 123.3 218.019 123.765C219.886 124.23 221.87 123.881 223.969 122.717C225.368 121.941 226.398 121.06 227.058 120.072C227.746 119.069 228.039 118.046 227.937 117.005L233.227 114.073C233.834 116.554 233.511 118.909 232.26 121.14C231.024 123.398 229.02 125.295 226.249 126.831ZM224.117 109.024C222.953 107.255 221.511 106.17 219.789 105.771C218.052 105.343 216.26 105.641 214.413 106.665C212.649 107.643 211.489 108.981 210.931 110.681C210.357 112.352 210.471 114.174 211.271 116.145L224.117 109.024ZM233.415 91.4122L235.347 94.4025C235.566 92.8176 236.009 91.438 236.675 90.2638C237.326 89.0615 238.168 88.1377 239.2 87.4922C240.721 86.5394 242.198 85.9037 243.631 85.5849L246.121 90.0769C244.163 90.504 242.473 91.1846 241.051 92.1188C240.047 92.7488 239.253 93.6276 238.671 94.7553C238.089 95.883 237.764 97.1788 237.698 98.6427L246.494 114.512L241.372 117.351L228.503 94.1349L233.415 91.4122ZM271.688 101.644C267.881 103.754 264.325 104.335 261.019 103.387C257.728 102.467 255.013 100.076 252.872 96.2136C251.413 93.5827 250.689 91.021 250.697 88.5283C250.681 86.1226 251.269 83.949 252.461 82.0076C253.681 80.0506 255.397 78.4593 257.608 77.2337C259.707 76.0702 261.851 75.4491 264.039 75.3703C266.227 75.2916 268.321 75.8686 270.322 77.1013C272.335 78.2905 274.086 80.0638 275.576 82.4212L276.949 84.8981L258.854 94.9279C260.055 96.8964 261.59 98.1132 263.457 98.5781C265.325 99.043 267.308 98.6936 269.407 97.5301C270.807 96.7544 271.836 95.8727 272.496 94.8849C273.184 93.8817 273.477 92.8594 273.375 91.818L278.665 88.8859C279.272 91.3668 278.95 93.7224 277.698 95.9529C276.462 98.2113 274.458 100.108 271.688 101.644ZM269.555 83.8374C268.392 82.0678 266.949 80.9832 265.227 80.5838C263.49 80.1563 261.698 80.4545 259.851 81.4784C258.088 82.4558 256.927 83.7943 256.369 85.4939C255.796 87.1655 255.909 88.987 256.709 90.9583L269.555 83.8374Z" fill="black"/>
</svg>
