<svg width="396" height="169" viewBox="0 0 396 169" fill="none" xmlns="http://www.w3.org/2000/svg">
<rect x="17.2078" width="383" height="110" rx="55" transform="rotate(9 17.2078 0)" fill="#2AE2BD"/>
<path d="M85.1551 46.5384C90.8126 47.4345 94.8635 49.0642 97.3079 51.4277C99.7889 53.7646 100.716 56.9084 100.091 60.8592C99.465 64.8099 97.6088 67.529 94.5221 69.0165C91.472 70.4773 87.1183 70.7597 81.4608 69.8637L76.2458 69.0377L74.1508 82.2648L68.3669 81.3487L74.1562 44.7964L85.1551 46.5384ZM83.5391 65.333C89.9867 66.3542 93.576 64.5576 94.3069 59.9431C95.0377 55.3286 92.1793 52.5108 85.7317 51.4896L79.1892 50.4533L76.9967 64.2968L83.5391 65.333ZM112.429 49.9348L110.064 64.8687C112.873 62.8837 115.774 61.8528 118.767 61.776C119.351 61.7713 119.943 61.8165 120.543 61.9116C121.997 62.1419 123.362 62.7306 124.638 63.6778C125.908 64.6566 126.8 65.9805 127.313 67.6493C127.826 69.3181 127.913 71.2272 127.572 73.3764L124.892 90.3014L119.108 89.3853L121.668 73.2188C122.264 69.4577 121.187 67.3594 118.437 66.9239C115.688 66.4884 112.636 67.4468 109.283 69.7992L106.497 87.388L100.713 86.4719L106.645 49.0187L112.429 49.9348ZM143.06 94.1509C140.436 93.7354 138.206 92.7827 136.368 91.2929C134.557 89.8397 133.267 87.9667 132.496 85.6739C131.725 83.3811 131.557 80.8599 131.993 78.1101C132.433 75.3288 133.388 72.9852 134.856 71.0795C136.329 69.1421 138.167 67.7647 140.37 66.9472C142.573 66.1298 144.939 65.9213 147.467 66.3218C149.964 66.7172 152.118 67.6416 153.929 69.0947C155.74 70.5479 157.047 72.4234 157.849 74.7213C158.657 76.9875 158.84 79.5112 158.4 82.2926C157.964 85.0423 157.026 87.3884 155.584 89.3307C154.179 91.2465 152.388 92.6315 150.212 93.4855C148.035 94.3396 145.651 94.5614 143.06 94.1509ZM143.811 89.41C145.201 89.6302 146.51 89.4487 147.736 88.8653C148.967 88.2504 150.009 87.2977 150.862 86.0071C151.719 84.685 152.288 83.1389 152.568 81.369C153.019 78.5244 152.676 76.1861 151.541 74.3539C150.442 72.4951 148.802 71.3931 146.622 71.0476C145.231 70.8274 143.907 71.0064 142.649 71.5848C141.422 72.1681 140.383 73.105 139.531 74.3956C138.678 75.6861 138.109 77.2322 137.824 79.0337C137.529 80.8985 137.603 82.5788 138.046 84.0745C138.49 85.5703 139.204 86.7851 140.191 87.7189C141.213 88.626 142.42 89.1897 143.811 89.41ZM171.843 98.1265C169.851 97.8111 168.314 97.2921 167.229 96.5696C166.177 95.8521 165.503 94.7896 165.207 93.382C164.943 91.9795 165.007 90.0456 165.397 87.5803L167.387 75.0169L163.357 74.3787L164.108 69.6378L168.138 70.276L169.166 63.781L174.95 64.6971L173.922 71.1921L180.227 72.1908L179.476 76.9317L173.171 75.933L171.121 88.8757C170.956 89.9187 170.925 90.7238 171.03 91.2912C171.166 91.8635 171.533 92.3104 172.13 92.6317C172.758 92.9581 173.736 93.2264 175.064 93.4366C176.075 93.5968 176.694 93.6786 176.92 93.6821L176.177 98.3756C174.488 98.3997 173.044 98.3167 171.843 98.1265ZM192.844 102.036C190.221 101.621 187.991 100.668 186.153 99.1781C184.342 97.7249 183.051 95.8519 182.28 93.5591C181.51 91.2662 181.342 88.745 181.777 85.9953C182.218 83.2139 183.172 80.8704 184.641 78.9646C186.114 77.0272 187.952 75.6498 190.155 74.8323C192.358 74.0149 194.724 73.8064 197.252 74.2069C199.749 74.6023 201.903 75.5267 203.714 76.9799C205.525 78.4331 206.831 80.3086 207.634 82.6064C208.441 84.8726 208.625 87.3964 208.184 90.1777C207.749 92.9274 206.81 95.2735 205.369 97.2159C203.964 99.1317 202.173 100.517 199.996 101.371C197.82 102.225 195.436 102.446 192.844 102.036ZM193.595 97.2951C194.986 97.5153 196.294 97.3338 197.521 96.7505C198.752 96.1355 199.794 95.1828 200.646 93.8922C201.504 92.5701 202.073 91.024 202.353 89.2541C202.803 86.4096 202.461 84.0712 201.326 82.239C200.227 80.3803 198.587 79.2782 196.406 78.9328C195.016 78.7125 193.691 78.8915 192.433 79.4699C191.207 80.0532 190.168 80.9902 189.315 82.2807C188.463 83.5713 187.894 85.1173 187.609 86.9188C187.313 88.7836 187.387 90.4639 187.831 91.9597C188.274 93.4554 188.989 94.6702 189.975 95.604C190.998 96.5111 192.205 97.0748 193.595 97.2951ZM221.869 106.633C219.277 106.223 217.098 105.456 215.332 104.334C213.566 103.212 212.308 101.846 211.559 100.237C210.841 98.6333 210.708 96.9115 211.162 95.0717L217.088 96.0103C217.046 96.0685 216.998 96.2715 216.943 96.6191C216.733 97.9466 217.197 99.1055 218.336 100.096C219.48 101.055 221.08 101.697 223.134 102.022C224.43 102.227 225.52 102.092 226.406 101.617C227.296 101.11 227.816 100.382 227.966 99.4342C228.096 98.6125 227.753 97.813 226.937 97.0357C226.089 96.2534 224.542 95.2794 222.297 94.1138C219.564 92.5471 217.759 91.4674 216.881 90.8747C215.68 90.0689 214.836 89.1577 214.349 88.141C213.894 87.1293 213.776 85.9282 213.997 84.5375C214.237 83.0204 214.887 81.7788 215.947 80.8128C217.013 79.8151 218.383 79.1412 220.058 78.791C221.739 78.4092 223.59 78.3784 225.613 78.6988C228.552 79.1644 230.876 80.2452 232.584 81.9412C234.323 83.6422 235.147 85.7005 235.056 88.116L229.32 87.2074C229.305 86.0712 228.927 85.1851 228.185 84.5493C227.449 83.8818 226.259 83.4179 224.615 83.1576C223.288 82.9474 222.173 83.03 221.271 83.4056C220.406 83.7545 219.911 84.3241 219.786 85.1142C219.666 85.8728 219.99 86.5883 220.758 87.2607C221.5 87.8966 222.999 88.863 225.256 90.16C227.75 91.5919 229.593 92.7423 230.784 93.6113C232.033 94.5219 232.896 95.5171 233.373 96.5971C233.85 97.677 233.975 98.928 233.75 100.35C233.46 102.183 232.714 103.62 231.512 104.661C230.321 105.639 228.89 106.287 227.219 106.606C225.58 106.929 223.797 106.938 221.869 106.633ZM248.928 71.5542L246.563 86.488C249.372 84.503 252.273 83.4721 255.266 83.3954C255.85 83.3907 256.442 83.4359 257.043 83.531C258.496 83.7612 259.861 84.35 261.137 85.2972C262.407 86.276 263.299 87.5998 263.812 89.2686C264.326 90.9375 264.412 92.8465 264.072 94.9957L261.391 111.921L255.607 111.005L258.168 94.8382C258.763 91.0771 257.686 88.9787 254.937 88.5432C252.187 88.1077 249.135 89.0662 245.782 91.4185L242.996 109.007L237.212 108.091L243.144 70.6381L248.928 71.5542ZM279.559 115.77C276.936 115.355 274.705 114.402 272.868 112.912C271.057 111.459 269.766 109.586 268.995 107.293C268.224 105 268.056 102.479 268.492 99.7295C268.932 96.9481 269.887 94.6046 271.355 92.6988C272.828 90.7614 274.666 89.384 276.869 88.5666C279.072 87.7491 281.438 87.5406 283.967 87.9411C286.463 88.3366 288.617 89.2609 290.428 90.7141C292.239 92.1673 293.546 94.0428 294.348 96.3406C295.156 98.6068 295.339 101.131 294.899 103.912C294.463 106.662 293.525 109.008 292.083 110.95C290.678 112.866 288.887 114.251 286.711 115.105C284.535 115.959 282.151 116.181 279.559 115.77ZM280.31 111.029C281.7 111.25 283.009 111.068 284.235 110.485C285.467 109.87 286.508 108.917 287.361 107.626C288.218 106.304 288.787 104.758 289.067 102.988C289.518 100.144 289.176 97.8054 288.04 95.9733C286.941 94.1145 285.302 93.0124 283.121 92.667C281.73 92.4467 280.406 92.6258 279.148 93.2041C277.922 93.7874 276.882 94.7244 276.03 96.0149C275.177 97.3055 274.609 98.8515 274.323 100.653C274.028 102.518 274.102 104.198 274.545 105.694C274.989 107.19 275.704 108.404 276.69 109.338C277.712 110.245 278.919 110.809 280.31 111.029ZM307.481 92.3459L307.275 95.1806C309.853 93.2237 312.691 92.4906 315.788 92.9812C318.001 93.3316 319.87 94.2109 321.397 95.619C322.96 97.0005 324.053 98.7936 324.676 100.998C325.33 103.208 325.445 105.656 325.019 108.342C324.558 111.25 323.636 113.696 322.253 115.68C320.87 117.664 319.171 119.08 317.158 119.927C315.171 120.811 313.04 121.073 310.764 120.713C307.793 120.242 305.538 118.832 303.999 116.482L302.182 127.955L296.398 127.039L302.029 91.4824L307.481 92.3459ZM310.812 115.812C312.898 116.142 314.705 115.57 316.235 114.095C317.764 112.62 318.765 110.397 319.235 107.426C319.661 104.74 319.414 102.514 318.495 100.748C317.612 98.9561 316.223 97.9098 314.326 97.6095C312.872 97.3792 311.474 97.5141 310.131 98.0142C308.82 98.5193 307.62 99.3497 306.529 100.505L304.915 110.698C305.194 112.006 305.842 113.129 306.86 114.068C307.914 114.98 309.231 115.561 310.812 115.812Z" fill="black"/>
</svg>
