<svg width="303" height="184" viewBox="0 0 303 184" fill="none" xmlns="http://www.w3.org/2000/svg">
<rect x="30.3201" width="283" height="110" rx="55" transform="rotate(16 30.3201 0)" fill="#2D2D2D"/>
<path d="M97.2403 95.2913C94.3796 94.471 91.9697 93.2973 90.0108 91.7702C88.0518 90.243 86.6865 88.5033 85.9147 86.551C85.143 84.5986 85.0833 82.6008 85.7358 80.5575L91.5495 82.2245L91.3579 82.7188C91.0844 83.6724 91.2285 84.6791 91.7901 85.739C92.3518 86.7988 93.2497 87.7887 94.484 88.7085C95.7578 89.6064 97.2714 90.3068 99.0248 90.8095C101.27 91.4534 103.18 91.4684 104.754 90.8546C106.359 90.2495 107.409 89.0857 107.903 87.3631C108.361 85.7636 108.086 84.2864 107.076 82.9316C106.075 81.5461 104.167 79.9003 101.351 77.9944C98.7155 76.2732 96.5457 74.6689 94.8416 73.1816C93.2341 71.8219 92.1454 70.3945 91.5754 68.8995C91.0142 67.3737 90.985 65.7341 91.4878 63.9808C92.0435 62.0429 93.0296 60.4614 94.4461 59.2364C95.8934 58.0202 97.6897 57.2703 99.835 56.9866C102.02 56.681 104.42 56.9031 107.034 57.6528C109.71 58.4202 111.892 59.4618 113.578 60.7777C115.243 62.054 116.435 63.5276 117.154 65.1986C117.882 66.8389 118.085 68.5115 117.763 70.2167L112.041 68.5761C112.087 67.2575 111.512 66.0108 110.317 64.8361C109.154 63.6701 107.526 62.7873 105.434 62.1875C103.435 61.6142 101.668 61.6235 100.133 62.2154C98.6075 62.7766 97.6462 63.7493 97.2493 65.1335C96.9758 66.0871 97.0475 66.9399 97.4644 67.6919C97.8636 68.5055 98.509 69.2731 99.4006 69.9948C100.336 70.7957 101.814 71.852 103.835 73.1638C106.879 75.2019 109.156 76.9535 110.667 78.4186C112.283 79.9806 113.315 81.6079 113.761 83.3006C114.248 84.9714 114.187 86.868 113.578 88.9905C112.661 92.1895 110.762 94.3416 107.882 95.4465C105.002 96.5514 101.454 96.4997 97.2403 95.2913ZM130.901 104.943C127.578 103.991 124.899 102.423 122.861 100.241C120.855 98.0678 119.582 95.4227 119.045 92.3057C118.547 89.1668 118.836 85.721 119.912 81.9682C121.049 78.0002 122.685 74.7908 124.82 72.3401C126.963 69.8587 129.465 68.2127 132.328 67.4023C135.199 66.5611 138.295 66.6168 141.617 67.5694C144.263 68.3279 146.501 69.519 148.333 71.1427C150.203 72.7445 151.54 74.6424 152.342 76.8366C153.145 79.0307 153.345 81.3518 152.942 83.7997L147.267 82.1723C147.366 79.7373 146.814 77.7148 145.611 76.1049C144.417 74.4642 142.59 73.2911 140.129 72.5854C137.976 71.968 135.941 71.9837 134.024 72.6324C132.146 73.2591 130.481 74.4795 129.029 76.2935C127.616 78.0855 126.504 80.3965 125.693 83.2265C124.476 87.4714 124.457 91.0779 125.636 94.046C126.816 97.0142 129.051 98.9701 132.343 99.9139C134.988 100.672 137.265 100.626 139.173 99.7753C141.122 98.9025 142.644 97.3084 143.741 94.993L149.6 96.6732C148.754 99.1603 147.427 101.177 145.619 102.722C143.85 104.246 141.694 105.208 139.148 105.61C136.634 106.021 133.884 105.799 130.901 104.943ZM164.032 114.443C161.171 113.623 158.761 112.449 156.802 110.922C154.844 109.395 153.478 107.656 152.706 105.703C151.935 103.751 151.875 101.753 152.528 99.7097L158.341 101.377L158.15 101.871C157.876 102.825 158.02 103.831 158.582 104.891C159.143 105.951 160.041 106.941 161.276 107.861C162.55 108.759 164.063 109.459 165.816 109.962C168.062 110.606 169.972 110.621 171.546 110.007C173.151 109.402 174.2 108.238 174.694 106.515C175.153 104.916 174.877 103.439 173.868 102.084C172.867 100.698 170.959 99.0525 168.143 97.1466C165.507 95.4254 163.337 93.8212 161.633 92.3338C160.026 90.9741 158.937 89.5467 158.367 88.0517C157.806 86.5259 157.777 84.8863 158.28 83.133C158.835 81.1951 159.821 79.6136 161.238 78.3886C162.685 77.1724 164.481 76.4225 166.627 76.1388C168.812 75.8332 171.211 76.0553 173.826 76.805C176.502 77.5724 178.684 78.614 180.37 79.9299C182.035 81.2062 183.227 82.6798 183.946 84.3508C184.674 85.9911 184.877 87.6638 184.554 89.3689L178.833 87.7283C178.878 86.4097 178.304 85.163 177.109 83.9883C175.945 82.8224 174.318 81.9395 172.226 81.3397C170.227 80.7664 168.46 80.7757 166.925 81.3676C165.399 81.9288 164.438 82.9015 164.041 84.2857C163.768 85.2393 163.839 86.0921 164.256 86.8441C164.655 87.6577 165.301 88.4253 166.192 89.147C167.128 89.9479 168.606 91.0042 170.627 92.316C173.671 94.3541 175.948 96.1057 177.459 97.5708C179.075 99.1328 180.106 100.76 180.553 102.453C181.039 104.124 180.978 106.02 180.37 108.143C179.452 111.342 177.554 113.494 174.673 114.599C171.793 115.704 168.246 115.652 164.032 114.443ZM195.062 123.341C192.202 122.521 189.792 121.347 187.833 119.82C185.874 118.293 184.508 116.553 183.737 114.601C182.965 112.649 182.905 110.651 183.558 108.607L189.371 110.275L189.18 110.769C188.906 111.722 189.05 112.729 189.612 113.789C190.174 114.849 191.072 115.839 192.306 116.759C193.58 117.656 195.093 118.357 196.847 118.86C199.092 119.503 201.002 119.518 202.576 118.905C204.181 118.299 205.231 117.136 205.725 115.413C206.183 113.814 205.908 112.336 204.898 110.982C203.897 109.596 201.989 107.95 199.173 106.044C196.537 104.323 194.368 102.719 192.664 101.232C191.056 99.8719 189.967 98.4445 189.397 96.9495C188.836 95.4237 188.807 93.7841 189.31 92.0308C189.865 90.0929 190.852 88.5114 192.268 87.2864C193.715 86.0702 195.512 85.3203 197.657 85.0366C199.842 84.731 202.242 84.9531 204.856 85.7028C207.532 86.4702 209.714 87.5118 211.4 88.8277C213.065 90.104 214.257 91.5776 214.976 93.2486C215.704 94.8888 215.907 96.5615 215.585 98.2667L209.863 96.6261C209.909 95.3075 209.334 94.0608 208.139 92.8861C206.976 91.7201 205.348 90.8373 203.256 90.2375C201.257 89.6642 199.49 89.6735 197.955 90.2654C196.429 90.8266 195.468 91.7993 195.071 93.1835C194.798 94.1371 194.869 94.9899 195.286 95.7419C195.686 96.5555 196.331 97.3231 197.223 98.0448C198.158 98.8457 199.636 99.902 201.657 101.214C204.701 103.252 206.978 105.003 208.489 106.469C210.105 108.031 211.137 109.658 211.583 111.351C212.07 113.021 212.008 114.918 211.4 117.04C210.483 120.24 208.584 122.392 205.704 123.496C202.824 124.601 199.276 124.55 195.062 123.341Z" fill="white"/>
</svg>
