<svg width="302" height="230" viewBox="0 0 302 230" fill="none" xmlns="http://www.w3.org/2000/svg">
<rect x="51.6418" width="283" height="110" rx="55" transform="rotate(28 51.6418 0)" fill="#2D2D2D"/>
<path d="M72.6722 96.2134C73.7609 96.756 74.6478 97.0645 75.3331 97.1389C75.9883 97.2699 76.5783 97.1487 77.103 96.7753C77.6127 96.4302 78.1154 95.7914 78.6112 94.859L91.2756 71.0406L96.4462 73.7899L83.5338 98.0745C82.4371 100.137 81.3425 101.548 80.2498 102.308C79.1721 103.04 77.9555 103.317 76.6 103.14C75.2295 102.991 73.4846 102.354 71.3656 101.227L70.306 100.663L72.6722 96.2134ZM95.7763 68.8128C94.7874 68.287 94.1399 67.5622 93.8338 66.6383C93.5277 65.7145 93.6075 64.8146 94.0732 63.9387C94.554 63.0346 95.2629 62.4511 96.2 62.1883C97.137 61.9255 98.1 62.0569 99.0889 62.5828C100.078 63.1086 100.725 63.8334 101.031 64.7572C101.338 65.6811 101.25 66.5951 100.77 67.4992C100.304 68.3751 99.6024 68.9445 98.6653 69.2073C97.7282 69.4701 96.7652 69.3386 95.7763 68.8128ZM111.051 111.51C109.11 111.275 107.052 110.579 104.876 109.422C101.796 107.785 99.4446 105.665 97.8206 103.061C96.2249 100.473 95.4532 97.5623 95.5056 94.3284C95.5862 91.1094 96.5429 87.7765 98.3758 84.3294C100.284 80.7411 102.579 77.9928 105.26 76.0845C107.957 74.1479 110.84 73.0892 113.908 72.9084C117.004 72.7426 120.078 73.4709 123.129 75.0934C126.181 76.7159 128.503 78.857 130.097 81.5166C131.676 84.2045 132.388 87.2285 132.232 90.5887C132.12 93.9357 131.14 97.3468 129.292 100.822C127.714 103.789 125.786 106.188 123.507 108.021C121.271 109.84 118.83 110.989 116.184 111.466L116.435 117.743L111.137 114.926L111.051 111.51ZM107.22 105.015C108.322 105.601 109.543 105.996 110.883 106.202L110.576 95.3286L115.662 98.0328L115.965 105.642C117.583 105.052 119.111 104.053 120.55 102.643C122.016 101.248 123.29 99.5337 124.372 97.4994C125.739 94.9282 126.488 92.4633 126.618 90.1045C126.749 87.7458 126.3 85.6588 125.272 83.8436C124.259 82.0002 122.749 80.5452 120.743 79.4785C118.765 78.4269 116.722 78.0107 114.612 78.2298C112.545 78.4357 110.556 79.2806 108.643 80.7644C106.746 82.22 105.114 84.2334 103.746 86.8045C102.394 89.3474 101.624 91.819 101.435 94.2192C101.289 96.6062 101.715 98.7356 102.714 100.607C103.712 102.479 105.214 103.948 107.22 105.015ZM132.826 124.012C130.254 122.644 128.703 120.859 128.171 118.656C127.625 116.48 128.125 113.937 129.672 111.027L137.785 95.7699L142.955 98.5192L135.203 113.098C134.212 114.963 133.81 116.435 133.998 117.513C134.214 118.606 135.072 119.48 136.573 120.133C139.575 121.439 142.591 121.629 145.62 120.703L154.229 104.513L159.399 107.263L146.87 130.827L141.911 128.19L143.161 125.43C139.883 126.006 136.947 125.768 134.354 124.715L132.826 124.012ZM163.201 140.434C159.359 138.391 156.935 135.725 155.929 132.436C154.909 129.175 155.435 125.595 157.508 121.696C158.92 119.04 160.674 117.037 162.769 115.687C164.778 114.363 166.921 113.672 169.199 113.615C171.504 113.572 173.773 114.144 176.005 115.331C178.124 116.458 179.813 117.917 181.071 119.71C182.329 121.502 182.985 123.573 183.041 125.922C183.14 128.258 182.607 130.692 181.441 133.225L180.111 135.726L161.845 126.014C160.848 128.093 160.663 130.042 161.29 131.862C161.918 133.681 163.291 135.154 165.41 136.281C166.823 137.032 168.123 137.416 169.311 137.431C170.527 137.461 171.544 137.15 172.362 136.498L177.702 139.338C175.952 141.198 173.8 142.21 171.248 142.375C168.681 142.569 165.999 141.922 163.201 140.434ZM176.974 128.948C177.824 127.008 177.948 125.207 177.346 123.546C176.758 121.856 175.532 120.516 173.667 119.524C171.887 118.578 170.133 118.333 168.403 118.791C166.689 119.221 165.223 120.308 164.005 122.052L176.974 128.948ZM196.809 127.154L195.354 130.403C196.802 129.723 198.2 129.343 199.548 129.262C200.911 129.153 202.144 129.356 203.247 129.87C204.875 130.627 206.212 131.519 207.26 132.548L204.849 137.082C203.424 135.673 201.933 134.626 200.375 133.943C199.3 133.443 198.131 133.257 196.868 133.382C195.605 133.508 194.342 133.942 193.078 134.683L184.559 150.703L179.389 147.954L191.851 124.517L196.809 127.154ZM195.857 161.766C197.975 162.965 199.843 163.505 201.464 163.388C203.098 163.315 204.913 162.559 206.911 161.12L208.931 133.599L214.271 136.439L212.049 156.568L212.134 156.613L226.901 143.154L232.241 145.993L214.421 161.308C210.997 164.271 208.205 166.32 206.043 167.454C204.651 168.164 203.338 168.589 202.103 168.73C200.897 168.886 199.626 168.754 198.291 168.334C196.941 167.942 195.348 167.222 193.514 166.174L195.857 161.766Z" fill="white"/>
</svg>
