<svg width="395" height="163" viewBox="0 0 395 163" fill="none" xmlns="http://www.w3.org/2000/svg">
<rect x="15.309" width="383" height="110" rx="55" transform="rotate(8 15.309 0)" fill="#2AE2BD"/>
<path d="M84.1455 50.3447C89.8177 51.1419 93.8965 52.7007 96.3817 55.0212C98.9031 57.3144 99.8854 60.4415 99.3288 64.4026C98.7721 68.3637 96.9636 71.1148 93.9033 72.6559C90.8792 74.1697 86.531 74.528 80.8588 73.7309L75.6301 72.996L73.7663 86.2577L67.9673 85.4427L73.1178 48.7949L84.1455 50.3447ZM82.8577 69.1646C89.3222 70.0731 92.8795 68.2141 93.5297 63.5876C94.18 58.9611 91.2728 56.1936 84.8084 55.285L78.2488 54.3631L76.2982 68.2427L82.8577 69.1646ZM111.475 53.2646L109.37 68.2374C112.144 66.2037 115.027 65.1224 118.018 64.9934C118.602 64.9785 119.195 65.0133 119.797 65.098C121.254 65.3028 122.629 65.8676 123.921 66.7924C125.208 67.7489 126.123 69.057 126.666 70.7166C127.208 72.3762 127.328 74.2835 127.025 76.4383L124.64 93.4075L118.841 92.5925L121.119 76.3838C121.649 72.6129 120.535 70.5337 117.778 70.1462C115.022 69.7587 111.987 70.7703 108.676 73.1809L106.197 90.8156L100.398 90.0006L105.676 52.4496L111.475 53.2646ZM142.872 96.9393C140.242 96.5697 137.995 95.6561 136.132 94.1986C134.296 92.7772 132.973 90.9271 132.162 88.648C131.351 86.369 131.14 83.8511 131.527 81.0942C131.919 78.3056 132.832 75.9457 134.267 74.0146C135.706 72.0518 137.52 70.6425 139.708 69.7867C141.897 68.931 144.258 68.6812 146.793 69.0375C149.297 69.3894 151.467 70.276 153.303 71.6973C155.139 73.1187 156.478 74.9711 157.32 77.2546C158.167 79.5063 158.395 82.0265 158.003 84.8151C157.615 87.572 156.718 89.9341 155.31 91.9014C153.939 93.8414 152.173 95.2573 150.012 96.1493C147.85 97.0412 145.471 97.3045 142.872 96.9393ZM143.54 92.186C144.934 92.382 146.24 92.1776 147.456 91.573C148.676 90.9367 149.701 89.9659 150.531 88.6606C151.365 87.3237 151.907 85.768 152.156 83.9934C152.557 81.1415 152.174 78.8094 151.007 76.9974C149.876 75.1581 148.217 74.0847 146.03 73.7775C144.636 73.5815 143.315 73.7836 142.067 74.3838C140.851 74.9885 139.829 75.9434 138.999 77.2486C138.169 78.5539 137.627 80.1096 137.374 81.9159C137.111 83.7855 137.214 85.4642 137.684 86.952C138.153 88.4398 138.889 89.642 139.891 90.5584C140.93 91.4475 142.146 91.9901 143.54 92.186ZM171.72 100.412C169.724 100.131 168.177 99.6394 167.08 98.9359C166.015 98.2369 165.323 97.1862 165.003 95.7841C164.715 94.3863 164.744 92.4516 165.091 89.9799L166.862 77.3837L162.821 76.8159L163.489 72.0626L167.53 72.6304L168.445 66.1184L174.244 66.9334L173.329 73.4454L179.651 74.3339L178.983 79.0872L172.661 78.1987L170.837 91.1752C170.69 92.2209 170.674 93.0265 170.788 93.5919C170.934 94.1618 171.309 94.6022 171.911 94.9131C172.546 95.2284 173.528 95.4796 174.859 95.6667C175.873 95.8092 176.493 95.8802 176.72 95.8797L176.058 100.585C174.37 100.639 172.924 100.581 171.72 100.412ZM192.787 103.954C190.157 103.585 187.91 102.671 186.047 101.214C184.211 99.7923 182.887 97.9421 182.077 95.6631C181.266 93.3841 181.054 90.8661 181.442 88.1092C181.834 85.3206 182.747 82.9608 184.182 81.0297C185.621 79.0668 187.435 77.6576 189.623 76.8018C191.811 75.946 194.173 75.6963 196.708 76.0526C199.212 76.4044 201.381 77.291 203.217 78.7124C205.053 80.1337 206.393 81.9861 207.235 84.2696C208.082 86.5214 208.309 89.0416 207.917 91.8302C207.53 94.5871 206.633 96.9492 205.225 98.9164C203.854 100.856 202.087 102.272 199.926 103.164C197.765 104.056 195.385 104.32 192.787 103.954ZM193.455 99.2011C194.849 99.397 196.154 99.1927 197.37 98.588C198.591 97.9517 199.616 96.9809 200.446 95.6757C201.28 94.3388 201.822 92.783 202.071 91.0085C202.472 88.1565 202.089 85.8245 200.921 84.0124C199.79 82.1731 198.132 81.0998 195.945 80.7925C194.551 80.5966 193.23 80.7987 191.982 81.3989C190.766 82.0035 189.743 82.9585 188.914 84.2637C188.084 85.5689 187.542 87.1247 187.288 88.9309C187.025 90.8005 187.129 92.4793 187.598 93.9671C188.068 95.4549 188.804 96.657 189.806 97.5734C190.844 98.4626 192.061 99.0051 193.455 99.2011ZM221.887 108.044C219.289 107.679 217.097 106.951 215.311 105.86C213.526 104.769 212.244 103.425 211.467 101.829C210.721 100.238 210.559 98.5189 210.98 96.6715L216.922 97.5065C216.881 97.5655 216.836 97.7692 216.787 98.1178C216.6 99.4487 217.085 100.599 218.241 101.57C219.402 102.508 221.012 103.122 223.072 103.412C224.371 103.595 225.459 103.44 226.336 102.95C227.217 102.427 227.724 101.691 227.858 100.74C227.974 99.9162 227.617 99.1227 226.787 98.3598C225.925 97.5924 224.362 96.6456 222.097 95.5194C219.337 94.0006 217.513 92.9525 216.625 92.3753C215.41 91.5906 214.551 90.6943 214.046 89.6862C213.573 88.6826 213.435 87.4837 213.631 86.0894C213.844 84.5683 214.473 83.3156 215.516 82.3312C216.564 81.3151 217.922 80.6174 219.591 80.238C221.264 79.8269 223.115 79.7638 225.143 80.0489C228.09 80.463 230.432 81.5031 232.169 83.1691C233.938 84.8395 234.798 86.8831 234.749 89.2998L228.998 88.4915C228.964 87.3557 228.57 86.4763 227.817 85.8535C227.069 85.199 225.871 84.756 224.223 84.5244C222.893 84.3374 221.779 84.4394 220.884 84.8307C220.025 85.1947 219.54 85.7728 219.429 86.565C219.322 87.3255 219.658 88.0352 220.438 88.6942C221.191 89.317 222.707 90.2571 224.986 91.5146C227.505 92.9027 229.368 94.0208 230.574 94.8688C231.838 95.7575 232.718 96.7375 233.214 97.809C233.71 98.8804 233.857 100.129 233.657 101.555C233.399 103.393 232.678 104.843 231.495 105.904C230.32 106.903 228.901 107.576 227.236 107.923C225.603 108.276 223.82 108.316 221.887 108.044ZM248.33 72.4984L246.226 87.4712C249 85.4375 251.883 84.3562 254.874 84.2272C255.457 84.2123 256.05 84.2471 256.652 84.3318C258.11 84.5366 259.485 85.1015 260.777 86.0263C262.064 86.9827 262.979 88.2908 263.521 89.9504C264.064 91.61 264.183 93.5173 263.88 95.6721L261.496 112.641L255.697 111.826L257.975 95.6176C258.504 91.8467 257.391 89.7675 254.634 89.38C251.877 88.9926 248.843 90.0041 245.531 92.4147L243.053 110.049L237.254 109.234L242.531 71.6834L248.33 72.4984ZM279.728 116.173C277.098 115.803 274.851 114.89 272.988 113.432C271.152 112.011 269.828 110.161 269.018 107.882C268.207 105.603 267.995 103.085 268.383 100.328C268.775 97.5394 269.688 95.1795 271.123 93.2484C272.562 91.2856 274.376 89.8763 276.564 89.0206C278.752 88.1648 281.114 87.9151 283.649 88.2713C286.153 88.6232 288.322 89.5098 290.158 90.9311C291.994 92.3525 293.334 94.2049 294.176 96.4884C295.023 98.7401 295.25 101.26 294.858 104.049C294.471 106.806 293.574 109.168 292.166 111.135C290.795 113.075 289.028 114.491 286.867 115.383C284.706 116.275 282.326 116.538 279.728 116.173ZM280.396 111.42C281.79 111.616 283.095 111.411 284.311 110.807C285.532 110.17 286.557 109.2 287.387 107.894C288.221 106.558 288.762 105.002 289.012 103.227C289.413 100.375 289.03 98.0432 287.862 96.2312C286.731 94.3919 285.073 93.3186 282.886 93.0113C281.492 92.8153 280.171 93.0174 278.923 93.6176C277.707 94.2223 276.684 95.1772 275.855 96.4824C275.025 97.7877 274.483 99.3434 274.229 101.15C273.966 103.019 274.07 104.698 274.539 106.186C275.009 107.674 275.745 108.876 276.747 109.792C277.785 110.681 279.002 111.224 280.396 111.42ZM307.237 92.2651L307.081 95.1029C309.624 93.1014 312.449 92.3188 315.554 92.7553C317.772 93.067 319.657 93.9135 321.208 95.2948C322.795 96.6489 323.919 98.4226 324.58 100.616C325.273 102.814 325.43 105.259 325.051 107.953C324.642 110.868 323.763 113.33 322.414 115.338C321.065 117.346 319.392 118.791 317.394 119.673C315.423 120.592 313.296 120.891 311.015 120.57C308.036 120.152 305.757 118.781 304.177 116.459L302.56 127.961L296.761 127.146L301.771 91.4968L307.237 92.2651ZM310.977 115.669C313.068 115.963 314.866 115.359 316.369 113.858C317.873 112.357 318.834 110.117 319.252 107.138C319.631 104.444 319.345 102.223 318.396 100.474C317.482 98.6974 316.074 97.6756 314.173 97.4084C312.715 97.2035 311.32 97.3628 309.986 97.8863C308.684 98.4142 307.498 99.2654 306.428 100.44L304.992 110.66C305.293 111.962 305.961 113.074 306.995 113.995C308.065 114.888 309.392 115.447 310.977 115.669Z" fill="black"/>
</svg>
