<svg width="273" height="134" viewBox="0 0 273 134" fill="none" xmlns="http://www.w3.org/2000/svg">
<rect x="0.44873" y="23.4858" width="263" height="110" rx="55" transform="rotate(-5 0.44873 23.4858)" fill="#2D2D2D"/>
<path d="M89.8808 59.4008L85.4816 59.7856C85.0584 61.5573 84.0771 63.0083 82.5378 64.1388C80.9984 65.2692 79.0812 65.9349 76.7859 66.1357C73.885 66.3895 71.4924 65.8439 69.608 64.4991C67.7208 63.1223 66.6684 61.1907 66.4509 58.7042C66.2334 56.2177 66.9357 54.1486 68.5579 52.4969C70.1774 50.8134 72.4375 49.8447 75.3385 49.5909C77.825 49.3733 79.9472 49.7659 81.7053 50.7685C83.4953 51.7683 84.6998 53.2369 85.3191 55.1743L89.4792 54.8103L88.973 49.0244L94.2807 48.56L96.5123 73.5165L91.2046 73.9809L89.8808 59.4008ZM100.189 82.4942L79.3404 84.3182L79.675 88.1436L100.523 86.3196L100.189 82.4942ZM78.7003 77.0022L78.9388 79.7278L99.7871 77.9038L99.5487 75.1782L105.382 74.6678L106.759 90.3997L74.2429 93.2445L72.8666 77.5126L78.7003 77.0022ZM66.9971 73.2078L66.6038 68.7129L88.4085 66.8053L88.8018 71.3001L80.1468 72.0573L80.4857 75.9305L75.178 76.3949L74.8391 72.5217L66.9971 73.2078ZM76.3801 61.4974C77.719 61.3803 78.7736 60.9507 79.5439 60.2088C80.3141 59.4668 80.6518 58.5539 80.557 57.47C80.4622 56.3862 79.9711 55.5458 79.0837 54.9488C78.1963 54.3519 77.0831 54.112 75.7442 54.2292C74.4054 54.3463 73.3508 54.7758 72.5805 55.5178C71.8103 56.2598 71.4725 57.1727 71.5674 58.2565C71.6622 59.3404 72.1533 60.1808 73.0407 60.7777C73.9281 61.3746 75.0413 61.6145 76.3801 61.4974ZM97.7235 48.2588L103.031 47.7945L105.263 72.7509L99.9551 73.2153L97.7235 48.2588ZM131.816 77.848L131.067 69.2887L124.516 69.8619L124.102 65.128L130.271 64.5883L128.235 52.3351L123.262 52.7702L122.848 48.0362L156.703 45.0743L157.117 49.8083L151.905 50.2643L152.793 62.6179L158.435 62.1242L158.849 66.8581L152.298 67.4313L153.047 75.9906L161.272 75.271L161.69 80.0528L124.01 83.3493L123.592 78.5676L131.816 77.848ZM136.152 64.0737L146.959 63.1283L146.071 50.7746L134.069 51.8247L136.152 64.0737ZM147.213 76.501L146.465 67.9417L136.901 68.7784L137.65 77.3377L147.213 76.501ZM166.83 56.3305L181.073 49.4952L180.826 46.674L167.533 47.837L167.131 43.2465L199.551 40.4101L199.953 45.0006L186.659 46.1636L186.906 48.9848L202.119 53.2431L200.492 57.7702L184.341 53.2566L169.219 60.5062L166.83 56.3305ZM166.195 62.8426L203.875 59.546L204.277 64.1365L188.832 65.4878L189.577 73.9993L183.743 74.5096L182.998 65.9981L166.597 67.4331L166.195 62.8426ZM169.528 70.6458L175.362 70.1355L176.136 78.9817L203.487 76.5887L203.897 81.2748L170.712 84.1781L169.528 70.6458Z" fill="white"/>
</svg>
