<svg width="373" height="190" viewBox="0 0 373 190" fill="none" xmlns="http://www.w3.org/2000/svg">
<rect x="0.885559" y="93.4341" width="358" height="99.41" rx="49.705" transform="rotate(-15 0.885559 93.4341)" fill="white"/>
<path d="M83.0724 145.865C79.7342 146.76 76.6299 146.797 73.7596 145.975C70.9202 145.146 68.4674 143.534 66.4011 141.139C64.3575 138.705 62.8305 135.603 61.8201 131.832C60.7517 127.844 60.5011 124.251 61.0682 121.051C61.6271 117.82 62.9245 115.12 64.9606 112.952C66.9883 110.752 69.6713 109.205 73.0095 108.31C75.6678 107.598 78.1999 107.466 80.606 107.915C83.0347 108.324 85.1579 109.262 86.9757 110.73C88.7935 112.197 90.1603 114.084 91.0762 116.389L85.3734 117.918C84.2041 115.779 82.6894 114.33 80.8292 113.57C78.9607 112.778 76.7901 112.714 74.3173 113.376C72.1536 113.956 70.4172 115.018 69.1081 116.561C67.8216 118.065 67.023 119.969 66.7125 122.272C66.4246 124.535 66.6616 127.089 67.4235 129.933C68.5665 134.198 70.4078 137.299 72.9476 139.236C75.4874 141.173 78.411 141.698 81.7183 140.812C84.3765 140.099 86.3044 138.887 87.5021 137.175C88.7223 135.423 89.2062 133.273 88.9538 130.723L94.842 129.145C95.3975 131.713 95.2984 134.125 94.5446 136.381C93.8134 138.598 92.4604 140.534 90.4856 142.189C88.5417 143.837 86.0707 145.062 83.0724 145.865ZM102.709 112.13L109.579 137.769L103.922 139.285L97.0522 113.645L102.709 112.13ZM98.8245 108.946C97.7426 109.236 96.7747 109.148 95.9208 108.681C95.0669 108.214 94.5115 107.502 94.2548 106.543C93.9897 105.554 94.1103 104.644 94.6164 103.813C95.1224 102.981 95.9164 102.421 96.9982 102.131C98.0801 101.841 99.048 101.93 99.9019 102.396C100.756 102.863 101.315 103.591 101.58 104.58C101.837 105.539 101.712 106.433 101.206 107.265C100.7 108.096 99.9063 108.657 98.8245 108.946ZM115.025 108.83L116.225 112.384C117.984 109.428 120.215 107.306 122.918 106.019C123.45 105.777 124.009 105.577 124.596 105.42C126.018 105.039 127.504 105.022 129.055 105.368C130.614 105.746 131.967 106.592 133.115 107.908C134.262 109.224 135.118 110.933 135.681 113.035L140.116 129.587L134.459 131.102L130.223 115.292C129.238 111.614 127.4 110.135 124.711 110.856C122.022 111.576 119.624 113.693 117.517 117.206L122.127 134.407L116.47 135.923L109.6 110.283L115.025 108.83ZM158.65 125.615C154.446 126.741 150.855 126.444 147.876 124.725C144.906 123.036 142.849 120.059 141.706 115.793C140.928 112.888 140.844 110.227 141.456 107.81C142.022 105.472 143.118 103.505 144.745 101.91C146.402 100.306 148.452 99.1771 150.894 98.5228C153.212 97.9017 155.442 97.8176 157.584 98.2706C159.727 98.7235 161.619 99.7901 163.262 101.47C164.927 103.111 166.198 105.255 167.073 107.903L167.806 110.639L147.823 115.993C148.512 118.194 149.706 119.745 151.406 120.648C153.105 121.551 155.114 121.692 157.432 121.071C158.978 120.657 160.19 120.05 161.069 119.251C161.979 118.444 162.511 117.523 162.665 116.488L168.506 114.923C168.495 117.477 167.612 119.685 165.858 121.546C164.113 123.438 161.71 124.795 158.65 125.615ZM160.889 107.821C160.187 105.822 159.05 104.421 157.476 103.617C155.894 102.782 154.083 102.637 152.043 103.184C150.096 103.706 148.646 104.724 147.693 106.238C146.733 107.721 146.402 109.516 146.701 111.622L160.889 107.821ZM174.171 92.9812L175.14 95.8525C176.047 94.4168 177.051 93.22 178.153 92.2622C179.246 91.2736 180.334 90.6343 181.416 90.3444C184.321 89.5659 186.649 90.4 188.397 92.8467C189.303 91.279 190.336 89.9421 191.497 88.8358C192.689 87.7213 193.872 87.0067 195.047 86.692C197.303 86.0874 199.238 86.4468 200.852 87.7703C202.488 89.0546 203.741 91.3195 204.611 94.565L209.046 111.117L203.389 112.633L199.277 97.2861C198.697 95.1224 198.071 93.6504 197.398 92.87C196.725 92.0895 195.832 91.8484 194.72 92.1466C193.205 92.5524 191.725 94.0754 190.279 96.7156C190.351 96.8619 190.507 97.3832 190.748 98.2796L195.183 114.832L189.526 116.347L185.414 101.001C184.851 98.8988 184.271 97.4144 183.674 96.5473C183.094 95.742 182.232 95.4926 181.088 95.799C179.574 96.2048 178.037 97.8258 176.478 100.662L181.273 118.559L175.617 120.074L168.747 94.4348L174.171 92.9812ZM225.537 107.692C222.013 108.636 218.932 108.203 216.293 106.392C213.663 104.612 211.78 101.605 210.646 97.3706C209.917 94.6505 209.75 92.1112 210.145 89.7526C210.571 87.3857 211.496 85.3985 212.921 83.7911C214.337 82.1527 216.127 81.0437 218.29 80.4639C221.598 79.5777 224.412 80.066 226.733 81.9287L226.254 79.0259L231.586 77.5972L238.456 103.237L233.124 104.665L232.122 101.853C230.946 104.884 228.751 106.831 225.537 107.692ZM224.977 102.823C226.646 102.376 227.953 101.38 228.897 99.8347C229.842 98.2896 230.235 96.5442 230.078 94.5986L228.227 87.6903C227.245 86.4959 226.008 85.6512 224.517 85.1562C223.049 84.622 221.619 84.5413 220.228 84.914C219.023 85.237 218.029 85.9174 217.247 86.9552C216.488 87.9537 216.02 89.2385 215.845 90.8094C215.661 92.3494 215.814 94.0313 216.302 95.8549C217.031 98.575 218.159 100.559 219.686 101.806C221.235 103.014 222.999 103.353 224.977 102.823ZM252.243 91.5417L251.175 87.5544L258.494 59.6036L266.654 57.4171L273.027 81.2021L277.247 80.0716L278.439 84.5226L274.22 85.6531L276.22 93.1177L270.564 94.6334L268.564 87.1687L252.243 91.5417ZM263.967 70.0139C263.611 68.6848 263.339 67.5483 263.153 66.6044C262.997 65.6523 262.82 64.3745 262.623 62.771C262.556 63.8822 262.445 64.8892 262.289 65.7923C262.156 66.6561 261.911 67.7819 261.554 69.1696L257.495 85.3639L267.371 82.7177L263.967 70.0139ZM286.807 51.9674C292.897 50.3358 297.827 50.6216 301.597 52.8247C305.391 54.9887 308.086 59.0534 309.685 65.019C311.275 70.9536 310.988 75.8176 308.824 79.6109C306.652 83.3734 302.506 86.0745 296.386 87.7144L285.907 90.5221L276.329 54.7751L286.807 51.9674ZM295.363 82.9695C299.69 81.81 302.519 79.9421 303.85 77.366C305.211 74.7815 305.271 71.1711 304.028 66.5346C302.778 61.8673 300.917 58.7549 298.446 57.1974C296.005 55.6317 292.621 55.4286 288.294 56.5881L283.24 57.9422L290.309 84.3236L295.363 82.9695Z" fill="black"/>
</svg>
