<svg width="273" height="110" viewBox="0 0 273 110" fill="none" xmlns="http://www.w3.org/2000/svg">
<rect width="273" height="110" rx="55" fill="#2AE2BD"/>
<path d="M92.416 35.4V40.2H73.216V51.24H91.696V56.04H73.216V72.408H67.36V35.4H92.416ZM103.963 45.864V72.408H98.1074V45.864H103.963ZM101.035 41.784C99.9154 41.784 99.0034 41.448 98.2994 40.776C97.5954 40.104 97.2434 39.272 97.2434 38.28C97.2434 37.256 97.5954 36.408 98.2994 35.736C99.0034 35.064 99.9154 34.728 101.035 34.728C102.155 34.728 103.067 35.064 103.771 35.736C104.475 36.408 104.827 37.256 104.827 38.28C104.827 39.272 104.475 40.104 103.771 40.776C103.067 41.448 102.155 41.784 101.035 41.784ZM119.882 76.968C122.602 77 124.65 76.808 126.026 76.392C127.338 75.976 128.266 75.224 128.81 74.136C129.354 73.08 129.626 71.464 129.626 69.288V68.568C128.73 69.816 127.626 70.76 126.314 71.4C125.002 72.072 123.514 72.408 121.85 72.408C119.514 72.408 117.466 71.88 115.706 70.824C113.946 69.8 112.57 68.28 111.578 66.264C110.618 64.248 110.138 61.848 110.138 59.064C110.138 56.344 110.666 53.928 111.722 51.816C112.746 49.704 114.154 48.072 115.946 46.92C117.738 45.768 119.722 45.192 121.898 45.192C125.322 45.192 127.914 46.392 129.674 48.792L129.866 45.864H135.482V67.368C135.482 71.176 135.114 74.136 134.378 76.248C133.61 78.296 132.218 79.752 130.202 80.616C128.186 81.512 125.21 81.96 121.274 81.96H114.89V76.92L119.882 76.968ZM122.57 67.56C124.298 67.56 125.818 66.936 127.13 65.688C128.442 64.44 129.274 62.856 129.626 60.936V54.744C128.986 53.336 128.01 52.2 126.698 51.336C125.418 50.44 124.058 49.992 122.618 49.992C121.402 49.992 120.282 50.376 119.258 51.144C118.266 51.912 117.466 52.984 116.858 54.36C116.282 55.736 115.994 57.304 115.994 59.064C115.994 61.656 116.586 63.72 117.77 65.256C118.986 66.792 120.586 67.56 122.57 67.56ZM147.166 45.864L147.358 48.888C148.606 47.736 149.886 46.84 151.198 46.2C152.51 45.528 153.726 45.192 154.846 45.192C157.854 45.192 159.886 46.6 160.942 49.416C162.222 48.136 163.566 47.112 164.974 46.344C166.414 45.576 167.742 45.192 168.958 45.192C171.294 45.192 173.07 46.04 174.286 47.736C175.534 49.4 176.158 51.912 176.158 55.272V72.408H170.302V56.52C170.302 54.28 170.078 52.696 169.63 51.768C169.182 50.84 168.382 50.376 167.23 50.376C165.662 50.376 163.838 51.464 161.758 53.64C161.79 53.8 161.806 54.344 161.806 55.272V72.408H155.95V56.52C155.95 54.344 155.774 52.76 155.422 51.768C155.07 50.84 154.302 50.376 153.118 50.376C151.55 50.376 149.646 51.544 147.406 53.88V72.408H141.55V45.864H147.166ZM192.974 73.368C189.326 73.368 186.462 72.152 184.382 69.72C182.302 67.32 181.262 63.928 181.262 59.544C181.262 56.728 181.758 54.232 182.75 52.056C183.774 49.88 185.182 48.2 186.974 47.016C188.766 45.8 190.782 45.192 193.022 45.192C196.446 45.192 199.038 46.392 200.798 48.792L201.086 45.864H206.606V72.408H201.086L200.846 69.432C198.926 72.056 196.302 73.368 192.974 73.368ZM193.694 68.52C195.422 68.52 196.942 67.896 198.254 66.648C199.566 65.4 200.398 63.816 200.75 61.896V54.744C200.11 53.336 199.134 52.2 197.822 51.336C196.542 50.44 195.182 49.992 193.742 49.992C192.494 49.992 191.358 50.392 190.334 51.192C189.342 51.96 188.558 53.08 187.982 54.552C187.406 55.992 187.118 57.656 187.118 59.544C187.118 62.36 187.694 64.568 188.846 66.168C190.03 67.736 191.646 68.52 193.694 68.52Z" fill="black"/>
</svg>
