<svg width="224" height="201" viewBox="0 0 224 201" fill="none" xmlns="http://www.w3.org/2000/svg">
<rect x="61.5112" width="196" height="110" rx="55" transform="rotate(34 61.5112 0)" fill="#2AE2BD"/>
<path d="M92.9298 85.5571L93.4846 64.2194L98.9363 67.8966L98.169 84.2275L98.2486 84.2812L113.103 77.4521L118.555 81.1294L98.9785 89.637L98.457 112.213L93.0052 108.536L93.7124 91.0063L93.6329 90.9527L77.6448 98.175L72.1931 94.4978L92.9298 85.5571ZM131.803 90.0656C137.029 93.5908 140.048 97.4989 140.859 101.79C141.715 106.073 140.416 110.774 136.962 115.894C133.526 120.988 129.667 123.962 125.385 124.818C121.12 125.647 116.361 124.29 111.109 120.747L102.115 114.68L122.81 83.9995L131.803 90.0656ZM114.019 116.862C117.733 119.367 120.998 120.276 123.815 119.591C126.659 118.923 129.423 116.599 132.107 112.619C134.809 108.614 135.937 105.167 135.491 102.28C135.072 99.4113 133.005 96.7242 129.291 94.219L124.954 91.2933L109.681 113.936L114.019 116.862Z" fill="black"/>
</svg>
