<svg width="294" height="216" viewBox="0 0 294 216" fill="none" xmlns="http://www.w3.org/2000/svg">
<rect y="115.375" width="273" height="110" rx="55" transform="rotate(-25 0 115.375)" fill="#2AE2BD"/>
<path d="M100.831 112.933L102.86 117.284L85.4586 125.398L90.1243 135.403L106.873 127.593L108.901 131.944L92.1528 139.754L99.0703 154.588L93.7629 157.063L78.1227 123.522L100.831 112.933ZM115.719 117.537L126.937 141.594L121.63 144.069L110.412 120.012L115.719 117.537ZM111.341 115.076C110.326 115.55 109.357 115.631 108.435 115.319C107.513 115.008 106.843 114.402 106.423 113.503C105.991 112.575 105.951 111.658 106.305 110.751C106.659 109.845 107.344 109.155 108.359 108.681C109.374 108.208 110.343 108.127 111.265 108.439C112.187 108.75 112.864 109.37 113.297 110.298C113.716 111.197 113.749 112.1 113.395 113.007C113.041 113.913 112.356 114.603 111.341 115.076ZM143.291 138.999C145.77 137.879 147.545 136.839 148.616 135.88C149.629 134.949 150.152 133.875 150.186 132.659C150.232 131.472 149.796 129.893 148.876 127.921L148.572 127.268C148.287 128.778 147.686 130.1 146.767 131.234C145.862 132.398 144.656 133.331 143.147 134.035C141.03 135.022 138.951 135.409 136.91 135.196C134.882 135.011 132.992 134.215 131.241 132.807C129.519 131.386 128.07 129.414 126.893 126.891C125.744 124.425 125.201 122.013 125.266 119.652C125.301 117.305 125.888 115.231 127.025 113.43C128.162 111.628 129.717 110.268 131.689 109.348C134.792 107.901 137.648 107.893 140.258 109.325L139.194 106.59L144.284 104.216L153.372 123.706C154.982 127.157 155.899 129.995 156.124 132.22C156.294 134.401 155.648 136.309 154.186 137.944C152.737 139.608 150.229 141.272 146.662 142.935L140.876 145.633L138.746 141.065L143.291 138.999ZM141.751 129.337C143.317 128.606 144.431 127.398 145.093 125.713C145.754 124.027 145.839 122.24 145.347 120.351L142.73 114.739C141.555 113.734 140.19 113.117 138.636 112.888C137.097 112.617 135.675 112.786 134.37 113.394C133.268 113.908 132.415 114.73 131.812 115.858C131.237 116.974 130.965 118.283 130.996 119.787C131.055 121.278 131.457 122.821 132.201 124.416C133.296 126.765 134.705 128.385 136.427 129.277C138.178 130.155 139.953 130.175 141.751 129.337ZM154.874 99.2783L156.326 101.938C156.97 100.366 157.752 99.0134 158.67 97.8788C159.575 96.7153 160.535 95.8969 161.551 95.4236C164.277 94.1523 166.713 94.5697 168.861 96.6755C169.48 94.9745 170.265 93.4785 171.216 92.1874C172.197 90.8827 173.238 89.9735 174.34 89.4596C176.457 88.4723 178.425 88.4903 180.244 89.5135C182.079 90.4942 183.706 92.5071 185.126 95.5523L192.368 111.083L187.06 113.558L180.346 99.1582C179.399 97.1281 178.527 95.7872 177.729 95.1355C176.93 94.4837 176.009 94.4013 174.965 94.8882C173.544 95.5508 172.351 97.3078 171.385 100.159C171.482 100.29 171.726 100.777 172.118 101.618L179.36 117.148L174.053 119.623L167.339 105.224C166.419 103.252 165.59 101.89 164.852 101.14C164.14 100.448 163.248 100.352 162.175 100.852C160.754 101.515 159.522 103.378 158.479 106.442L166.31 123.234L161.002 125.709L149.784 101.652L154.874 99.2783ZM208.013 104.846C204.707 106.388 201.598 106.496 198.685 105.171C195.785 103.875 193.409 101.241 191.556 97.2673C190.366 94.7151 189.761 92.2434 189.74 89.852C189.749 87.4471 190.315 85.3295 191.439 83.4991C192.549 81.6397 194.119 80.2366 196.149 79.29C199.252 77.8429 202.109 77.8351 204.718 79.2664L203.742 76.491L208.744 74.1582L219.962 98.2152L214.96 100.548L213.484 97.9523C212.853 101.142 211.03 103.44 208.013 104.846ZM206.617 100.148C208.183 99.418 209.297 98.2101 209.959 96.5246C210.62 94.839 210.705 93.0518 210.213 91.1629L207.19 84.681C206.015 83.6754 204.65 83.0583 203.096 82.8297C201.557 82.5586 200.135 82.7274 198.83 83.336C197.699 83.8634 196.839 84.706 196.249 85.8638C195.674 86.9791 195.437 88.3255 195.537 89.903C195.624 91.4515 196.066 93.0813 196.864 94.7924C198.054 97.3446 199.509 99.1023 201.229 100.066C202.965 100.986 204.761 101.014 206.617 100.148Z" fill="black"/>
</svg>
