<svg width="316" height="280" viewBox="0 0 316 280" fill="none" xmlns="http://www.w3.org/2000/svg">
<rect x="68.624" y="0.41748" width="313" height="110" rx="55" transform="rotate(38 68.624 0.41748)" fill="#2D2D2D"/>
<path d="M112.566 89.9393L109.086 87.2205C107.568 88.2276 105.861 88.6196 103.964 88.3965C102.068 88.1735 100.211 87.3527 98.3959 85.9342C96.1012 84.1414 94.7234 82.1107 94.2624 79.8419C93.8212 77.548 94.3689 75.4176 95.9056 73.4507C97.4423 71.4838 99.3671 70.4496 101.68 70.348C104.012 70.2211 106.326 71.0541 108.621 72.8469C110.588 74.3836 111.872 76.1181 112.474 78.0504C113.101 80.0023 112.981 81.8979 112.112 83.7371L115.403 86.3081L118.979 81.7314L123.177 85.0116L107.789 104.786L103.591 101.505L112.566 89.9393ZM104.355 113.859L87.8636 100.974L85.4995 104L101.991 116.885L104.355 113.859ZM92.385 95.1871L90.7006 97.3431L107.192 110.228L108.877 108.072L113.491 111.677L103.769 124.121L78.0479 104.026L87.7704 91.5818L92.385 95.1871ZM86.4136 84.4304L89.1915 80.8749L106.439 94.3505L103.662 97.906L96.8154 92.5571L94.4217 95.6209L90.2231 92.3407L92.6168 89.2769L86.4136 84.4304ZM101.262 82.2652C102.321 83.0927 103.386 83.4978 104.455 83.4805C105.524 83.4631 106.394 83.0258 107.064 82.1684C107.734 81.3111 107.948 80.3615 107.706 79.3198C107.464 78.278 106.813 77.3434 105.754 76.5159C104.695 75.6885 103.631 75.2834 102.562 75.3007C101.492 75.318 100.623 75.7554 99.9528 76.6127C99.283 77.4701 99.069 78.4196 99.3109 79.4614C99.5528 80.5032 100.203 81.4378 101.262 82.2652ZM125.901 87.1393L130.099 90.4196L114.711 110.194L110.512 106.913L125.901 87.1393ZM131.856 115.914L145.117 115.858L148.279 111.811L141.017 106.137L143.913 102.43L163.052 117.384L160.156 121.09L152.894 115.416L149.732 119.464L152.886 132.344L147.732 133.251L144.794 121.027L132.224 121.135L131.856 115.914ZM133.686 124.409L138.3 128.014L136.025 130.927L150.625 142.334L152.9 139.421L157.515 143.027L146.315 157.362L122.486 138.744L133.686 124.409ZM144.596 150.05L147.729 146.041L133.129 134.634L129.996 138.643L144.596 150.05ZM156.942 121.93L162.919 126.599L168.031 120.055L172.646 123.66L158.815 141.362L154.201 137.757L159.963 130.381L153.987 125.712L156.942 121.93ZM177.096 134.63L179.962 130.961L205.607 150.997L196.18 163.063L191.566 159.457L198.126 151.06L177.096 134.63ZM166.703 143.566L196.509 166.852L193.672 170.483L163.866 147.197L166.703 143.566ZM163.531 151.991L168.146 155.596L162.295 163.086L183.93 179.989L181.034 183.696L154.784 163.187L163.531 151.991ZM200.762 169.81L216.028 167.422L220.431 161.786L225.045 165.392L220.642 171.027L222.594 185.526L217.325 186.344L215.557 172.78L201.512 175.086L200.762 169.81ZM203.124 202.416C200.577 200.426 198.607 198.4 197.214 196.337C195.821 194.274 195.076 192.291 194.979 190.387C194.862 188.51 195.375 186.839 196.518 185.377C197.66 183.914 199.157 183.012 201.007 182.671C202.877 182.305 204.982 182.548 207.32 183.401C209.659 184.253 212.102 185.675 214.649 187.665C217.196 189.654 219.166 191.681 220.559 193.744C221.952 195.807 222.697 197.79 222.794 199.693C222.911 201.571 222.398 203.241 221.255 204.704C220.112 206.166 218.616 207.068 216.766 207.409C214.896 207.776 212.791 207.533 210.452 206.68C208.114 205.827 205.671 204.406 203.124 202.416ZM206.079 198.634C208.449 200.486 210.584 201.625 212.483 202.053C214.388 202.526 215.774 202.208 216.64 201.098C217.507 199.989 217.481 198.567 216.561 196.834C215.687 195.094 214.064 193.299 211.694 191.447C209.323 189.595 207.176 188.445 205.252 187.998C203.372 187.544 201.999 187.873 201.132 188.982C200.266 190.092 200.279 191.503 201.174 193.217C202.074 194.976 203.709 196.782 206.079 198.634ZM223.292 177.849L226.247 174.067L232.942 179.297L237.08 174.002L241.694 177.607L227.273 196.066L222.658 192.46L229.987 183.08L223.292 177.849Z" fill="white"/>
</svg>
