<svg width="360" height="163" viewBox="0 0 360 163" fill="none" xmlns="http://www.w3.org/2000/svg">
<rect y="54.2827" width="347" height="110" rx="55" transform="rotate(-9 0 54.2827)" fill="white"/>
<path d="M83.4146 79.3432C89.072 78.4471 93.4283 78.7453 96.4834 80.2378C99.5651 81.6936 101.419 84.3969 102.045 88.3477C102.67 92.2984 101.745 95.458 99.2692 97.8265C96.8198 100.158 92.7664 101.772 87.1089 102.668L81.8939 103.494L83.9889 116.722L78.205 117.638L72.4157 81.0852L83.4146 79.3432ZM87.6855 97.7173C94.1331 96.6961 96.9915 93.8782 96.2606 89.2638C95.5298 84.6493 91.9405 82.8526 85.4929 83.8738L78.9505 84.9101L81.143 98.7535L87.6855 97.7173ZM111.946 85.4187L112.738 88.8894C113.486 87.475 114.374 86.33 115.402 85.4545C116.425 84.5473 117.531 83.9671 118.722 83.7136C120.477 83.3385 122.083 83.2462 123.538 83.4368L124.342 88.5096C122.355 88.241 120.535 88.3026 118.88 88.6944C117.72 88.9428 116.674 89.4973 115.741 90.3578C114.808 91.2183 114.06 92.325 113.497 93.6778L116.335 111.598L110.551 112.514L106.399 86.2973L111.946 85.4187ZM144.41 108.124C140.112 108.804 136.572 108.134 133.789 106.112C131.012 104.122 129.277 100.947 128.587 96.585C128.116 93.614 128.311 90.9588 129.172 88.6194C129.979 86.3532 131.275 84.5118 133.059 83.0952C134.875 81.6736 137.032 80.7651 139.529 80.3696C141.899 79.9942 144.126 80.1437 146.209 80.8181C148.292 81.4926 150.063 82.7511 151.521 84.5936C153.006 86.3996 154.045 88.6649 154.639 91.3896L155.082 94.1867L134.648 97.4231C135.104 99.6837 136.129 101.352 137.725 102.427C139.321 103.503 141.304 103.853 143.675 103.478C145.255 103.227 146.524 102.751 147.482 102.048C148.471 101.341 149.096 100.481 149.357 99.4673L155.331 98.5211C155.052 101.06 153.944 103.163 152.005 104.831C150.071 106.531 147.539 107.628 144.41 108.124ZM148.497 90.6614C148.009 88.6004 147.024 87.0878 145.543 86.1237C144.057 85.1279 142.271 84.7952 140.185 85.1256C138.194 85.4409 136.645 86.3018 135.539 87.708C134.429 89.0827 133.912 90.8331 133.99 92.9591L148.497 90.6614ZM163.258 77.2916L163.921 80.2484C164.973 78.9153 166.097 77.8301 167.293 76.9927C168.484 76.1238 169.632 75.6017 170.739 75.4265C173.71 74.9559 175.937 76.0287 177.42 78.6448C178.484 77.1804 179.652 75.9587 180.922 74.9799C182.224 73.9961 183.476 73.4091 184.677 73.2189C186.984 72.8534 188.871 73.4132 190.337 74.8981C191.83 76.3464 192.839 78.7298 193.365 82.0484L196.046 98.9735L190.262 99.8896L187.776 84.1972C187.426 81.9847 186.957 80.4553 186.369 79.6088C185.782 78.7623 184.919 78.4292 183.781 78.6094C182.232 78.8547 180.601 80.2146 178.887 82.6892C178.944 82.8422 179.045 83.377 179.19 84.2936L181.87 101.219L176.087 102.135L173.601 86.4423C173.261 84.2931 172.839 82.7561 172.336 81.8314C171.843 80.9699 171.012 80.6318 169.843 80.817C168.294 81.0623 166.596 82.5137 164.749 85.1714L167.648 103.471L161.864 104.387L157.711 78.1702L163.258 77.2916ZM204.709 70.7265L208.861 96.9437L203.077 97.8598L198.925 71.6426L204.709 70.7265ZM201.179 67.1547C200.073 67.33 199.119 67.1408 198.319 66.5872C197.518 66.0336 197.04 65.2669 196.885 64.2871C196.725 63.2757 196.94 62.3831 197.53 61.6092C198.121 60.8354 198.969 60.3608 200.075 60.1856C201.181 60.0104 202.134 60.1996 202.935 60.7532C203.735 61.3068 204.216 62.0893 204.376 63.1007C204.531 64.0805 204.314 64.9573 203.723 65.7312C203.133 66.505 202.285 66.9795 201.179 67.1547ZM228.764 94.7634C224.465 95.4442 220.925 94.7738 218.142 92.7522C215.365 90.7622 213.631 87.5864 212.94 83.2248C212.469 80.2538 212.664 77.5986 213.525 75.2592C214.332 72.9929 215.628 71.1516 217.413 69.735C219.229 68.3134 221.385 67.4049 223.882 67.0094C226.252 66.634 228.479 66.7835 230.562 67.4579C232.645 68.1323 234.416 69.3908 235.874 71.2334C237.359 73.0393 238.398 75.3047 238.992 78.0294L239.435 80.8265L219.002 84.0628C219.457 86.3234 220.482 87.9915 222.078 89.0671C223.674 90.1427 225.657 90.4928 228.028 90.1173C229.608 89.867 230.877 89.3906 231.835 88.6881C232.825 87.9806 233.45 87.1203 233.71 86.107L239.684 85.1609C239.406 87.6997 238.297 89.803 236.358 91.4709C234.424 93.1703 231.893 94.2678 228.764 94.7634ZM232.85 77.3011C232.362 75.2402 231.377 73.7276 229.896 72.7634C228.41 71.7676 226.624 71.4349 224.538 71.7653C222.547 72.0807 220.998 72.9415 219.893 74.3478C218.782 75.7225 218.266 77.4728 218.343 79.5989L232.85 77.3011ZM247.612 63.9314L248.404 67.4021C249.152 65.9877 250.04 64.8427 251.068 63.9672C252.09 63.06 253.197 62.4797 254.388 62.2263C256.143 61.8511 257.748 61.7589 259.204 61.9495L260.008 67.0222C258.021 66.7537 256.2 66.8153 254.545 67.207C253.386 67.4554 252.34 68.0099 251.407 68.8705C250.474 69.731 249.726 70.8376 249.163 72.1904L252.001 90.111L246.217 91.0271L242.065 64.8099L247.612 63.9314ZM280.076 86.6363C275.778 87.3171 272.237 86.6467 269.455 84.6251C266.677 82.6351 264.943 79.4593 264.252 75.0977C263.782 72.1267 263.977 69.4715 264.837 67.1321C265.645 64.8658 266.941 63.0244 268.725 61.6079C270.541 60.1863 272.698 59.2778 275.194 58.8823C277.565 58.5069 279.792 58.6563 281.875 59.3308C283.958 60.0052 285.729 61.2637 287.187 63.1063C288.672 64.9122 289.711 67.1776 290.304 69.9023L290.747 72.6994L270.314 75.9357C270.769 78.1963 271.795 79.8644 273.391 80.94C274.987 82.0156 276.97 82.3657 279.34 81.9902C280.921 81.7399 282.19 81.2635 283.148 80.561C284.137 79.8535 284.762 78.9932 285.023 77.9799L290.996 77.0338C290.718 79.5726 289.61 81.6759 287.671 83.3437C285.737 85.0432 283.205 86.1407 280.076 86.6363ZM284.163 69.174C283.674 67.1131 282.69 65.6005 281.209 64.6363C279.723 63.6405 277.936 63.3078 275.85 63.6382C273.859 63.9536 272.311 64.8144 271.205 66.2207C270.095 67.5954 269.578 69.3457 269.656 71.4717L284.163 69.174Z" fill="black"/>
</svg>
