<svg width="427" height="265" viewBox="0 0 427 265" fill="none" xmlns="http://www.w3.org/2000/svg">
<rect y="162.935" width="417" height="110" rx="55" transform="rotate(-23 0 162.935)" fill="white"/>
<path d="M74.4657 171.152L79.7679 168.901L107.262 197.435L101.828 199.741L94.7629 192.311L80.889 198.2L81.3262 208.444L75.8916 210.751L74.4657 171.152ZM91.2526 188.587L79.9113 176.61L80.6483 193.088L91.2526 188.587ZM101.263 176.359L99.3872 171.941L104.247 169.878L103.404 167.89C102.178 165.003 101.911 162.613 102.603 160.721C103.282 158.799 105.05 157.231 107.907 156.018C108.643 155.706 109.523 155.402 110.545 155.107L112.514 159.747L110.797 160.371C109.531 160.909 108.737 161.576 108.414 162.373C108.08 163.141 108.194 164.188 108.756 165.513L109.638 167.59L115.294 165.189L117.169 169.608L111.513 172.008L120.01 192.024L114.619 194.312L106.123 174.296L101.263 176.359ZM139.884 184.005C138.029 184.792 136.45 185.167 135.147 185.129C133.874 185.078 132.739 184.534 131.743 183.497C130.776 182.448 129.805 180.774 128.83 178.477L123.86 166.768L120.104 168.362L118.228 163.943L121.984 162.349L119.415 156.296L124.805 154.008L127.374 160.061L133.251 157.567L135.126 161.985L129.25 164.48L134.37 176.542C134.783 177.514 135.184 178.213 135.573 178.639C135.992 179.052 136.539 179.236 137.216 179.193C137.922 179.136 138.894 178.845 140.131 178.32C141.074 177.92 141.642 177.662 141.835 177.545L143.692 181.919C142.273 182.834 141.004 183.529 139.884 184.005ZM160.12 176.041C156.114 177.741 152.517 177.947 149.328 176.659C146.151 175.4 143.7 172.738 141.975 168.673C140.799 165.904 140.346 163.281 140.615 160.802C140.851 158.408 141.663 156.308 143.051 154.502C144.469 152.683 146.342 151.28 148.669 150.292C150.878 149.354 153.075 148.961 155.259 149.111C157.444 149.262 159.466 150.054 161.327 151.489C163.205 152.883 164.761 154.829 165.996 157.329L167.103 159.936L148.059 168.02C149.048 170.103 150.446 171.473 152.255 172.131C154.064 172.789 156.073 172.648 158.282 171.711C159.755 171.085 160.871 170.316 161.631 169.403C162.419 168.477 162.818 167.491 162.826 166.445L168.393 164.082C168.737 166.612 168.17 168.921 166.692 171.009C165.227 173.126 163.036 174.803 160.12 176.041ZM159.861 158.109C158.888 156.227 157.567 154.998 155.897 154.42C154.214 153.814 152.4 153.923 150.456 154.748C148.6 155.536 147.306 156.746 146.574 158.378C145.829 159.98 145.751 161.803 146.34 163.848L159.861 158.109ZM170.949 141.565L172.558 144.741C172.941 143.187 173.526 141.862 174.311 140.763C175.084 139.636 176.018 138.805 177.112 138.271C178.724 137.482 180.259 137.004 181.718 136.837L183.725 141.565C181.732 141.785 179.981 142.285 178.469 143.066C177.405 143.587 176.524 144.378 175.827 145.439C175.13 146.5 174.671 147.754 174.452 149.203L181.542 165.905L176.151 168.193L165.78 143.759L170.949 141.565ZM215.026 111.488L216.902 115.906L199.228 123.408L203.354 133.129L220.365 125.908L222.241 130.326L205.23 137.547L209.937 148.637L228.053 140.948L229.928 145.366L206.422 155.344L191.962 121.278L215.026 111.488ZM224.363 124.106L222.488 119.688L227.348 117.625L226.504 115.637C225.279 112.75 225.012 110.36 225.703 108.468C226.382 106.546 228.15 104.978 231.007 103.765C231.744 103.453 232.623 103.149 233.645 102.854L235.614 107.494L233.898 108.118C232.631 108.656 231.837 109.323 231.515 110.12C231.18 110.888 231.294 111.935 231.857 113.26L232.738 115.337L238.394 112.936L240.269 117.355L234.614 119.755L243.11 139.771L237.719 142.059L229.223 122.043L224.363 124.106ZM243.204 116.109L241.329 111.69L246.189 109.627L245.345 107.639C244.12 104.752 243.853 102.363 244.544 100.47C245.223 98.548 246.991 96.9805 249.848 95.7677C250.585 95.4551 251.464 95.1514 252.486 94.8567L254.455 99.496L252.739 100.12C251.472 100.658 250.678 101.325 250.356 102.123C250.021 102.89 250.135 103.937 250.698 105.263L251.579 107.339L257.235 104.939L259.111 109.357L253.455 111.758L261.951 131.773L256.561 134.061L248.064 114.046L243.204 116.109ZM284.083 123.421C280.077 125.122 276.48 125.328 273.291 124.039C270.115 122.781 267.664 120.119 265.938 116.054C264.763 113.285 264.31 110.661 264.579 108.183C264.814 105.789 265.626 103.689 267.015 101.882C268.433 100.064 270.305 98.6606 272.632 97.6728C274.842 96.7351 277.038 96.3414 279.223 96.4918C281.407 96.6423 283.43 97.435 285.29 98.8701C287.168 100.263 288.724 102.21 289.959 104.71L291.066 107.317L272.023 115.4C273.011 117.484 274.41 118.854 276.219 119.512C278.027 120.169 280.036 120.029 282.245 119.091C283.718 118.466 284.834 117.697 285.594 116.784C286.383 115.858 286.781 114.872 286.789 113.825L292.356 111.462C292.7 113.993 292.134 116.302 290.656 118.389C289.19 120.506 287 122.184 284.083 123.421ZM283.824 105.489C282.852 103.608 281.53 102.378 279.86 101.801C278.177 101.194 276.364 101.304 274.419 102.129C272.564 102.916 271.27 104.126 270.537 105.758C269.792 107.361 269.714 109.184 270.304 111.228L283.824 105.489ZM311.889 111.619C308.089 113.232 304.603 113.373 301.431 112.042C298.289 110.7 295.874 108.04 294.186 104.063C293.06 101.412 292.594 98.8811 292.788 96.4699C292.968 94.0293 293.776 91.8786 295.211 90.018C296.634 88.1279 298.597 86.6515 301.101 85.5887C304.194 84.2758 307.134 84.036 309.921 84.8692C312.725 85.6605 314.933 87.3825 316.546 90.0352L311.067 92.3608C310.135 90.9836 308.936 90.0845 307.471 89.6634C306.006 89.2424 304.479 89.3694 302.888 90.0446C300.826 90.9198 299.478 92.4131 298.845 94.5244C298.212 96.6358 298.439 98.9728 299.527 101.535C300.689 104.275 302.223 106.127 304.127 107.092C306.019 108.027 308.099 108.013 310.367 107.05C311.987 106.362 313.138 105.266 313.82 103.759C314.531 102.241 314.593 100.667 314.006 99.0393L319.573 96.6762C320.323 98.6873 320.516 100.656 320.152 102.584C319.775 104.482 318.879 106.218 317.461 107.793C316.044 109.368 314.187 110.643 311.889 111.619ZM338.062 99.8831C336.206 100.671 334.627 101.046 333.325 101.007C332.052 100.957 330.917 100.413 329.921 99.3759C328.954 98.3262 327.983 96.6527 327.007 94.3551L322.037 82.6463L318.282 84.2404L316.406 79.822L320.162 78.2278L317.592 72.1746L322.983 69.8865L325.552 75.9397L331.429 73.4453L333.304 77.8637L327.428 80.3581L332.548 92.4204C332.96 93.3925 333.361 94.0914 333.751 94.5171C334.169 94.9303 334.717 95.115 335.394 95.0711C336.1 95.0148 337.071 94.724 338.309 94.1989C339.251 93.7988 339.819 93.5402 340.013 93.4232L341.87 97.7975C340.451 98.7127 339.181 99.408 338.062 99.8831ZM356.575 92.6507C354.159 93.676 351.905 94.1808 349.813 94.1652C347.72 94.1495 345.93 93.658 344.442 92.6906C342.983 91.7107 341.958 90.3206 341.368 88.5202L346.891 86.1758C346.886 86.2472 346.953 86.4449 347.09 86.7689C347.616 88.0061 348.623 88.7428 350.114 88.9791C351.593 89.1859 353.289 88.8829 355.204 88.0702C356.411 87.5576 357.265 86.8651 357.764 85.9929C358.25 85.0912 358.306 84.1985 357.93 83.3148C357.605 82.5489 356.891 82.0527 355.786 81.8262C354.653 81.6122 352.825 81.6058 350.303 81.8072C347.155 81.9265 345.052 81.9676 343.994 81.9303C342.548 81.8833 341.35 81.5577 340.398 80.9535C339.476 80.3368 338.74 79.3805 338.189 78.0844C337.589 76.6705 337.483 75.273 337.87 73.892C338.245 72.4814 339.05 71.1838 340.285 69.9989C341.508 68.7846 343.062 67.7774 344.947 66.9772C347.686 65.8144 350.229 65.4996 352.576 66.033C354.953 66.5539 356.742 67.8626 357.945 69.9593L352.599 72.2287C351.985 71.2727 351.194 70.7216 350.229 70.5754C349.25 70.3998 347.995 70.637 346.463 71.2872C345.226 71.8123 344.325 72.4731 343.759 73.2695C343.21 74.0239 343.092 74.7693 343.404 75.5057C343.705 76.2127 344.359 76.6477 345.366 76.8109C346.332 76.9571 348.116 76.9822 350.717 76.8862C353.592 76.7785 355.764 76.7776 357.234 76.8836C358.776 76.9939 360.035 77.3807 361.012 78.0438C361.989 78.7068 362.758 79.7011 363.321 81.0267C364.046 82.7351 364.175 84.3491 363.708 85.8685C363.215 87.329 362.345 88.637 361.097 89.7924C359.879 90.9352 358.371 91.888 356.575 92.6507Z" fill="black"/>
</svg>
