<svg width="430" height="246" viewBox="0 0 430 246" fill="none" xmlns="http://www.w3.org/2000/svg">
<rect y="142.622" width="417" height="110" rx="55" transform="rotate(-20 0 142.622)" fill="white"/>
<path d="M72.7257 153.668L78.1383 151.698L104.102 181.631L98.5539 183.65L91.8876 175.86L77.7246 181.015L77.6251 191.268L72.0771 193.287L72.7257 153.668ZM88.577 171.957L77.8781 159.403L77.7518 175.897L88.577 171.957ZM99.2134 160.271L97.5717 155.76L102.533 153.954L101.795 151.924C100.722 148.978 100.58 146.577 101.37 144.723C102.149 142.839 103.996 141.367 106.913 140.305C107.665 140.031 108.559 139.774 109.595 139.533L111.319 144.269L109.572 144.803C108.279 145.274 107.451 145.898 107.087 146.678C106.713 147.427 106.772 148.478 107.265 149.831L108.036 151.951L113.81 149.85L115.451 154.36L109.678 156.462L117.115 176.894L111.612 178.897L104.175 158.465L99.2134 160.271ZM137.382 169.926C135.488 170.616 133.891 170.908 132.592 170.801C131.324 170.684 130.219 170.082 129.278 168.994C128.368 167.895 127.485 166.173 126.632 163.827L122.281 151.875L118.447 153.27L116.806 148.759L120.64 147.364L118.39 141.185L123.893 139.182L126.142 145.361L132.141 143.178L133.783 147.688L127.784 149.872L132.266 162.185C132.627 163.178 132.991 163.897 133.357 164.342C133.754 164.777 134.291 164.99 134.969 164.981C135.677 164.962 136.663 164.723 137.926 164.263C138.888 163.913 139.469 163.684 139.668 163.578L141.294 168.043C139.829 168.883 138.525 169.511 137.382 169.926ZM158.007 163.033C153.917 164.521 150.314 164.539 147.197 163.085C144.091 161.662 141.782 158.875 140.272 154.725C139.243 151.899 138.928 149.255 139.326 146.794C139.687 144.416 140.607 142.361 142.089 140.63C143.6 138.888 145.543 137.585 147.919 136.72C150.174 135.899 152.389 135.621 154.562 135.886C156.736 136.15 158.714 137.048 160.497 138.578C162.299 140.068 163.751 142.093 164.854 144.654L165.823 147.316L146.382 154.391C147.26 156.523 148.585 157.965 150.357 158.717C152.129 159.468 154.143 159.433 156.398 158.612C157.901 158.065 159.056 157.355 159.863 156.483C160.699 155.6 161.148 154.636 161.211 153.591L166.894 151.523C167.105 154.068 166.418 156.344 164.833 158.351C163.259 160.389 160.984 161.949 158.007 163.033ZM158.686 145.111C157.814 143.181 156.558 141.885 154.921 141.221C153.272 140.527 151.455 140.541 149.47 141.263C147.576 141.953 146.22 143.093 145.403 144.685C144.575 146.246 144.402 148.063 144.884 150.135L158.686 145.111ZM170.625 129.171L172.066 132.426C172.53 130.895 173.183 129.602 174.025 128.546C174.856 127.461 175.831 126.68 176.952 126.204C178.603 125.501 180.161 125.104 181.627 125.013L183.383 129.839C181.382 129.955 179.607 130.363 178.057 131.063C176.966 131.528 176.045 132.272 175.293 133.295C174.542 134.318 174.019 135.547 173.724 136.982L179.929 154.032L174.427 156.035L165.348 131.091L170.625 129.171ZM216.216 101.441L217.858 105.952L199.816 112.519L203.427 122.442L220.793 116.121L222.435 120.632L205.069 126.952L209.19 138.274L227.683 131.543L229.325 136.053L205.329 144.787L192.671 110.011L216.216 101.441ZM224.88 114.532L223.238 110.021L228.2 108.215L227.461 106.186C226.388 103.239 226.247 100.838 227.036 98.9845C227.815 97.1006 229.663 95.6278 232.58 94.5662C233.331 94.2925 234.225 94.0353 235.261 93.7944L236.985 98.5304L235.238 99.0641C233.945 99.5347 233.117 100.16 232.754 100.939C232.379 101.688 232.438 102.739 232.931 104.092L233.702 106.212L239.476 104.111L241.118 108.622L235.344 110.723L242.781 131.156L237.278 133.159L229.841 112.726L224.88 114.532ZM244.114 107.531L242.472 103.021L247.434 101.215L246.695 99.185C245.622 96.2381 245.481 93.8378 246.27 91.9839C247.049 90.1 248.897 88.6272 251.813 87.5656C252.565 87.292 253.459 87.0347 254.495 86.7938L256.219 91.5299L254.472 92.0635C253.179 92.5341 252.351 93.1591 251.987 93.9384C251.613 94.6876 251.672 95.7388 252.165 97.0919L252.936 99.2119L258.71 97.1105L260.352 101.621L254.578 103.722L262.015 124.155L256.512 126.158L249.075 105.725L244.114 107.531ZM284.554 116.973C280.465 118.462 276.861 118.479 273.744 117.026C270.638 115.602 268.33 112.815 266.819 108.666C265.79 105.839 265.475 103.196 265.874 100.735C266.234 98.3563 267.155 96.3014 268.636 94.5704C270.147 92.8284 272.091 91.5251 274.466 90.6605C276.722 89.8397 278.936 89.5615 281.11 89.8261C283.283 90.0906 285.261 90.9881 287.044 92.5186C288.846 94.0081 290.299 96.0335 291.401 98.5949L292.37 101.256L272.93 108.332C273.808 110.464 275.133 111.906 276.905 112.657C278.676 113.408 280.69 113.374 282.945 112.553C284.449 112.006 285.604 111.296 286.41 110.423C287.246 109.54 287.696 108.576 287.758 107.532L293.441 105.463C293.653 108.009 292.966 110.285 291.381 112.292C289.807 114.329 287.531 115.89 284.554 116.973ZM285.234 99.0519C284.361 97.122 283.106 95.8251 281.468 95.1612C279.819 94.4673 278.002 94.4815 276.018 95.2039C274.123 95.8934 272.768 97.0338 271.951 98.6252C271.123 100.187 270.95 102.003 271.431 104.075L285.234 99.0519ZM312.939 106.642C309.06 108.054 305.572 108.012 302.474 106.518C299.406 105.012 297.133 102.23 295.656 98.1702C294.671 95.4639 294.338 92.9119 294.657 90.5141C294.965 88.0863 295.884 85.9809 297.415 84.1979C298.934 82.3848 300.972 81.0131 303.528 80.0828C306.686 78.9337 309.634 78.848 312.374 79.826C315.133 80.7629 317.248 82.5981 318.719 85.3316L313.126 87.3673C312.268 85.9432 311.118 84.9826 309.677 84.4854C308.236 83.9883 306.703 84.0352 305.08 84.6262C302.975 85.3923 301.551 86.813 300.808 88.8883C300.065 90.9636 300.169 93.3093 301.121 95.9254C302.139 98.7219 303.574 100.652 305.425 101.715C307.265 102.748 309.343 102.843 311.659 102C313.312 101.398 314.519 100.363 315.279 98.8944C316.068 97.4151 316.213 95.8471 315.712 94.1905L321.395 92.122C322.038 94.1695 322.128 96.1461 321.664 98.0518C321.188 99.9274 320.202 101.615 318.704 103.113C317.206 104.612 315.285 105.788 312.939 106.642ZM339.691 96.2921C337.796 96.9816 336.2 97.2732 334.901 97.167C333.632 97.0498 332.528 96.4473 331.587 95.3595C330.676 94.2607 329.794 92.5386 328.94 90.1931L324.59 78.2402L320.756 79.6356L319.114 75.1251L322.948 73.7297L320.699 67.5503L326.202 65.5474L328.451 71.7268L334.45 69.5433L336.092 74.0539L330.093 76.2373L334.575 88.5511C334.936 89.5434 335.3 90.2623 335.666 90.7078C336.063 91.1424 336.6 91.3555 337.278 91.3471C337.986 91.3277 338.971 91.0882 340.234 90.6286C341.197 90.2783 341.778 90.0499 341.977 89.9432L343.602 94.4086C342.137 95.2484 340.833 95.8762 339.691 96.2921ZM358.556 90.0385C356.091 90.936 353.813 91.3221 351.724 91.197C349.636 91.0718 347.874 90.4873 346.438 89.4434C345.032 88.3885 344.082 86.9466 343.586 85.1177L349.225 83.0656C349.216 83.1367 349.273 83.3376 349.393 83.6684C349.853 84.9313 350.821 85.7198 352.297 86.0338C353.763 86.3177 355.473 86.1039 357.427 85.3925C358.66 84.9438 359.548 84.2969 360.092 83.452C360.625 82.577 360.727 81.6884 360.399 80.7863C360.114 80.0045 359.427 79.4716 358.336 79.1876C357.215 78.9145 355.39 78.8125 352.861 78.8816C349.711 78.8361 347.609 78.767 346.554 78.6743C345.113 78.5517 343.933 78.1638 343.014 77.5107C342.125 76.8466 341.44 75.853 340.959 74.5299C340.433 73.0866 340.4 71.6854 340.859 70.3265C341.307 68.9376 342.179 67.6838 343.474 66.5652C344.759 65.4166 346.364 64.492 348.288 63.7916C351.085 62.7737 353.641 62.5925 355.957 63.248C358.303 63.8925 360.021 65.2932 361.113 67.4499L355.655 69.4364C355.091 68.4496 354.331 67.8579 353.374 67.6613C352.406 67.4347 351.141 67.606 349.577 68.1751C348.314 68.6348 347.379 69.2474 346.773 70.0131C346.185 70.7378 346.028 71.476 346.302 72.2277C346.564 72.9494 347.195 73.4181 348.193 73.6338C349.149 73.8304 350.929 73.9488 353.532 73.989C356.408 74.0319 358.578 74.1447 360.04 74.3275C361.574 74.5184 362.811 74.9705 363.752 75.6838C364.693 76.3971 365.409 77.4303 365.902 78.7834C366.537 80.5275 366.581 82.146 366.034 83.6389C365.466 85.0716 364.529 86.3323 363.222 87.4208C361.946 88.4983 360.391 89.3709 358.556 90.0385Z" fill="black"/>
</svg>
