<svg width="662" height="301" viewBox="0 0 662 301" fill="none" xmlns="http://www.w3.org/2000/svg">
<g clip-path="url(#clip0_36_2)">
<path d="M458.765 210.536H387.497V233.359H458.765V210.536Z" fill="black"/>
<path d="M418.919 175.562H389.771V197.078H418.919V175.562Z" fill="black"/>
<path d="M458.765 134.514H387.497V156.03H458.765V134.514Z" fill="black"/>
<path d="M653.786 157.506C649.701 149.448 643.888 143.205 636.432 138.691C629.019 134.303 620.426 132.109 610.654 132.109C600.882 132.109 592.416 134.303 584.918 138.606C577.463 142.952 571.692 149.153 567.564 157.169C563.437 165.1 561.373 174.339 561.373 184.886C561.373 195.433 563.394 203.786 567.522 211.506C571.608 219.227 577.379 225.175 584.876 229.436C592.374 233.739 600.966 235.891 610.654 235.891C620.342 235.891 629.061 233.781 636.475 229.563C643.93 225.344 649.701 219.395 653.828 211.717C657.872 203.955 659.894 195.095 659.894 185.139C659.894 175.183 657.83 165.522 653.744 157.464L653.786 157.506ZM591.026 168.897C592.963 164.552 595.617 161.219 598.987 158.898C602.356 156.578 606.189 155.397 610.486 155.397C613.308 155.397 615.919 155.945 618.362 156.916L588.836 191.763C588.372 189.316 588.162 186.742 588.162 184C588.162 178.263 589.13 173.242 591.068 168.897H591.026ZM630.156 199.061C628.177 203.448 625.481 206.781 622.069 209.102C618.657 211.422 614.866 212.603 610.654 212.603C607.748 212.603 605.052 212.013 602.567 210.916L632.431 175.689C632.894 178.178 633.147 180.794 633.147 183.62C633.147 189.527 632.136 194.673 630.156 199.061Z" stroke="black" stroke-width="3" stroke-miterlimit="10"/>
<path d="M327.305 210.536L374.523 165.142L347.187 165.058L299.084 210.536H299L299.042 210.578L299 210.62H299.084L311.721 233.359H370.311L356.874 210.536H327.305Z" fill="black"/>
<path d="M299 134.514L312.479 156.03H374.523L360.918 134.514H299Z" fill="black"/>
<path d="M485.681 149.997C485.934 149.997 486.102 149.87 486.228 149.659C486.355 149.448 486.397 149.111 486.397 148.647V147.634H484.881V148.731C484.881 149.575 485.133 149.997 485.639 149.997H485.681Z" fill="black"/>
<path d="M484.08 191.003C484.796 191.003 485.302 190.834 485.681 190.497C486.06 190.159 486.228 189.653 486.228 189.02V188.177H481.848V188.936C481.848 189.611 482.016 190.117 482.395 190.455C482.775 190.792 483.322 191.003 484.038 191.003H484.08Z" fill="black"/>
<path d="M482.564 150.334C482.817 150.334 483.027 150.208 483.196 149.955C483.364 149.702 483.448 149.364 483.448 148.9V147.634H481.764V148.9C481.764 149.406 481.848 149.786 481.974 149.997C482.101 150.208 482.311 150.334 482.606 150.334H482.564Z" fill="black"/>
<path d="M485.386 210.705C486.06 210.705 486.439 210.283 486.439 209.439V208.68H484.459V209.439C484.459 210.283 484.796 210.705 485.428 210.705H485.386Z" fill="black"/>
<path d="M485.344 157.422C484.965 157.253 484.544 157.169 484.08 157.169C483.617 157.169 483.196 157.253 482.817 157.422C482.438 157.591 482.185 157.802 481.974 158.097C481.806 158.392 481.679 158.687 481.679 159.067C481.679 159.447 481.764 159.742 481.974 160.037C482.185 160.333 482.438 160.544 482.817 160.712C483.196 160.881 483.617 160.966 484.08 160.966C484.544 160.966 484.965 160.881 485.344 160.712C485.681 160.544 485.976 160.333 486.144 160.037C486.313 159.742 486.439 159.447 486.439 159.067C486.439 158.687 486.355 158.392 486.144 158.097C485.934 157.802 485.681 157.591 485.302 157.422H485.344Z" fill="black"/>
<path d="M534.078 196.403C545.114 190.919 550.632 181.511 550.632 168.18C550.632 161.261 549.115 155.27 546.125 150.208C543.134 145.145 538.922 141.264 533.446 138.564C527.971 135.864 521.484 134.514 513.986 134.514H471.402V233.359H498.191V183.241H498.696L501.097 187.923L508.174 200.706L526.117 233.359H554.802L534.078 196.403ZM479.995 148.9L481.595 147.634H479.995V145.398H488.208V148.731C488.208 149.87 488.04 150.714 487.661 151.305C487.282 151.895 486.776 152.191 486.06 152.191C485.597 152.191 485.218 152.064 484.881 151.769C484.586 151.516 484.375 151.094 484.249 150.587C484.122 151.22 483.912 151.684 483.575 152.022C483.238 152.359 482.775 152.528 482.269 152.528C481.553 152.528 481.005 152.275 480.584 151.769C480.205 151.262 479.995 150.545 479.995 149.659V148.816V148.9ZM488.208 217.666L484.881 219.269V219.353L488.208 220.956V223.445L482.564 220.45H479.995V218.214H482.564L488.208 215.219V217.708V217.666ZM488.208 209.987C488.208 210.62 488.082 211.169 487.871 211.591C487.661 212.055 487.324 212.392 486.902 212.645C486.481 212.898 485.976 213.025 485.428 213.025C484.333 213.025 483.533 212.561 483.069 211.633L479.995 213.362V210.958L482.732 209.439L483.785 208.848L484.165 208.637H479.995V206.402H488.208V209.945V209.987ZM488.208 201.212L479.995 204.039V201.592L481.595 201.128V199.609L483.364 199.272V200.622L486.102 199.82L479.995 198.006V195.559L488.208 198.217V201.255V201.212ZM488.208 188.809C488.208 190.328 487.871 191.425 487.197 192.142C486.523 192.859 485.512 193.239 484.122 193.239C483.196 193.239 482.438 193.07 481.806 192.775C481.174 192.437 480.711 192.016 480.416 191.467C480.121 190.919 479.952 190.244 479.995 189.527L481.679 188.219H479.995V185.983H488.208V188.809ZM488.208 177.798L485.007 180.077L483.659 181.005C484.544 180.962 485.344 180.878 486.102 180.878H488.208V183.114H479.995V181.258L483.238 179.022L484.586 178.136C483.996 178.136 483.238 178.22 482.395 178.22H479.995V175.984H488.208V177.798ZM488.208 168.18H483.322C482.817 168.18 482.438 168.306 482.143 168.517C481.848 168.728 481.722 169.066 481.722 169.53C481.722 169.994 481.848 170.289 482.143 170.542C482.438 170.753 482.817 170.88 483.322 170.88H488.208V173.158H483.238C482.438 173.158 481.806 172.989 481.3 172.694C480.795 172.398 480.416 171.977 480.163 171.428C479.91 170.922 479.784 170.289 479.784 169.572C479.784 168.433 480.079 167.547 480.668 166.914C481.258 166.281 482.143 165.986 483.238 165.986H488.208V168.264V168.18ZM487.871 161.177C487.492 161.809 486.987 162.273 486.313 162.611C485.639 162.948 484.881 163.117 483.996 163.117C483.112 163.117 482.438 162.948 481.764 162.611C481.132 162.273 480.626 161.767 480.289 161.177C479.952 160.586 479.784 159.827 479.784 159.025C479.784 158.223 479.952 157.506 480.332 156.873C480.668 156.241 481.174 155.777 481.806 155.439C482.438 155.102 483.196 154.933 484.038 154.933C484.923 154.933 485.681 155.102 486.355 155.439C487.029 155.777 487.534 156.283 487.913 156.873C488.292 157.464 488.461 158.223 488.461 159.025C488.461 159.827 488.292 160.544 487.913 161.177H487.871ZM507.542 179.823H498.191V155.903H507.542C517.651 155.903 522.705 160.08 522.705 168.433C522.705 176.027 517.651 179.823 507.542 179.823Z" fill="black"/>
</g>
<path d="M137.73 31.875C139.85 34.26 139.32 39.03 139.32 41.945C138.525 58.905 131.37 75.6 125.805 91.5C119.975 107.93 114.41 124.625 108.05 140.79C101.955 156.16 96.125 173.915 85.26 186.635C80.49 192.2 74.66 195.91 68.565 189.02C66.71 186.9 65.385 184.25 64.59 181.335C63.265 177.625 64.06 173.915 63 170.47C60.35 171 58.495 175.505 57.17 177.625C54.785 181.6 52.4 185.84 49.75 189.815C45.245 197.5 40.475 205.185 35.44 212.605C31.465 218.965 27.225 225.06 22.72 231.42C20.335 234.865 16.095 240.96 11.06 238.84C0.725 234.865 2.58 223.47 3.64 214.725C5.495 198.56 10 182.66 14.505 167.29C18.48 153.245 22.72 138.935 28.285 125.42C34.115 111.905 39.68 97.86 44.98 83.815C45.775 81.96 46.04 79.045 48.69 79.31C50.81 79.84 51.34 82.49 51.605 84.08C52.135 88.32 50.545 92.03 49.22 95.74C43.655 111.64 38.355 127.275 33.055 143.175C28.02 158.28 23.25 173.12 19.275 188.49C17.155 195.645 15.3 203.065 13.445 210.22C12.12 215.785 10 222.41 12.385 227.71C19.01 222.94 23.25 212.34 27.225 205.45C32.79 196.44 37.825 187.165 43.39 178.155C48.16 171.265 53.195 161.46 60.615 156.955C63.265 155.63 66.445 154.835 68.83 156.955C72.01 159.605 70.42 165.965 70.155 169.675C70.685 168.35 70.95 167.29 71.48 165.965C72.54 167.555 71.745 172.06 71.745 173.915C71.48 176.3 71.215 179.48 72.275 181.865C74.66 187.165 78.635 180.805 80.225 178.155C86.85 167.025 91.09 153.775 95.33 141.85C101.69 124.095 107.785 106.605 113.88 88.85C116.795 80.105 119.71 71.36 122.625 62.615C124.745 55.195 127.925 47.775 129.25 40.09C129.78 38.235 130.045 36.38 129.78 34.525C129.515 33.465 128.72 32.14 128.985 31.08C128.985 30.02 130.045 29.225 131.37 28.96C132.96 28.96 136.67 30.55 137.73 31.875ZM30.67 139.73C30.405 140.26 30.935 139.73 30.67 139.73V139.73ZM30.14 141.055C29.875 141.32 30.405 141.32 30.14 141.055V141.055ZM27.49 150.86C27.49 151.125 28.02 150.86 27.49 150.86V150.86ZM27.225 151.92C26.96 152.45 27.49 152.185 27.225 151.92V151.92ZM26.695 153.245C26.695 153.51 26.695 153.775 26.695 154.04C26.695 154.04 27.225 153.245 26.695 153.245ZM26.43 154.57C26.165 154.835 26.165 155.1 26.43 155.1C26.695 154.835 26.695 154.835 26.43 154.57ZM25.635 157.485C25.37 157.75 25.9 158.015 25.635 157.485V157.485ZM25.105 158.81C24.84 159.075 24.84 159.34 25.105 159.605C25.37 159.34 25.37 159.075 25.105 158.81ZM24.045 161.99C23.78 163.58 24.31 161.195 24.045 161.99V161.99ZM24.045 162.52C23.25 162.785 23.78 163.845 23.78 163.845C24.045 163.58 24.31 163.05 24.045 162.52ZM23.515 164.375C23.25 164.64 22.985 164.905 23.515 165.17C23.515 164.905 23.515 164.64 23.515 164.375ZM22.985 165.7C22.72 165.965 22.72 165.965 22.985 166.23C23.25 166.495 22.985 165.7 22.985 165.7ZM22.455 167.555C22.19 167.82 22.455 167.82 22.455 168.085C22.455 168.085 22.985 167.29 22.455 167.555ZM22.19 168.615C21.925 168.88 21.925 169.145 22.19 169.41C22.455 169.145 22.455 168.88 22.19 168.615ZM21.395 170.735C21.395 171.265 21.395 171.265 21.925 170.735C21.925 170.205 21.395 170.47 21.395 170.735ZM21.395 171.265C20.6 171.265 21.395 172.325 21.395 172.325C21.66 172.06 21.66 171.53 21.395 171.265ZM20.6 173.385C20.335 173.65 19.805 174.975 20.335 175.24C20.865 175.505 21.395 172.855 20.6 173.385ZM20.07 176.3C20.07 175.24 19.805 176.565 19.805 176.565C19.805 177.36 20.335 176.83 20.07 176.3ZM19.54 177.625C19.275 177.89 19.275 178.155 19.54 178.155C19.805 178.155 19.805 177.89 19.54 177.625ZM18.745 177.36C18.48 177.36 18.48 177.625 18.745 177.89C19.01 177.625 19.01 177.625 18.745 177.36ZM19.01 179.215C19.01 180.01 17.95 181.07 18.745 181.6C19.54 182.66 19.01 177.625 19.01 179.215ZM18.215 178.95C17.95 179.215 17.95 179.48 18.215 179.745C18.48 179.48 18.48 178.95 18.215 178.95ZM17.42 183.455C16.89 183.985 16.36 187.165 16.89 188.225C17.42 187.43 18.745 182.66 18.215 182.395C17.95 182.395 17.685 182.925 17.42 183.455ZM15.565 189.285C15.035 191.14 15.3 190.61 15.83 191.935C16.36 191.935 16.89 189.285 16.625 188.755C16.36 188.755 15.565 189.02 15.565 189.285ZM10.53 221.35C10.795 221.615 11.325 220.555 11.325 220.555C11.59 214.99 12.385 209.69 13.71 204.39C14.505 200.68 15.83 195.91 15.83 192.2C12.915 193.525 13.445 198.56 12.915 201.21C12.385 203.065 11.855 204.655 11.59 206.245C11.59 207.305 11.59 209.955 11.325 210.485C10.795 211.28 10.795 212.605 10.795 213.93C11.06 213.93 11.06 213.93 11.06 213.93C11.06 213.93 11.06 213.93 10.795 213.93C11.06 215.255 11.06 216.58 10.795 217.905C10.53 218.7 10 216.58 10 218.965C10 221.35 10.265 219.495 10.53 219.76C11.06 220.555 10 220.82 10.53 221.35ZM58.76 165.17C58.23 165.7 57.7 166.23 57.7 166.76C58.23 166.76 59.29 165.965 58.76 165.17ZM56.64 167.82C56.11 168.085 55.58 168.615 55.58 169.41C56.11 169.41 57.17 168.35 56.64 167.82ZM55.58 169.41C55.315 169.41 55.315 169.675 55.315 169.94C55.58 169.94 55.58 169.675 55.58 169.41ZM55.315 169.94C54.52 170.205 54.255 170.47 54.255 171C55.05 171 55.315 170.47 55.315 169.94ZM54.255 171.265C53.99 171.265 53.99 171.265 53.99 171.53C54.255 171.53 54.255 171.53 54.255 171.265ZM53.99 171.53C53.195 171.795 52.93 172.325 53.195 172.855C53.725 172.59 53.99 172.325 53.99 171.53ZM52.93 172.855C52.665 172.855 52.665 173.12 52.665 173.385C52.93 173.385 52.93 173.12 52.93 172.855ZM52.665 173.385C51.605 173.915 51.075 174.71 51.075 175.77C51.605 175.505 52.665 173.915 52.665 173.385ZM52.135 176.565C51.87 176.83 51.87 176.3 52.135 176.565V176.565ZM50.81 175.77C50.545 175.77 50.545 176.035 50.545 176.3C50.81 176.3 50.81 176.035 50.81 175.77ZM50.545 176.3C50.015 176.3 50.015 176.83 50.015 177.095C50.545 177.095 50.545 176.565 50.545 176.3ZM50.015 177.095C49.75 177.095 49.75 177.36 49.75 177.625C50.015 177.625 50.015 177.36 50.015 177.095ZM49.75 177.625C49.22 177.625 49.22 178.155 49.22 178.42C49.75 178.42 49.75 177.89 49.75 177.625ZM48.425 179.745C48.16 179.745 47.895 179.745 47.895 180.01C48.16 180.01 48.425 180.01 48.425 179.745ZM47.1 180.805C47.1 181.07 48.16 181.865 47.895 180.01C47.63 180.275 47.365 180.54 47.1 180.805ZM47.1 184.25C46.57 184.515 46.835 183.985 47.1 184.25V184.25ZM46.305 184.78C46.305 185.045 46.305 185.045 46.305 185.045C46.305 185.045 46.57 184.78 46.305 184.78ZM46.04 183.455C45.775 183.985 46.305 182.925 46.04 183.455V183.455ZM45.775 183.455C45.245 183.72 45.51 183.985 45.51 184.25C46.04 184.25 45.775 183.985 45.775 183.455ZM45.245 184.515C44.98 184.515 44.98 184.515 44.98 184.78C45.245 184.78 45.245 184.78 45.245 184.515ZM44.98 184.78C44.45 184.78 44.45 185.31 44.45 185.575C44.98 185.575 44.98 185.045 44.98 184.78ZM26.96 220.555C26.695 220.82 27.225 220.29 26.96 220.555V220.555ZM28.02 218.435C28.02 218.17 28.285 217.905 28.02 218.435V218.435ZM29.08 217.11C28.285 217.64 29.345 216.845 29.08 217.11V217.11ZM29.345 216.315C29.08 216.05 29.61 216.05 29.345 216.315V216.315ZM30.67 214.195C30.405 213.93 30.67 213.665 30.67 214.195V214.195ZM31.2 212.87C31.73 212.87 31.73 212.605 31.73 212.075C31.2 212.34 31.2 212.605 31.2 212.87ZM31.995 212.075C31.465 212.605 32.26 211.545 31.995 212.075V212.075ZM32.79 210.75C33.055 210.75 33.055 210.485 33.055 209.955C32.525 210.22 32.525 210.485 32.79 210.75ZM33.055 209.955C33.585 209.69 33.85 209.425 33.85 208.63C33.32 208.895 33.055 209.425 33.055 209.955ZM33.85 208.63C34.38 208.63 34.38 208.1 34.38 207.835C33.85 207.835 33.85 208.365 33.85 208.63ZM34.91 206.775C34.645 207.04 35.175 205.98 34.91 206.775V206.775ZM35.175 206.51C35.705 206.51 35.44 205.98 35.44 205.715C34.91 205.715 35.175 206.245 35.175 206.51ZM35.705 205.715C36.235 205.715 35.97 205.185 35.97 204.92C35.44 204.92 35.705 205.45 35.705 205.715ZM35.97 204.92C36.235 204.92 36.5 204.655 36.5 204.39C36.235 204.39 35.97 204.655 35.97 204.92ZM36.5 204.39C37.03 204.39 36.765 203.86 36.765 203.595C36.235 203.595 36.5 204.125 36.5 204.39ZM36.765 203.595C37.56 203.33 37.825 203.065 37.56 202.27C37.03 202.535 36.765 203.065 36.765 203.595ZM37.825 202.27C38.355 202.27 38.09 201.74 38.09 201.475C37.56 201.475 37.825 202.005 37.825 202.27ZM38.09 201.475C39.15 200.945 39.415 200.415 39.415 199.355C38.62 199.885 38.355 200.415 38.09 201.475ZM41.27 196.705C41.535 196.44 41.535 196.175 41.535 195.91C40.74 196.175 39.415 198.295 39.415 199.355C40.21 198.825 40.74 197.5 41.27 196.705ZM42.595 198.03C42.33 197.5 42.86 197.5 42.595 198.03V198.03ZM42.33 195.38C42.595 194.85 42.86 194.32 42.86 193.79C42.33 193.79 41.535 195.38 41.535 195.91C41.8 195.645 42.065 195.38 42.33 195.38ZM43.125 197.235C42.595 196.705 43.39 196.705 43.125 197.235V197.235ZM43.92 195.91C43.655 195.38 44.185 195.38 43.92 195.91V195.91ZM45.245 193.79C44.98 193.26 45.245 193.26 45.245 193.79V193.79ZM46.04 192.465C45.245 192.73 46.305 192.2 46.04 192.465V192.465ZM47.1 190.345C47.1 190.08 47.895 190.345 47.1 190.345V190.345ZM47.63 189.815C47.895 189.815 47.895 189.55 47.895 189.02C47.365 189.285 47.63 189.55 47.63 189.815ZM49.22 186.635C49.22 186.9 49.75 186.105 49.22 186.635V186.635ZM49.75 186.37C50.28 186.37 50.015 186.105 50.015 185.575C49.485 185.84 49.75 186.105 49.75 186.37ZM50.015 185.575C50.28 185.575 50.545 185.575 50.545 185.31C50.28 185.31 50.015 185.31 50.015 185.575ZM50.545 185.31C51.075 185.045 50.81 184.78 50.81 184.515C50.28 184.515 50.545 184.78 50.545 185.31ZM51.075 184.25C51.075 184.25 51.34 184.25 51.34 183.985C51.075 183.985 51.075 184.25 51.075 184.25ZM51.34 183.985C51.87 183.985 51.87 183.455 51.87 183.19C51.34 183.19 51.34 183.72 51.34 183.985ZM51.87 183.19C52.135 183.19 52.135 182.925 52.135 182.66C51.87 182.66 51.87 182.925 51.87 183.19ZM52.135 182.66C52.665 182.66 52.665 182.13 52.665 181.865C52.135 181.865 52.135 182.395 52.135 182.66ZM52.665 181.865C53.195 181.6 53.46 181.07 53.46 180.54C52.93 180.805 52.665 181.07 52.665 181.865ZM53.46 180.54C53.99 180.275 54.52 180.01 54.255 179.215C53.725 179.48 53.46 180.01 53.46 180.54ZM56.375 176.565C56.64 176.3 54.255 177.89 54.255 179.215C55.58 178.685 55.845 177.625 56.375 176.565ZM57.965 174.71C58.495 174.445 58.76 173.915 58.495 173.385C57.7 173.65 56.375 175.24 56.375 176.3C57.17 176.035 57.7 175.505 57.965 174.71ZM58.495 173.385C58.76 173.385 59.025 173.12 59.025 172.855C58.76 172.855 58.76 173.12 58.495 173.385ZM59.025 172.855C59.555 172.59 59.82 172.325 59.82 171.53C59.29 171.795 59.025 172.325 59.025 172.855ZM59.82 171.53C60.085 171.53 60.35 171.53 60.35 171.265C60.085 171.265 59.82 171.265 59.82 171.53ZM61.41 169.94C61.94 169.675 60.35 169.94 60.35 171.265C60.88 171 61.145 170.47 61.41 169.94ZM62.47 168.615C62.47 168.085 62.47 168.085 61.94 168.615C61.94 168.88 62.47 168.88 62.47 168.615ZM62.735 168.085C61.94 168.35 63 167.82 62.735 168.085V168.085ZM61.94 167.555C62.735 166.76 63 165.965 62.735 165.17C61.145 165.17 57.965 170.47 57.17 171.795C55.315 173.915 53.99 176.035 52.4 178.155C50.28 181.07 48.69 183.985 46.835 186.9C45.775 188.755 42.86 191.405 42.86 193.79C44.185 193.26 45.775 190.61 46.57 189.285C48.16 186.9 49.485 184.515 51.075 182.13C54.52 177.095 58.23 172.06 61.94 167.555ZM14.77 193.525C15.565 194.055 14.77 195.115 14.77 194.85C14.77 194.32 14.505 193.79 14.77 193.525ZM11.59 207.835C11.855 207.305 11.855 207.305 12.12 207.835C12.12 208.1 11.59 208.365 11.59 207.835ZM166.302 137.875C166.302 137.875 166.567 137.875 166.302 137.875V137.875ZM166.037 137.875C166.037 138.14 166.037 137.875 166.037 137.875V137.875ZM186.442 58.375V58.11C186.442 58.375 186.442 58.375 186.442 58.375ZM209.762 143.97C207.907 146.09 205.522 148.21 203.402 150.065C202.607 150.595 200.222 151.92 200.222 152.98C202.077 152.98 203.667 150.33 205.522 149.535C205.787 149.535 207.377 149.005 207.377 149.27C208.967 150.33 193.067 162.52 190.682 163.315C181.937 165.435 172.397 160.665 167.627 153.51C164.977 149.535 164.447 145.56 162.857 141.055C162.062 139.2 162.857 139.465 161.267 138.935C159.942 138.67 156.497 141.32 155.437 141.85C148.547 146.355 142.982 153.245 138.742 160.4C136.357 164.11 134.502 168.085 132.912 172.06C132.382 174.18 131.852 177.625 129.202 178.155C127.347 178.685 123.902 176.83 123.372 174.975C122.842 173.385 124.432 170.205 124.697 168.35C125.227 163.315 126.022 158.545 126.552 153.775C126.817 151.39 128.937 145.03 126.287 144.5C128.937 142.91 128.937 138.67 129.202 136.02C129.997 132.045 130.792 128.335 131.587 124.625C133.177 116.41 135.032 108.46 137.152 100.51C140.597 85.67 144.837 71.36 150.402 57.315C155.437 43.535 162.062 30.55 170.807 18.89C175.047 13.59 179.552 8.55499 184.852 4.31499C187.237 2.45999 189.887 0.0749924 193.067 0.0749924C194.657 0.0749924 200.752 1.92998 199.427 2.98999C214.267 3.78499 208.437 26.31 206.052 34.525C201.547 49.63 193.067 63.41 184.587 76.395C174.782 91.235 164.182 105.28 153.052 119.06C150.402 122.24 147.487 125.42 144.837 128.6C142.452 131.25 139.007 133.635 137.947 136.815C137.417 138.405 135.032 151.655 135.827 151.92C136.622 152.185 145.367 141.585 146.692 140.525C150.932 137.345 156.497 134.165 161.797 136.02C166.037 137.345 168.687 139.995 170.542 144.235C172.397 148.475 172.132 154.04 175.842 157.485C182.732 164.375 197.572 151.92 203.137 147.415C204.727 146.09 208.437 141.85 210.292 141.585C212.677 141.055 210.822 142.91 209.762 143.97ZM154.907 112.17C154.907 112.435 155.437 111.375 154.907 112.17V112.17ZM155.437 111.905H155.702C155.702 111.64 155.702 111.64 155.702 111.64C155.702 111.64 155.702 111.905 155.437 111.905ZM155.437 111.905C155.437 112.17 155.437 111.905 155.437 111.905V111.905ZM156.497 110.315C157.292 110.05 157.557 109.52 157.557 108.99C156.762 109.255 156.497 109.52 156.497 110.315ZM157.557 108.99C157.822 108.99 157.822 108.725 157.822 108.46C157.557 108.46 157.557 108.725 157.557 108.99ZM157.822 108.46C158.617 108.195 158.882 107.93 158.617 107.4C158.087 107.4 157.822 107.93 157.822 108.46ZM159.147 107.135C158.617 107.665 159.147 106.87 159.147 107.135V107.135ZM159.677 106.075C159.677 106.075 159.147 106.34 159.412 106.34C159.677 106.075 159.677 106.075 159.677 106.075ZM159.942 105.81C159.412 106.605 160.207 105.545 159.942 105.81V105.81ZM160.472 104.485C160.472 104.75 161.002 103.69 160.472 104.485V104.485ZM161.002 104.22C161.532 104.22 161.267 103.69 161.267 103.425C160.737 103.425 161.002 103.955 161.002 104.22ZM161.267 103.425C161.532 103.425 161.797 103.16 161.797 102.895C161.532 102.895 161.267 103.16 161.267 103.425ZM162.592 102.1C162.857 101.835 162.857 101.57 163.122 101.305C162.327 101.57 161.797 102.365 161.797 102.895C162.062 102.895 162.327 102.63 162.592 102.1ZM163.122 101.305C163.652 101.04 163.917 100.775 163.917 99.98C163.122 100.245 162.857 100.51 163.122 101.305ZM163.917 99.98C164.447 99.98 164.182 99.45 164.182 99.185C163.652 99.185 163.917 99.715 163.917 99.98ZM164.182 99.185C164.447 99.185 164.712 98.92 164.712 98.655C164.447 98.655 164.447 98.92 164.182 99.185ZM167.097 96.27C167.627 95.74 164.712 96.8 164.712 98.655C165.772 98.92 166.567 97.065 167.097 96.27ZM167.627 95.475C167.097 96.27 167.892 95.21 167.627 95.475V95.475ZM188.297 10.145C172.927 22.6 163.387 44.065 156.762 62.085C152.787 73.215 149.607 84.345 146.692 95.74C145.367 101.57 143.777 107.4 142.717 113.23C142.187 114.82 140.067 127.805 140.067 127.805C143.247 127.275 147.487 119.59 149.342 117.47C152.522 113.495 155.437 109.52 158.352 105.28C164.712 96.27 170.542 86.995 175.842 77.455C179.287 71.36 182.997 65 186.442 58.375C186.707 58.375 186.972 58.375 186.442 58.11C193.332 45.39 199.162 31.61 200.487 17.83C200.487 18.89 200.752 19.95 200.752 21.01C201.017 17.035 200.752 13.325 200.222 9.34998C203.667 17.3 201.282 25.515 198.897 33.2C196.512 41.15 193.332 48.57 189.622 55.725C185.647 63.145 181.937 70.565 177.167 77.455C175.047 80.635 173.192 84.08 171.337 87.26C170.807 88.055 170.277 89.115 169.747 89.91C168.952 91.5 168.687 93.885 167.892 95.21C173.722 85.935 179.817 76.925 184.852 67.12C187.237 61.82 189.887 56.785 192.272 51.485C193.597 48.57 194.922 45.92 196.247 43.27C196.777 41.945 198.367 36.91 199.162 38.235C199.692 36.91 200.222 35.85 200.487 34.26C200.487 33.995 199.162 31.08 200.752 33.2C202.607 28.43 203.402 23.395 203.667 18.36C203.667 13.855 202.607 10.94 200.752 6.96498C199.427 4.31499 199.692 4.04999 196.247 5.10999C193.332 6.16999 190.682 8.02498 188.297 10.145ZM187.502 56.52C187.767 57.05 187.767 56.52 187.502 56.52V56.52ZM200.222 23.13C199.957 22.6 200.487 24.455 200.222 23.13V23.13ZM158.087 52.81C157.822 53.075 158.352 53.075 158.087 52.81V52.81ZM157.557 53.605C157.557 53.87 157.557 54.135 157.557 54.135C157.557 54.4 158.087 53.34 157.557 53.605ZM156.497 55.99C156.497 56.52 156.762 56.52 157.027 55.99C157.027 55.725 156.762 55.725 156.497 55.99ZM155.702 58.11C155.702 58.64 155.702 58.64 156.232 58.375C156.232 57.845 155.702 57.845 155.702 58.11ZM155.437 58.905C155.172 59.435 155.702 59.435 155.702 58.905C155.702 58.375 155.702 58.375 155.437 58.905ZM155.172 59.965C154.907 60.23 154.907 60.495 155.172 60.495C155.437 60.23 155.437 60.23 155.172 59.965ZM154.377 61.555C154.377 62.085 154.642 62.085 154.907 61.555C154.907 61.29 154.642 61.29 154.377 61.555ZM154.377 62.085C153.847 62.085 154.112 62.615 154.112 62.88C154.642 62.88 154.377 62.35 154.377 62.085ZM154.112 62.88C153.582 63.145 153.582 63.675 153.582 64.205C154.112 63.94 154.112 63.41 154.112 62.88ZM153.582 64.205C153.052 64.47 153.052 65 153.317 65.53C153.582 65 153.847 64.735 153.582 64.205ZM153.052 65.53C152.787 65.795 152.522 66.06 152.787 66.59C153.317 66.325 153.317 66.06 153.052 65.53ZM152.787 66.59C152.257 67.12 152.257 67.385 152.257 67.915C152.787 67.65 152.787 67.12 152.787 66.59ZM151.992 68.18C151.462 68.975 151.462 69.77 151.462 70.565C152.257 70.565 152.522 67.385 151.992 68.18ZM151.197 70.565C150.932 71.095 150.667 71.89 150.667 72.685C151.727 72.685 151.197 70.565 151.197 70.565ZM150.402 72.685C150.137 73.48 149.872 74.275 149.872 75.335C150.932 74.805 150.402 73.215 150.402 72.685ZM149.342 75.335C149.077 76.395 148.812 77.19 148.812 78.25C150.137 77.72 149.607 75.07 149.342 75.335ZM141.392 102.63C141.127 102.895 141.127 103.16 141.392 103.16C141.657 103.16 141.657 102.895 141.392 102.63ZM132.912 142.91C132.647 143.175 132.647 143.44 132.912 143.44C132.912 143.44 133.177 142.645 132.912 142.91ZM134.502 141.585C134.767 140.525 134.767 137.345 135.297 136.55C137.417 133.37 137.417 126.48 138.477 122.77C139.272 118.795 140.332 114.555 141.392 110.58C142.717 105.28 143.777 99.45 145.102 94.15C145.897 91.765 146.162 89.645 146.692 87.525C147.222 84.875 149.342 80.635 148.812 78.25C147.222 79.045 146.692 85.405 146.162 86.995C145.367 89.91 144.837 92.825 144.042 95.74C143.512 98.125 143.247 101.04 142.187 103.16C142.452 102.63 141.392 105.015 141.657 104.75C141.392 105.015 140.862 104.22 140.862 104.485C140.332 106.075 141.127 106.34 141.127 106.605C141.392 107.135 141.127 107.665 140.597 107.93C140.597 107.665 140.332 107.4 140.332 107.4C140.332 107.4 137.152 120.12 136.887 121.18C136.357 122.77 133.177 135.755 134.237 136.02C134.502 136.285 134.502 135.49 135.032 135.49C133.972 135.225 133.707 142.91 133.707 144.5C133.177 146.62 132.912 148.475 132.647 150.595C132.382 151.39 132.117 157.75 131.587 158.015C133.442 156.69 133.177 149.27 133.707 147.15C133.972 145.295 134.237 143.44 134.502 141.585ZM135.562 156.69C135.297 156.955 135.827 156.16 135.562 156.69V156.69ZM136.887 154.835C136.622 155.365 137.152 154.57 136.887 154.835V154.835ZM138.212 152.715C137.682 152.45 138.212 152.45 138.212 152.715V152.715ZM139.007 151.92C138.477 151.655 139.272 151.655 139.007 151.92V151.92ZM141.392 148.74C141.392 148.74 141.657 148.475 141.657 148.21C141.392 148.21 141.392 148.475 141.392 148.74ZM142.982 146.62C142.717 146.885 143.512 146.09 142.982 146.62V146.62ZM143.512 146.62C143.512 146.355 143.777 146.355 143.777 146.09C143.512 146.09 143.512 146.355 143.512 146.62ZM143.777 146.09C144.042 146.09 144.307 145.825 144.307 145.56C144.042 145.56 143.777 145.825 143.777 146.09ZM144.307 145.56C144.572 145.56 144.572 145.56 144.572 145.295C144.307 145.295 144.307 145.295 144.307 145.56ZM144.572 145.295C144.837 145.295 145.102 145.03 145.102 144.765C144.837 144.765 144.572 145.03 144.572 145.295ZM145.102 144.765C145.367 144.765 145.367 144.765 145.367 144.5C145.367 144.5 145.102 144.5 145.102 144.765ZM145.632 144.235C145.897 144.235 145.897 144.235 145.897 143.97C145.632 143.97 145.632 144.235 145.632 144.235ZM145.897 143.97C146.162 143.97 146.427 143.705 146.427 143.44C146.162 143.44 145.897 143.705 145.897 143.97ZM146.427 143.44C146.692 143.44 146.692 142.91 146.427 143.44V143.44ZM148.812 141.585C148.812 142.38 148.812 141.32 148.812 141.585V141.585ZM148.547 141.85C148.282 142.38 148.282 141.85 148.547 141.85V141.85ZM147.222 145.295C147.487 145.295 147.487 145.03 147.752 144.765C147.487 144.765 147.222 145.03 147.222 145.295ZM147.752 144.765C148.017 144.765 148.017 144.765 148.017 144.5C147.752 144.5 147.752 144.5 147.752 144.765ZM148.017 144.235C148.282 144.235 148.547 144.235 148.547 143.97C148.282 143.97 148.017 144.235 148.017 144.235ZM151.197 139.995C150.932 139.465 151.197 140.26 151.197 139.995V139.995ZM190.682 159.075C190.417 159.605 190.947 158.81 190.682 159.075V159.075ZM192.272 158.28C192.007 158.545 193.067 158.015 192.272 158.28V158.28ZM192.537 158.015C192.802 158.015 193.332 158.28 193.332 157.75C193.067 157.75 192.537 157.485 192.537 158.015ZM193.332 157.485C193.597 157.485 193.597 156.955 193.332 157.485V157.485ZM194.657 156.69C195.717 156.425 196.512 155.895 197.042 155.1C196.247 155.1 194.922 155.895 194.657 156.69ZM197.307 155.1C197.837 155.1 198.102 154.835 198.367 154.305C197.837 154.04 197.307 154.305 197.307 155.1ZM198.367 154.305C199.162 154.305 199.427 154.04 199.692 153.245C199.162 153.245 198.632 153.51 198.367 154.305ZM199.692 153.245C199.957 153.245 200.222 153.245 200.222 152.98C199.957 152.98 199.692 152.98 199.692 153.245ZM210.354 295.55C210.354 295.285 210.619 295.55 210.354 295.55V295.55ZM273.689 161.725C274.749 163.05 270.509 162.52 270.244 162.785C268.124 164.11 268.389 168.35 268.124 170.47C267.329 178.685 264.679 186.635 262.559 194.585C258.849 209.16 254.344 223.47 248.779 237.515C243.479 251.03 236.854 264.015 228.374 275.94C223.339 283.36 213.534 294.755 205.319 297.67C206.379 299.79 197.104 300.585 195.514 300.585C191.539 300.055 188.359 298.2 186.504 294.755C184.649 291.31 183.854 287.07 183.589 283.36C183.589 282.035 183.324 271.17 183.324 271.435C183.059 271.435 183.059 272.23 183.059 272.23C182.264 272.23 186.504 255.8 186.504 253.68C184.384 254.475 183.059 264.81 182.794 267.195C181.734 274.085 181.999 280.975 181.734 288.13C176.964 269.58 185.444 248.38 193.659 231.95C197.899 222.94 202.934 214.725 208.499 206.51C211.414 202.8 214.064 199.09 217.244 195.38C218.834 193.26 220.689 191.405 222.544 189.285C223.604 187.96 225.989 186.105 226.784 184.515C224.664 184.515 220.689 190.08 219.629 191.405C217.509 193.79 215.389 196.175 213.534 198.56C209.824 203.595 205.584 208.1 201.609 213.135C201.874 209.955 204.789 207.04 206.379 204.655C208.764 201.21 211.149 197.765 213.799 194.85C220.424 187.165 227.314 180.01 234.999 173.65C239.239 170.205 243.214 167.025 247.984 164.64C251.694 162.785 256.199 161.99 259.644 159.87C261.499 158.81 261.234 158.81 261.499 156.16C261.499 154.04 262.029 151.655 262.294 149.535C262.824 146.355 263.884 142.645 263.884 139.73C263.354 140.79 257.789 142.645 256.729 143.44C253.019 145.825 249.839 148.74 246.659 151.39C241.359 156.16 234.204 164.11 226.784 165.17C219.099 165.965 215.389 156.955 216.184 150.595C216.714 146.355 218.304 141.32 220.424 137.345C220.954 136.285 221.749 134.165 223.339 133.9C225.724 133.37 229.169 136.815 228.904 138.935C228.904 140.525 221.749 157.485 223.604 158.015C225.724 158.28 232.614 150.86 233.939 149.535C237.119 146.885 240.564 144.235 244.274 141.585C250.104 137.345 256.994 131.78 264.944 132.575C273.159 133.105 273.424 139.2 272.364 145.825C271.569 149.535 271.304 153.51 270.509 157.22C269.714 161.99 270.774 159.34 273.689 161.725ZM207.439 206.245C207.439 205.98 207.174 206.245 207.174 206.245C207.174 206.245 207.174 206.245 207.439 206.245ZM256.199 164.375C255.669 164.375 255.669 164.64 255.934 164.905C256.464 164.905 256.464 164.64 256.199 164.375ZM253.549 165.435C252.489 165.435 254.344 166.23 254.344 165.435C254.079 165.435 253.814 165.435 253.549 165.435ZM252.489 165.7C250.899 165.7 253.019 166.76 253.019 165.7C252.754 165.7 252.754 165.7 252.489 165.7ZM251.959 166.23C251.429 166.23 251.164 165.965 250.899 166.495C251.429 166.495 251.694 166.76 251.959 166.23ZM250.899 166.495C250.634 166.495 250.369 166.495 250.104 167.025C250.634 167.025 250.899 167.025 250.899 166.495ZM250.104 167.025C249.839 167.025 249.309 167.025 249.309 167.29C249.574 167.29 250.104 167.555 250.104 167.025ZM249.309 167.555C249.044 167.555 248.514 167.29 248.514 167.82C248.779 167.82 249.309 168.085 249.309 167.555ZM248.514 167.82C247.984 167.82 247.719 167.82 247.719 168.35C247.984 168.35 248.249 168.35 248.514 167.82ZM247.454 168.35C247.189 168.35 246.924 168.085 246.659 168.615C247.189 168.615 247.454 168.88 247.454 168.35ZM246.659 168.615C246.129 168.615 245.599 168.88 245.599 169.675C246.129 169.675 246.394 169.41 246.659 168.615ZM245.334 169.675C245.069 169.675 244.804 169.41 244.539 169.94C245.069 169.94 245.334 170.205 245.334 169.675ZM244.539 169.94C244.009 169.94 243.479 170.205 243.479 170.735C244.009 171 244.274 170.735 244.539 169.94ZM243.214 170.735C242.949 170.735 242.684 170.735 242.419 171.265C242.949 171.265 243.214 171.265 243.214 170.735ZM242.419 171.265C242.154 171.265 242.154 171.53 242.154 171.795C242.419 171.795 242.419 171.53 242.419 171.265ZM241.889 171.795C241.359 171.53 241.094 172.06 240.829 172.59C241.359 172.59 241.889 172.325 241.889 171.795ZM240.829 172.59C240.034 172.59 239.769 172.855 239.504 173.385C240.034 173.385 240.564 173.12 240.829 172.59ZM240.034 174.975C240.299 174.975 240.299 174.445 240.034 174.975V174.975ZM239.769 175.24C239.504 175.77 239.504 175.24 239.769 175.24V175.24ZM237.384 174.445C236.854 174.71 236.324 175.24 236.059 176.035C236.854 176.035 239.504 174.18 239.504 173.385C238.709 173.385 237.914 173.65 237.384 174.445ZM235.529 176.035C234.734 176.565 234.204 177.095 233.939 177.625C235.264 177.625 236.059 175.505 235.529 176.035ZM233.939 177.625C233.674 177.625 233.409 177.89 233.409 178.155C233.674 178.155 233.939 177.89 233.939 177.625ZM233.409 178.155C233.144 178.155 233.144 178.155 233.144 178.42C233.409 178.42 233.409 178.42 233.409 178.155ZM232.614 178.685C231.554 179.215 230.759 180.01 230.229 181.07C231.554 181.07 233.144 178.155 232.614 178.685ZM229.964 181.07C229.699 181.07 229.699 181.335 229.699 181.6C229.964 181.6 229.964 181.335 229.964 181.07ZM229.699 181.6C229.434 181.6 229.169 181.6 229.169 181.865C229.434 181.865 229.699 181.865 229.699 181.6ZM229.169 181.865C228.904 181.865 228.904 182.13 228.904 182.395C229.169 182.395 229.169 182.13 229.169 181.865ZM228.904 182.395C228.639 182.395 228.374 182.395 228.374 182.66C228.639 182.66 228.904 182.66 228.904 182.395ZM228.374 182.925C228.109 182.925 227.844 182.925 228.109 183.19C228.109 183.19 228.374 183.19 228.374 182.925ZM227.844 183.19C227.579 183.19 227.579 183.455 227.579 183.72C227.844 183.72 227.844 183.455 227.844 183.19ZM227.579 183.72C227.314 183.72 227.049 183.72 227.049 183.985C227.314 183.985 227.579 183.985 227.579 183.72ZM227.049 183.985C226.784 183.985 226.784 184.25 226.784 184.515C227.049 184.515 227.049 184.25 227.049 183.985ZM200.814 221.615C200.284 221.88 201.079 221.615 200.814 221.615V221.615ZM199.489 226.385C200.019 226.12 200.284 225.325 200.284 224.53C200.019 224.795 199.754 224.795 199.489 225.06C199.489 225.59 199.489 225.855 199.489 226.385ZM200.284 224.265C200.549 224.265 200.549 224.265 200.284 224.265V224.265ZM200.019 222.94C199.754 223.47 200.284 223.205 200.019 222.94V222.94ZM199.489 224C198.959 224.265 199.754 223.735 199.489 224V224ZM199.224 224.265C198.959 224.265 198.959 224.53 198.959 225.06C199.489 225.06 199.489 224.795 199.224 224.265ZM199.489 226.385C198.959 226.385 197.634 227.445 198.694 227.975C198.959 228.24 199.224 226.385 199.489 226.385ZM198.429 228.77C197.899 229.3 198.694 228.505 198.429 228.77V228.77ZM198.164 226.12C197.899 226.385 197.899 226.915 197.634 227.18C198.429 226.65 198.694 225.855 198.164 226.12ZM198.164 229.035C197.634 229.035 197.634 229.3 197.634 229.83C198.164 229.565 198.164 229.3 198.164 229.035ZM197.634 227.18C197.104 227.18 197.369 227.71 197.369 227.975C197.899 227.975 197.634 227.445 197.634 227.18ZM197.104 227.975C196.574 228.24 196.839 228.505 196.839 228.77C197.369 228.77 197.104 228.505 197.104 227.975ZM197.634 229.83C196.839 229.83 194.984 232.215 194.719 233.01C194.719 232.48 195.514 233.275 195.779 233.54C196.574 232.745 197.634 230.89 197.634 229.83ZM194.984 234.335C194.454 234.6 194.719 234.865 194.719 235.395C195.249 235.13 194.984 234.865 194.984 234.335ZM194.719 235.395C194.189 235.395 194.189 235.925 194.189 236.19C194.719 235.925 194.719 235.66 194.719 235.395ZM193.924 236.455C193.659 236.985 194.189 236.985 194.189 236.455C194.454 235.925 194.189 235.925 193.924 236.455ZM188.624 247.055C188.094 247.85 187.829 248.645 187.829 249.44C189.419 248.91 188.889 246.525 188.624 247.055ZM186.504 252.355C186.504 252.885 186.504 253.15 186.504 253.68C187.829 253.15 187.829 250.5 187.829 249.44C186.769 249.705 187.034 251.56 186.504 252.355ZM255.139 196.44C256.199 192.2 256.994 187.96 257.789 183.985C258.054 182.66 258.054 180.54 258.319 178.42C257.789 181.335 256.994 183.72 256.729 183.985C255.934 182.925 257.524 178.42 257.789 177.095C258.054 174.975 258.584 172.59 258.849 170.47C259.114 168.88 260.174 167.025 258.849 166.23C257.259 165.17 254.079 167.025 252.754 168.085C247.454 171.265 242.154 174.975 237.649 178.95C232.879 183.455 229.169 187.96 224.929 192.995C207.439 213.4 194.454 236.985 188.094 262.955C186.769 269.315 181.999 292.37 190.744 295.285C201.344 298.73 212.209 286.01 218.039 279.12C232.349 261.63 242.154 240.43 248.779 218.965C251.164 211.28 253.019 203.86 255.139 196.44ZM259.644 173.65C259.909 173.385 260.174 171.795 259.909 171.265C259.909 171.53 259.644 172.59 259.379 173.915L259.644 173.65ZM260.439 170.47C260.439 170.205 260.439 169.94 260.174 169.675C259.909 170.205 260.174 171 260.439 170.47ZM260.439 167.82C260.969 167.555 260.969 166.495 260.704 166.23C260.439 166.495 260.174 167.82 260.439 167.82ZM231.289 154.57C231.554 154.57 231.819 154.57 231.819 154.305C231.554 154.305 231.289 154.305 231.289 154.57ZM252.489 142.115C252.224 142.645 252.754 141.85 252.489 142.115V142.115ZM253.549 141.585C253.019 141.32 253.549 141.32 253.549 141.585V141.585ZM264.414 134.96C264.414 134.695 265.474 133.105 265.474 133.105C264.414 132.575 260.969 133.9 259.909 133.9C257.524 134.43 256.994 135.225 254.874 136.285C252.489 137.875 249.044 139.2 246.394 141.32C244.009 143.44 241.889 145.56 239.504 147.415C238.179 148.475 231.554 151.92 231.819 154.305C233.939 154.305 236.324 151.125 237.914 150.33C239.504 149.8 240.564 149.535 242.154 148.475C242.949 147.945 245.599 146.885 245.864 146.885C245.334 147.15 242.154 150.33 242.419 150.33C243.744 150.595 252.224 143.175 252.224 142.38C251.694 142.115 250.369 143.705 249.839 142.91C249.574 142.38 253.019 140.26 253.549 139.995C254.079 139.465 258.584 135.225 259.644 135.49C260.969 135.49 261.764 134.695 262.824 134.43C263.354 134.165 263.354 135.755 264.414 134.96ZM209.294 295.815C209.029 296.08 209.294 295.815 209.294 295.815V295.815ZM182.794 293.43C181.469 293.165 178.554 285.745 182.529 291.84C182.529 292.37 182.529 292.9 182.794 293.43ZM246.394 145.56C246.659 145.825 248.249 142.645 249.574 143.44C249.839 143.705 247.454 146.09 246.394 145.56ZM182.529 277.53C182.794 278.06 182.794 279.65 182.794 280.18C182.794 280.445 183.589 282.565 182.794 282.565C182.264 282.565 182.264 278.06 182.529 277.53ZM201.079 213.93C200.814 214.46 200.549 214.725 200.284 214.725C200.019 212.87 201.079 213.93 201.079 213.93ZM179.614 286.54C180.144 286.54 180.144 286.805 179.879 287.335C179.614 287.07 179.349 286.805 179.614 286.54ZM205.849 297.935C205.584 297.405 205.849 297.405 206.644 297.67C206.379 297.935 206.114 298.2 205.849 297.935ZM244.539 144.5C244.804 143.97 244.804 143.97 245.069 144.235C245.069 144.765 244.804 144.765 244.539 144.5ZM200.019 214.99H200.284H200.019ZM200.019 214.99V215.255C200.019 215.255 200.019 215.255 200.019 214.99ZM200.284 214.725C200.019 214.725 200.284 214.99 200.284 214.725V214.725ZM210.354 295.55C210.354 294.49 211.149 295.285 210.354 295.55V295.55ZM209.294 296.08C208.499 296.08 210.089 296.345 209.294 296.08V296.08ZM208.764 296.345C208.499 295.815 208.764 297.405 208.764 296.345V296.345ZM256.464 185.84C255.934 185.31 256.464 184.515 256.464 184.78C256.729 185.045 256.464 185.31 256.464 185.84ZM255.934 187.165C255.669 186.9 256.464 187.43 255.934 187.165V187.165Z" fill="#151515"/>
<defs>
<clipPath id="clip0_36_2">
<rect width="363" height="108" fill="white" transform="translate(299 130)"/>
</clipPath>
</defs>
</svg>
