<svg width="377" height="296" viewBox="0 0 377 296" fill="none" xmlns="http://www.w3.org/2000/svg">
<path d="M92.08 98.4C89.165 101.05 83.6 94.16 83.335 92.04C82.805 89.655 83.6 78.79 85.455 77.73C87.31 76.67 91.02 79.585 92.08 80.91C93.405 82.5 93.935 84.355 93.67 86.475C93.67 89.125 92.61 91.775 92.345 94.425C92.08 95.485 92.875 97.34 92.08 98.4ZM1.45 277.54C0.919996 276.745 1.71499 273.3 1.71499 273.565C1.71499 274.36 1.98 277.01 1.45 277.54ZM3.56999 273.83C3.835 274.095 3.835 274.36 3.305 274.625C2.775 274.36 3.04 273.565 3.56999 273.83ZM1.71499 271.71C1.71499 272.24 1.71499 272.505 1.45 272.77C1.18499 272.24 1.45 271.445 1.71499 271.71ZM8.87 237.79C8.87 238.055 8.605 238.32 8.605 237.79C8.87 237.26 9.135 237.26 8.87 237.79ZM8.87 237.525C8.87 237.525 8.87 237.26 8.87 237.525V237.525ZM5.42499 247.595C5.69 248.125 5.16 248.125 5.16 247.595C5.16 247.065 5.42499 247.065 5.42499 247.595ZM5.16 248.92C4.895 249.98 5.16 247.86 5.16 248.92V248.92ZM70.085 161.205V161.47C70.085 161.205 70.085 161.205 70.085 161.205ZM70.085 161.205V160.94V161.205ZM67.17 168.89C66.905 169.155 66.905 168.625 67.17 168.89V168.89ZM60.81 173.66C60.81 173.925 61.075 173.66 60.81 173.66V173.66ZM32.72 202.28C32.985 202.015 33.25 202.28 32.72 202.28V202.28ZM8.34 246.8C8.34 246.535 7.81 247.86 8.34 246.27C8.34 246.535 8.34 246.535 8.34 246.8ZM7.81 247.595C7.545 247.86 8.075 248.125 7.81 247.595V247.595ZM63.46 171.54C63.195 171.275 63.46 171.01 63.46 171.54V171.54ZM9.135 243.09H8.87H9.135ZM25.565 279.395C24.77 280.19 23.975 281.25 23.18 282.31C23.445 281.515 24.505 280.455 25.565 279.395ZM9.4 236.995C9.4 236.73 9.4 236.73 9.665 236.73C9.665 236.995 9.4 237.26 9.4 237.26C9.4 237.525 9.4 237.26 9.4 236.995ZM83.865 156.7C86.78 156.965 92.875 156.435 94.995 159.085C94.73 158.82 88.635 160.94 87.575 161.47C84.395 163.06 79.89 164.12 78.83 167.565C77.505 172.335 77.24 177.9 76.18 182.67C74.855 188.235 73.53 193.8 72.205 199.365C67.17 218.18 61.075 236.995 52.065 254.485C45.97 266.41 38.55 279.395 28.745 288.405C25.035 291.85 20.265 295.56 14.965 295.03C8.34 294.235 5.69 288.14 5.16 282.575C4.365 274.625 5.69 266.145 6.485 258.195C7.545 252.1 11.255 246.005 11.785 239.91C11.255 240.97 10.725 242.295 9.665 241.765C9.665 242.295 9.4 242.56 9.135 243.09C10.195 241.5 10.725 238.055 11.52 236.2C13.64 232.225 15.76 227.985 17.88 224.01C18.41 223.215 19.735 219.77 20.265 219.505C17.88 221.36 15.76 227.455 14.435 230.105C13.11 232.225 12.05 234.61 10.99 236.73C10.195 238.85 9.135 242.03 8.605 243.355C7.28 247.595 5.95499 252.365 5.16 256.605C4.365 260.845 4.365 264.29 3.305 268.53C3.56999 268 3.305 268 3.04 267.735C2.775 268 1.98 269.855 1.45 270.385C0.654999 268.795 1.71499 264.025 1.98 262.435C2.24499 259.52 2.51 256.075 3.56999 253.425C4.63 251.04 5.42499 249.45 5.69 246.8C5.95499 246.27 5.95499 245.21 6.485 244.15C6.485 243.09 6.485 243.355 6.485 243.885C7.015 241.5 8.075 238.585 8.605 239.38C9.135 239.115 9.4 238.32 9.4 237.26C9.665 237.26 9.665 237.26 9.665 236.995C9.665 236.73 9.665 236.73 9.665 236.73C9.665 235.405 9.93 234.08 10.195 233.55C10.99 231.165 12.315 228.78 13.375 226.66C15.76 222.155 18.41 217.65 21.06 213.145C26.095 205.46 31.395 198.04 37.225 190.885C42.79 183.995 48.62 177.635 55.51 171.805C58.69 169.155 61.87 166.77 65.315 164.385C67.17 163.325 70.35 162 71.145 160.41C72.47 157.23 72.47 151.93 73 148.485C73.795 143.98 74.325 139.74 75.385 135.5C75.915 132.85 76.445 126.225 78.3 124.635C79.625 123.31 83.335 123.575 84.925 124.9C87.31 127.02 85.455 132.055 84.925 134.97C84.395 139.21 83.6 143.185 82.805 147.16C82.54 149.545 81.745 152.195 81.745 154.58C81.48 158.025 81.215 156.435 83.865 156.7ZM3.56999 266.675C3.56999 266.675 4.09999 265.88 3.835 265.88C4.09999 265.35 3.835 265.085 3.56999 264.82C3.305 265.085 3.305 266.41 3.56999 266.675ZM4.63 255.015C4.895 254.22 4.365 254.485 4.09999 254.22C3.56999 253.69 4.09999 256.605 4.63 255.015ZM6.22 246.535C6.485 246.005 5.95499 246.005 5.95499 246.27C5.95499 246.8 5.95499 246.8 6.22 246.535ZM6.75 245.475C7.015 244.945 7.015 244.415 6.485 244.15C6.485 244.945 6.485 245.74 6.75 245.475ZM7.81 240.97C7.81 241.235 7.81 242.03 8.075 241.235C7.81 241.235 7.81 240.97 7.81 240.97ZM10.46 235.67C10.725 235.405 10.725 234.875 10.725 234.345C9.93 234.61 9.4 236.465 10.46 235.67ZM10.725 234.345C11.255 234.345 10.99 233.815 10.99 233.55C10.46 233.55 10.725 234.08 10.725 234.345ZM10.99 233.55C11.52 233.55 11.52 233.02 11.52 232.755C10.99 232.755 10.99 233.285 10.99 233.55ZM11.785 232.49C12.05 231.96 11.52 231.96 11.52 232.225C11.52 232.755 11.52 232.755 11.785 232.49ZM21.59 217.385C21.325 217.915 22.385 216.855 21.855 217.12C22.385 216.855 21.325 217.915 21.59 217.385ZM21.06 218.18C21.06 218.445 20.795 218.445 20.795 218.445C21.06 218.445 21.325 218.18 21.06 218.18ZM15.76 228.515C15.76 229.045 15.76 229.045 16.29 228.515C16.29 227.985 15.76 227.985 15.76 228.515ZM15.76 228.78C15.23 229.045 15.23 229.31 15.23 229.575C15.76 229.575 15.76 229.31 15.76 228.78ZM13.905 232.49C13.64 232.755 14.17 232.49 13.905 232.49V232.49ZM7.545 257.4C7.81 257.665 7.545 256.87 7.545 256.605C7.28 256.87 7.28 257.135 7.545 257.4ZM42.525 257.4C41.995 257.135 42.79 257.135 42.525 257.4V257.4ZM63.99 199.365C64.52 198.835 64.52 198.835 63.99 198.305C63.725 198.57 63.99 198.835 63.99 199.365ZM65.315 194.065C65.845 194.065 65.845 193.8 65.315 193.27C65.05 193.535 65.05 193.8 65.315 194.065ZM68.76 171.805C69.555 170.745 66.905 172.6 66.64 172.865C64.52 174.455 62.665 176.045 60.545 177.635C57.1 180.815 53.655 184.26 50.21 187.705C43.32 195.125 36.96 203.34 31.395 211.82C21.06 227.455 12.845 244.415 9.4 262.965C8.34 268 7.81 273.035 7.81 278.335C7.81 280.985 7.28 287.345 10.46 288.67C14.435 290.26 19.47 286.285 23.18 282.31C22.915 282.84 22.65 283.105 22.65 283.37C25.3 283.105 29.275 276.745 31.13 274.625C33.78 271.18 36.43 267.47 38.815 263.495C41.995 258.195 45.705 251.305 48.355 244.945C51.535 237.525 54.715 229.84 57.365 222.155C59.75 215.53 60.81 208.375 63.725 202.015C63.99 201.22 63.99 200.425 63.99 199.365C62.665 199.365 58.955 215.53 58.425 217.12C56.835 222.685 54.715 228.25 52.33 233.55C48.355 243.355 44.115 253.16 38.815 262.17C36.165 266.675 32.985 270.915 29.805 274.89C29.275 275.685 27.42 277.54 25.565 279.395C26.625 278.07 27.42 276.745 27.95 275.95C39.345 259.785 47.03 242.56 54.45 224.54C57.895 215.795 60.28 206.52 62.665 197.51C63.99 192.74 65.315 187.705 66.375 182.935C67.17 179.755 67.17 174.455 68.76 171.805ZM26.095 213.41C26.095 213.145 26.36 213.41 26.095 213.41V213.41ZM26.89 212.085C27.155 211.82 27.42 212.085 26.89 212.085V212.085ZM38.02 197.51C38.285 196.98 38.55 196.715 38.815 196.45C38.55 196.715 38.285 196.98 38.02 197.51ZM40.405 194.595C39.875 194.86 40.14 195.125 40.14 195.39C40.67 195.39 40.405 195.125 40.405 194.595ZM40.405 194.595C40.67 194.595 40.935 194.595 40.935 194.33C40.67 194.33 40.405 194.33 40.405 194.595ZM40.935 194.33C41.2 194.33 41.2 194.065 41.2 193.8C40.935 193.8 40.935 194.065 40.935 194.33ZM41.2 193.8C41.465 193.8 41.73 193.535 41.73 193.535C41.465 193.535 41.2 193.535 41.2 193.8ZM41.73 193.27C42.525 193.005 43.055 192.475 43.055 191.68C42.26 191.945 41.73 192.74 41.73 193.27ZM43.055 191.68C43.32 191.68 43.32 191.415 43.32 191.15C43.055 191.15 43.055 191.415 43.055 191.68ZM43.85 190.885C43.585 190.885 43.32 190.885 43.585 191.15C43.585 191.15 43.85 191.15 43.85 190.885ZM43.85 190.355C43.32 190.885 45.705 190.09 45.44 188.765C44.91 189.03 44.38 189.56 43.85 190.355ZM45.705 188.765C45.705 188.765 45.97 188.5 45.97 188.235C45.705 188.235 45.705 188.5 45.705 188.765ZM45.97 188.235C46.235 188.235 46.5 188.235 46.5 187.97C46.235 187.97 45.97 187.97 45.97 188.235ZM46.5 187.705C46.765 187.705 46.765 187.705 46.765 187.44C46.5 187.44 46.5 187.44 46.5 187.705ZM46.765 187.44C47.03 187.44 47.295 187.175 47.295 186.91C47.03 186.91 46.765 187.175 46.765 187.44ZM47.295 186.91C47.56 186.91 47.56 186.91 47.56 186.645C47.56 186.645 47.295 186.645 47.295 186.91ZM47.825 186.645C48.09 186.645 48.09 186.38 48.09 186.115C47.825 186.115 47.825 186.38 47.825 186.645ZM48.885 185.055C48.355 185.055 48.09 185.585 48.09 186.115C48.62 185.85 49.945 184.26 48.885 185.055ZM49.68 184.26C50.21 184.525 50.21 184.26 50.21 183.73C49.68 183.73 49.68 183.995 49.68 184.26ZM50.21 183.465C50.475 183.465 50.74 183.465 50.74 183.2C50.475 183.2 50.21 183.2 50.21 183.465ZM50.74 183.2C51.005 183.2 51.005 182.935 51.005 182.67C50.74 182.67 50.74 182.935 50.74 183.2ZM51.27 182.67C51.27 182.67 51.535 182.67 51.535 182.405C51.27 182.405 51.27 182.405 51.27 182.67ZM51.535 182.14C51.8 182.14 52.065 182.14 52.065 181.875C51.8 181.875 51.535 182.14 51.535 182.14ZM52.065 181.875C52.33 181.875 52.33 181.61 52.33 181.345C52.065 181.345 52.065 181.61 52.065 181.875ZM52.33 181.345C52.595 181.345 52.86 181.345 52.86 181.08C52.595 181.08 52.33 181.08 52.33 181.345ZM52.86 181.08C53.125 181.08 53.125 180.815 53.125 180.55C52.86 180.55 52.86 180.815 52.86 181.08ZM53.39 180.55C53.92 180.55 54.185 180.55 54.185 179.755C53.655 179.755 53.39 180.02 53.39 180.55ZM54.185 179.755C54.45 179.755 54.45 179.49 54.45 179.225C54.185 179.225 54.185 179.49 54.185 179.755ZM65.05 172.6C65.315 172.6 65.315 172.6 65.05 172.6V172.6ZM69.82 167.565C69.555 167.565 69.82 167.3 69.82 167.565V167.565ZM70.085 166.505C70.085 166.24 70.085 165.71 70.085 165.445C60.28 169.685 52.33 178.165 45.175 185.85C39.08 192.21 33.78 199.365 28.745 206.785C27.95 207.845 24.77 213.41 21.325 219.77C21.325 219.505 21.325 219.505 21.325 219.77C16.025 229.31 10.195 240.705 10.725 240.97C11.255 241.235 19.205 225.335 19.735 224.54C19.735 225.865 21.325 222.155 21.325 221.89C21.325 222.95 22.12 221.095 22.12 220.83C21.855 221.36 21.59 220.565 21.325 220.035C22.12 220.3 22.385 220.035 22.65 219.505C22.65 220.83 24.24 217.12 24.505 216.59C24.77 215.795 25.3 214.735 25.565 213.94C25.565 213.41 29.01 208.64 30.07 207.05C31.395 205.195 32.985 203.605 34.31 201.485C36.165 198.835 38.02 195.655 40.935 192.475C42.79 190.355 44.645 188.235 46.5 186.115C48.355 184.26 53.92 176.575 56.57 176.84C56.57 177.9 54.98 178.165 54.45 179.225C56.305 179.225 61.34 173.395 62.93 172.335C65.05 171.01 66.905 169.95 68.495 168.36C68.495 168.36 68.76 166.77 70.085 166.505ZM70.615 191.15C70.35 190.885 70.615 190.62 70.615 191.15V191.15ZM70.615 165.975C70.35 165.71 70.88 165.71 70.615 165.975V165.975ZM71.675 185.585C71.94 185.32 71.94 185.32 71.94 185.055C71.675 185.055 71.41 185.32 71.675 185.585ZM80.42 161.735C79.89 161.47 80.685 161.47 80.42 161.735V161.735ZM81.48 161.205C81.215 161.205 83.07 160.41 80.95 161.205C81.215 161.205 81.215 161.205 81.48 161.205ZM82.805 160.94C82.54 160.675 84.395 160.145 82.275 160.675C82.275 160.675 82.54 160.94 82.805 160.94ZM87.84 160.94C88.37 161.205 88.37 160.94 88.105 160.675C87.575 160.675 87.575 160.94 87.84 160.94ZM21.325 219.77C21.325 219.77 21.325 219.77 21.325 220.035C21.325 220.035 21.325 220.035 21.325 219.77C21.325 220.035 21.325 220.035 21.325 220.035C21.325 219.77 21.325 219.77 21.325 219.77ZM57.1 176.31C57.1 176.575 56.835 176.84 56.57 176.84C56.57 176.575 56.835 176.31 57.1 176.31ZM63.46 171.275C63.46 171.01 63.725 171.275 63.46 171.275V171.275ZM32.72 202.545C32.72 202.28 32.985 202.28 32.72 202.545V202.545ZM58.69 175.515C58.69 175.515 58.955 175.515 58.69 175.515V175.515ZM58.425 175.78C58.16 176.31 57.63 176.575 57.1 176.31C57.365 175.515 57.895 174.985 58.69 174.985C58.955 175.515 58.69 175.78 58.425 175.78ZM59.75 174.19C59.485 174.19 59.75 174.19 59.75 174.19V174.19ZM32.19 203.075C32.19 202.81 32.19 202.545 32.72 202.545C32.72 203.075 32.72 203.34 32.19 203.075ZM58.425 175.78C58.425 176.045 58.425 175.78 58.425 175.78V175.78ZM58.69 174.985C58.955 174.19 58.955 174.19 59.75 174.19C59.485 174.455 59.22 174.72 58.69 174.985ZM61.87 172.6C61.87 172.865 61.605 172.865 61.34 172.865C61.34 172.6 61.605 172.6 61.87 172.6ZM61.87 172.335C61.605 172.6 61.87 172.6 61.87 172.335V172.335ZM60.81 173.66C60.545 174.19 60.28 174.455 59.75 174.19C60.015 173.66 60.545 172.865 61.34 172.865C61.34 173.395 61.34 173.66 60.81 173.66ZM61.87 172.07C61.87 172.6 62.135 172.335 61.87 172.07V172.07ZM34.84 200.16C34.575 199.895 34.84 199.63 34.84 200.16V200.16ZM33.515 202.015C33.78 202.015 34.045 201.75 33.515 202.015V202.015ZM31.925 204.135C32.19 204.135 32.19 203.87 31.925 204.135V204.135ZM34.84 199.895C34.84 199.895 34.84 199.63 34.84 199.895V199.895ZM64.255 170.48C65.05 170.215 64.52 171.275 63.46 171.275C63.725 170.745 63.99 170.745 64.255 170.48ZM31.13 205.46C31.13 205.46 31.395 205.195 31.13 205.46V205.46ZM66.11 169.155C66.375 169.685 66.375 169.42 66.11 169.155V169.155ZM64.255 171.275C64.255 171.275 64.52 171.275 64.255 171.275V171.275ZM9.135 244.15C8.605 245.21 9.665 243.62 9.135 244.15V244.15ZM65.845 169.685C65.58 168.89 65.845 170.48 65.845 169.685V169.685ZM65.05 169.95C64.785 170.48 65.05 170.215 65.05 169.95V169.95ZM8.605 245.74C8.34 245.21 8.34 244.945 8.87 244.68C8.87 244.945 8.87 245.475 8.605 245.74ZM64.785 170.215C64.785 170.48 64.785 170.48 64.785 170.215V170.215ZM66.11 169.42C65.845 169.42 66.11 169.685 66.11 169.42V169.42ZM34.045 201.485C34.31 201.485 34.31 201.22 34.045 201.485V201.485ZM111.466 166.24C111.466 166.24 111.466 165.975 111.466 166.24V166.24ZM143.001 156.17C143.001 156.435 143.001 156.435 143.001 156.17V156.17ZM154.131 141.86C155.986 141.595 159.696 136.03 161.286 136.56C161.021 137.885 159.696 137.885 159.696 139.21C160.226 138.68 160.756 138.415 161.286 138.415C159.696 142.125 155.721 145.57 153.071 148.22C149.891 151.4 145.651 154.05 141.941 156.435C141.411 156.7 141.146 156.965 140.616 157.23C135.846 160.41 130.811 163.855 125.511 165.71C122.331 166.77 114.116 169.685 111.466 166.24C112.526 166.24 121.006 165.71 121.271 164.915C121.271 164.12 113.586 165.71 112.791 165.71C112.791 165.18 114.116 164.915 113.851 164.385C113.851 163.855 110.141 163.855 109.346 163.325C108.286 162.795 107.491 162 106.961 161.205C105.636 158.82 105.371 155.905 105.371 153.52C105.636 145.57 109.611 138.415 114.381 132.32C117.561 128.345 124.451 119.865 130.546 120.395C132.931 120.66 135.846 123.045 136.376 124.9C136.906 127.285 134.786 129.67 134.521 132.055C136.641 131.26 136.906 127.55 137.171 125.695C138.231 125.43 136.641 130.2 136.641 130.2C135.846 132.055 134.521 133.645 133.196 134.705C129.751 137.885 125.511 140.8 121.536 142.92C117.826 144.775 114.646 143.45 113.321 147.16C111.731 150.605 109.876 155.375 110.141 159.085C110.936 164.12 114.646 162.53 118.356 160.94C123.126 159.085 127.896 156.965 132.401 154.315C137.171 151.665 141.676 148.75 146.181 145.835C149.626 143.45 154.396 138.68 158.371 137.885C158.106 139.74 154.926 140.27 154.131 141.86ZM134.521 132.585C135.316 131.79 131.871 133.91 131.606 134.705C132.401 134.97 133.991 133.115 134.521 132.585ZM134.256 127.815C133.991 128.08 133.991 128.61 133.991 128.875C134.521 128.61 134.521 128.61 134.256 127.815ZM133.991 129.14C133.461 129.14 133.726 129.405 133.726 129.67C134.256 129.67 133.991 129.405 133.991 129.14ZM133.461 129.935C133.196 129.935 133.461 130.2 133.461 129.935V129.935ZM130.281 120.925C129.751 120.925 129.751 121.19 130.281 121.19C130.811 121.19 130.811 120.925 130.281 120.925ZM119.416 135.765C118.091 137.355 116.766 139.21 115.706 141.33C117.826 141.595 124.451 136.295 126.041 134.97C128.161 133.38 131.871 130.465 132.931 128.08C135.316 122.515 129.751 124.9 127.366 126.755C124.186 129.14 121.801 132.585 119.416 135.765ZM114.911 141.33C114.381 141.595 114.646 141.86 114.911 141.33V141.33ZM125.246 163.59C124.981 163.325 125.776 163.06 125.246 163.59V163.59ZM141.146 153.52C140.881 153.785 141.411 153.785 141.146 153.52V153.52ZM133.461 158.82C133.196 159.615 133.196 158.82 133.461 158.82V158.82ZM132.666 159.35C132.401 159.88 132.931 159.615 132.666 159.35V159.35ZM127.101 162.265C126.836 162.795 127.366 162.53 127.101 162.265V162.265ZM126.041 163.855C126.041 163.59 126.306 163.59 126.041 163.855V163.855ZM126.306 163.06C125.776 162.795 126.306 162.795 126.306 163.06V163.06ZM127.631 163.59C127.631 163.59 126.571 163.59 127.101 163.59C127.366 163.59 127.631 163.59 127.631 163.59ZM127.366 164.65C127.631 164.385 127.896 164.915 127.366 164.65V164.65ZM127.631 163.06C127.896 163.06 127.896 162.53 127.631 163.06V163.06ZM127.896 162C127.631 162.53 128.161 162 127.896 162V162ZM128.161 164.385C128.426 164.12 128.691 164.385 128.161 164.385V164.385ZM128.691 162.53C128.426 162.53 129.221 162.265 128.691 162.53V162.53ZM128.956 161.47C128.691 162 128.691 161.47 128.956 161.47V161.47ZM128.956 163.855C129.221 163.59 129.486 164.12 128.956 163.855V163.855ZM129.751 162.265C129.221 162 129.751 161.735 129.751 162.265V162.265ZM128.956 161.47C129.221 161.47 129.751 161.47 129.751 160.94C129.486 160.94 128.956 160.94 128.956 161.47ZM130.546 161.735C130.016 161.47 130.546 161.47 130.546 161.735V161.735ZM131.341 161.205C130.811 161.205 131.606 160.94 131.341 161.205V161.205ZM131.341 160.145C131.076 160.94 131.076 160.145 131.341 160.145V160.145ZM131.606 160.145C131.606 159.615 131.871 159.88 131.606 160.145V160.145ZM132.136 160.94C131.871 160.145 132.136 161.205 132.136 160.94V160.94ZM132.401 160.41C132.666 160.41 133.196 160.675 133.196 160.145C132.931 160.145 132.401 160.145 132.401 160.41ZM133.196 161.735C133.461 161.47 133.726 161.735 133.196 161.735V161.735ZM133.196 160.145C133.461 160.145 133.991 160.145 133.991 159.615C133.726 159.615 133.196 159.615 133.196 160.145ZM133.991 159.615C134.256 159.085 134.521 159.615 133.991 159.615V159.615ZM133.726 158.82C133.991 158.82 134.256 159.085 134.521 158.555C133.991 158.555 133.726 158.29 133.726 158.82ZM134.521 158.29C134.786 158.29 134.786 158.29 134.786 158.025C134.521 158.025 134.521 158.025 134.521 158.29ZM135.316 158.82C135.581 158.82 136.111 159.085 136.111 158.555C135.846 158.555 135.581 158.29 135.316 158.82ZM136.111 158.29C136.641 158.29 136.906 158.555 136.906 158.025C136.641 158.025 136.376 157.76 136.111 158.29ZM137.171 158.025C137.171 158.025 137.436 157.76 137.436 157.495C137.171 157.495 137.171 157.76 137.171 158.025ZM137.436 157.495C137.701 157.495 138.231 157.76 138.231 157.23C137.966 157.23 137.701 156.965 137.436 157.495ZM138.496 156.965C138.496 156.7 138.761 156.7 138.496 156.965V156.965ZM139.291 156.7C139.026 156.435 139.821 156.435 139.291 156.7V156.7ZM137.171 156.7C138.231 156.435 139.026 155.905 140.086 155.11C137.436 155.11 136.641 157.23 134.521 157.23C134.786 158.025 137.171 157.76 137.171 156.7ZM140.351 156.17C139.821 156.17 140.881 156.17 140.351 156.17V156.17ZM140.086 155.11C140.351 155.11 140.351 154.845 140.351 154.58C140.086 154.58 140.086 154.845 140.086 155.11ZM140.616 154.58C140.881 154.58 141.146 154.58 141.146 154.315C140.881 154.05 140.616 154.05 140.616 154.58ZM141.411 154.05C141.411 153.255 141.676 154.05 141.411 154.05V154.05ZM142.736 153.255C142.736 152.99 143.001 152.99 142.736 153.255V153.255ZM143.266 154.05C143.001 153.785 143.531 153.785 143.266 154.05V154.05ZM144.061 153.52C143.531 153.52 144.061 153.255 144.061 153.52V153.52ZM144.591 152.195C144.061 152.195 144.591 151.93 144.591 152.195V152.195ZM145.651 151.4C145.651 151.665 145.651 150.87 145.651 151.4V151.4ZM149.361 145.04C148.831 145.305 149.096 144.775 149.361 145.04V145.04ZM148.831 145.305C148.566 145.57 148.831 145.57 148.831 145.305V145.305ZM146.181 151.135C146.181 150.87 146.446 150.87 146.181 151.135V151.135ZM147.506 149.015C147.241 148.22 147.506 149.015 147.506 149.015V149.015ZM147.771 148.485C148.036 148.485 148.036 148.485 148.036 148.22C147.771 148.22 147.771 148.22 147.771 148.485ZM148.301 148.22C148.566 148.22 148.831 148.22 148.831 147.69C148.566 147.69 148.301 147.69 148.301 148.22ZM149.096 147.69C149.361 147.69 149.361 147.69 149.361 147.425C149.096 147.425 149.096 147.425 149.096 147.69ZM149.626 147.16C149.626 146.895 149.891 146.895 149.626 147.16V147.16ZM149.891 144.51C149.891 144.775 149.891 143.98 149.891 144.51V144.51ZM150.421 144.245C150.421 144.245 150.686 144.245 150.686 143.98C150.421 143.98 150.421 143.98 150.421 144.245ZM150.686 143.98C150.951 143.98 151.481 143.98 151.481 143.45C151.216 143.45 150.686 143.45 150.686 143.98ZM151.481 143.45C152.276 143.45 152.541 143.185 152.806 142.655C152.276 142.655 151.746 142.92 151.481 143.45ZM152.806 142.655C153.601 142.655 153.866 142.39 154.131 141.86C153.336 141.595 153.071 142.125 152.806 142.655ZM141.941 156.435C141.941 156.7 142.206 156.435 141.941 156.435V156.435ZM218.071 139.475C218.336 138.945 222.576 134.44 222.576 136.825C222.841 139.21 222.311 139.74 220.721 141.595C219.926 142.125 216.481 143.715 219.131 143.98C215.421 149.015 209.856 154.315 204.821 157.76C202.701 159.085 200.581 160.145 198.726 161.47C197.931 161.735 197.666 162.53 196.871 163.06C196.606 163.06 195.546 162.53 196.076 162.265C195.016 163.06 193.956 163.59 193.161 163.855C193.161 163.855 193.161 163.855 193.161 164.12C193.161 164.12 193.161 164.12 193.161 163.855C193.161 164.12 192.896 164.12 192.631 164.385C192.896 164.385 192.896 164.385 193.161 164.385C193.161 164.915 192.896 164.915 192.366 164.915C192.366 164.65 192.366 164.65 192.366 164.385C191.836 164.65 191.306 164.915 190.776 165.18C191.041 165.18 191.041 164.65 190.776 165.18C190.511 165.445 190.246 165.445 189.716 165.445C187.066 166.24 184.416 167.035 181.501 167.565C176.996 168.095 173.551 165.975 169.576 164.385C171.166 165.71 172.756 166.24 174.346 167.3C170.901 168.89 166.396 162.265 165.071 160.145C162.686 155.64 161.891 150.34 162.686 145.305C164.276 136.825 170.106 128.08 177.791 123.575C182.031 121.19 185.476 120.66 189.981 123.31C191.041 123.84 193.956 124.9 194.486 126.225C194.486 126.225 193.691 127.02 193.691 127.815C194.221 131.79 194.751 134.44 190.776 137.62C190.776 137.62 190.511 137.885 190.246 137.885C190.246 138.68 189.981 138.945 189.451 139.21C189.451 138.945 189.451 138.68 189.451 138.415C188.656 138.68 187.861 138.945 187.331 139.475C186.271 140.27 185.476 142.125 184.151 142.125C177.526 142.92 184.681 135.5 185.741 134.44C186.801 133.115 191.306 128.08 189.716 126.225C187.331 123.575 179.116 130.465 177.791 132.055C172.226 137.355 167.721 145.305 167.721 152.99C167.986 156.7 169.046 161.47 172.491 163.325C175.671 164.915 180.971 162.795 184.416 161.735C193.161 158.555 201.111 153.255 208.531 147.425C211.711 144.775 214.891 142.39 218.071 139.475ZM191.306 135.765C191.041 136.03 191.571 136.295 191.306 135.765V135.765ZM176.466 166.505C175.141 166.24 177.791 166.77 176.466 166.505V166.505ZM178.851 166.505C178.851 166.24 179.116 165.975 178.851 166.505V166.505ZM191.571 162.265C191.571 162.265 191.571 161.47 191.571 162.265V162.265ZM192.101 161.735C192.366 161.735 192.366 161.205 192.101 161.735V161.735ZM193.161 161.205C192.631 161.205 193.426 160.94 193.161 161.205V161.205ZM193.956 162.53C193.426 162.53 193.956 162.265 193.956 162.53V162.53ZM196.871 159.35C196.606 159.085 197.136 158.82 196.871 159.35V159.35ZM197.666 158.82C197.401 158.555 197.931 158.29 197.666 158.82V158.82ZM201.641 156.17C201.376 156.435 201.906 155.375 201.641 156.17V156.17ZM201.906 155.905C202.171 155.905 202.436 155.905 202.701 155.375C202.171 155.375 201.906 155.375 201.906 155.905ZM202.701 155.375C202.701 155.11 202.966 155.11 202.701 155.375V155.375ZM203.231 158.025C202.966 157.76 203.761 157.495 203.231 158.025V158.025ZM205.616 154.845C205.881 154.845 206.146 154.58 205.616 154.845V154.845ZM206.146 154.58C206.411 154.58 206.411 154.315 206.411 154.315C206.146 154.315 206.146 154.315 206.146 154.58ZM206.411 154.05C206.676 154.05 206.941 154.05 206.941 153.785C206.676 153.785 206.411 153.785 206.411 154.05ZM206.941 153.785C207.206 153.785 207.206 153.52 207.206 153.255C206.941 153.255 206.941 153.52 206.941 153.785ZM207.471 153.255C207.736 153.255 207.736 153.255 207.736 152.99C207.471 152.99 207.471 152.99 207.471 153.255ZM207.736 152.725C208.001 152.725 208.266 152.725 208.266 152.46C208.001 152.46 207.736 152.725 207.736 152.725ZM208.266 152.46C208.266 152.195 208.531 151.93 208.266 152.46V152.46ZM217.011 145.57C217.276 145.305 217.541 145.04 217.541 144.245C217.011 144.51 215.951 146.1 217.011 145.57ZM217.541 144.245C217.806 144.245 218.071 144.245 218.071 143.98C217.806 143.98 217.541 143.98 217.541 144.245ZM170.106 164.915C170.106 164.915 170.106 164.65 170.106 164.915V164.915ZM192.366 164.915C192.366 164.915 192.366 164.65 192.366 164.915V164.915ZM194.486 128.61C194.486 128.08 194.221 127.55 194.221 126.755C195.811 127.285 195.546 129.67 194.751 130.73C194.486 129.935 194.486 129.405 194.486 128.61ZM194.221 126.755C193.956 126.755 194.221 126.755 194.221 126.755V126.755ZM193.956 163.59C193.956 163.59 194.221 163.59 193.956 163.59V163.59ZM195.016 163.59C194.751 164.12 193.161 164.915 193.161 164.12C194.221 163.855 193.956 163.59 195.016 163.59ZM195.016 163.59C194.751 163.06 195.016 162.795 195.811 163.06C195.546 163.59 195.281 163.59 195.016 163.59ZM193.161 164.385C193.161 164.385 193.426 164.385 193.161 164.385V164.385ZM219.396 143.98C219.396 143.715 219.396 143.45 219.661 143.45C219.661 143.715 219.661 143.98 219.396 143.98ZM219.396 143.98C219.131 143.98 219.396 143.98 219.396 143.98V143.98ZM219.661 143.45C219.661 143.715 219.661 143.45 219.661 143.45V143.45ZM219.661 143.45C219.661 143.185 219.926 143.185 220.191 143.185C220.191 143.45 219.926 143.45 219.661 143.45ZM220.456 142.655C220.456 143.45 220.456 142.655 220.456 142.655V142.655ZM220.191 142.92C219.926 142.92 220.191 143.185 220.191 142.92V142.92ZM186.536 141.595C186.536 141.86 186.536 140.8 186.536 141.595V141.595ZM186.801 141.33C186.801 141.595 187.066 141.33 186.801 141.33V141.33ZM186.801 141.33C186.801 141.065 187.596 141.065 186.801 141.33V141.33ZM189.186 139.475C188.921 138.68 189.186 139.74 189.186 139.475V139.475ZM374.125 71.9C376.245 73.225 369.355 72.165 369.355 72.165C366.44 71.635 363.525 71.37 360.345 70.84C354.25 69.515 347.625 68.72 341.265 67.925C336.495 67.395 330.135 66.335 325.365 67.13C323.51 67.395 322.185 67.925 320.33 67.925C318.74 67.925 315.56 67.13 314.5 68.455C315.825 66.865 313.44 67.925 312.645 67.925C311.32 67.66 309.73 67.925 308.405 67.925C304.43 68.19 300.72 68.19 296.745 68.19C289.06 67.925 281.11 68.985 273.69 69.78C270.245 70.31 264.68 69.78 261.5 71.105C259.645 71.635 258.85 73.755 257.79 75.61C254.345 84.09 252.225 92.835 247.72 100.785C250.9 92.04 254.345 83.295 257.525 74.55C256.995 73.755 253.55 82.765 253.285 83.295C251.96 86.475 250.9 89.92 249.575 93.1C247.19 99.725 244.805 106.085 242.685 112.71C240.565 118.275 237.385 123.045 236.59 129.14C236.06 134.97 234.735 140.8 234.205 146.895C232.615 159.35 232.085 172.335 233.145 184.79C233.41 187.705 233.41 191.15 234.47 194.065C234.735 194.86 236.855 196.715 236.855 197.245C237.12 198.835 233.94 199.63 232.35 199.1C222.81 195.92 225.46 177.37 225.46 169.95C225.99 157.23 227.05 144.245 228.905 131.525C230.76 118.805 233.41 106.35 236.06 93.895C237.385 88.065 238.71 82.235 239.505 76.405C239.77 75.875 240.565 71.635 240.565 71.635C240.035 70.84 237.385 71.635 236.325 71.9C225.99 72.96 215.655 76.14 205.32 78.26C200.02 79.32 194.455 79.32 189.155 80.91C188.625 80.91 183.06 83.56 182.795 83.03C183.06 83.295 185.975 83.56 185.18 84.355C184.385 84.355 176.435 83.825 176.435 84.09C176.7 82.5 178.82 83.295 179.615 83.03C180.145 82.765 180.41 82.235 180.145 81.97C179.615 80.91 180.145 80.645 181.735 80.645C185.18 78.525 191.01 77.73 194.985 76.67C203.2 74.285 211.68 72.43 219.895 70.84C224.4 69.78 229.17 68.985 233.675 68.19C237.65 67.395 241.36 68.19 242.42 64.215C245.07 55.47 246.395 46.195 249.045 37.45C251.43 28.97 254.345 20.755 257.26 12.54C258.32 9.095 259.645 1.67498 264.15 1.14499C266.535 0.614996 271.04 3.52999 272.365 5.64999C274.22 8.29999 273.69 11.745 273.69 14.66C273.425 23.67 270.51 31.355 269.185 39.835C269.715 36.655 269.98 33.74 270.51 30.56C269.98 32.68 269.185 35.065 268.655 37.185C268.655 36.655 268.655 35.86 268.125 35.33C267.595 37.98 260.705 63.685 260.705 63.685C262.295 63.685 267.595 40.365 268.39 37.715C268.655 43.015 266.535 49.11 265.21 54.145C264.415 56.53 262.295 59.975 262.56 62.095C262.56 64.745 264.68 63.685 267.595 63.42C280.58 62.625 293.3 61.035 306.02 60.505C329.34 59.975 353.72 59.445 374.125 71.9ZM271.04 28.97C271.04 28.175 270.775 29.5 270.775 29.5C270.775 30.295 271.305 29.765 271.04 28.97ZM182.795 82.5C182.795 81.97 183.325 83.03 182.795 82.5V82.5ZM231.82 133.38H231.555C231.82 133.645 231.82 133.645 231.82 133.38ZM229.7 186.38C229.965 185.585 229.965 185.055 229.7 184.26C229.7 184.26 229.7 184.26 229.435 183.995C229.435 181.875 229.435 180.02 229.435 177.9C229.435 177.635 229.435 177.37 229.435 177.105C228.905 176.575 228.905 176.045 228.905 175.515C228.905 171.805 228.905 168.095 228.905 164.385C228.905 164.12 228.905 163.59 229.17 163.325C229.435 162.795 229.435 162 229.435 161.47L229.17 161.205C229.17 161.205 229.17 161.47 228.905 161.47C228.64 162 228.64 162.53 228.64 163.06C228.64 167.565 228.64 172.07 228.64 176.575C228.64 176.84 228.64 177.37 228.64 177.635C229.17 177.9 228.905 178.43 228.905 178.96C228.905 180.285 228.905 181.61 228.905 182.935C228.905 183.2 229.17 183.465 229.17 183.995C229.17 183.995 229.17 183.995 229.435 183.995C229.435 184.79 229.435 185.585 229.435 186.38C229.435 186.38 229.7 186.38 229.7 186.645C229.7 186.38 229.7 186.38 229.7 186.38ZM230.23 189.03C230.23 188.765 230.23 188.765 230.23 188.765C230.23 188.5 230.23 188.5 230.23 188.235C230.23 188.235 230.23 188.235 230.23 187.97H229.965C229.7 188.235 229.965 188.765 229.965 189.03H230.23ZM231.555 138.415C231.82 137.885 231.555 137.355 231.555 136.825C231.555 136.03 231.82 135.5 231.82 134.97C232.085 134.97 231.82 134.705 231.82 134.705H231.555C231.29 134.97 231.025 135.235 231.025 135.765C231.025 136.295 231.29 137.09 231.025 137.885C230.76 138.415 230.76 138.945 230.76 139.475C230.76 140.27 230.76 141.065 230.495 141.595C230.23 142.39 230.23 142.92 230.23 143.715C230.23 144.245 230.495 144.51 230.23 144.775C229.7 145.835 229.965 146.63 229.965 147.425C229.7 147.955 229.965 148.22 229.7 148.485C229.435 149.015 229.435 149.28 229.435 149.81C229.435 151.4 229.435 153.255 229.435 155.11C229.17 155.11 229.17 155.11 229.17 155.375C228.905 156.965 228.905 158.555 229.17 160.41C229.17 160.41 229.435 160.41 229.435 160.145C229.435 159.085 229.17 158.025 229.435 156.965C229.7 156.435 229.435 155.64 229.435 155.11C229.7 155.11 229.7 154.845 229.7 154.58C229.7 153.52 229.7 152.195 229.965 151.135C229.965 150.605 229.7 150.075 229.965 149.81C230.495 149.015 230.23 148.22 230.23 147.425C230.23 147.16 230.23 146.63 230.23 146.365C230.76 145.57 230.495 144.775 230.76 143.715C230.76 143.45 230.76 143.185 230.76 142.92C231.29 142.39 231.025 141.86 231.025 141.065C231.025 140.27 231.025 139.21 231.555 138.415ZM232.085 132.585C232.085 132.85 232.35 132.85 232.35 132.585C232.35 132.585 232.35 132.585 232.085 132.585ZM233.41 198.305C233.145 198.305 233.145 198.305 232.88 198.305C233.145 198.305 233.145 198.57 233.145 198.57C233.41 198.57 233.41 198.57 233.675 198.57C233.41 198.305 233.41 198.305 233.41 198.305ZM261.235 49.11C261.235 48.845 261.235 48.845 261.235 48.845C261.235 49.11 261.235 49.11 261.235 49.11ZM261.765 48.315C261.765 48.05 261.765 47.785 261.765 47.785C261.765 47.52 261.765 47.255 261.765 47.255C261.5 47.255 261.5 47.255 261.5 47.255C261.5 47.52 261.5 47.785 261.5 48.05C261.5 48.05 261.5 48.315 261.765 48.315ZM262.03 46.195L262.295 45.93H262.03V46.195ZM262.56 47.785V47.52C262.56 47.255 262.56 47.255 262.56 47.255C262.56 47.255 262.295 47.255 262.295 47.52L262.56 47.785ZM262.56 44.87C262.56 44.605 262.825 44.605 262.825 44.34C262.825 44.075 262.56 43.81 262.56 43.81H262.295C262.295 44.075 262.295 44.34 262.295 44.605L262.56 44.87ZM262.825 46.46C263.09 46.46 263.09 46.46 263.09 46.195V45.93C262.825 45.93 262.825 45.93 262.825 46.195V46.46ZM262.825 43.015C263.09 43.015 263.09 43.015 263.09 42.75C263.09 42.75 263.09 42.75 263.09 42.485C262.825 42.485 262.825 42.75 262.825 42.75V43.015ZM263.885 43.015C263.885 43.015 263.885 43.015 263.885 42.75V42.485C263.62 42.485 263.62 42.75 263.62 42.75C263.62 43.015 263.62 43.015 263.885 43.015ZM264.15 41.425L264.415 41.16C264.415 41.16 264.415 40.895 264.15 40.895C264.15 41.16 264.15 41.16 264.15 41.425ZM264.68 35.065C264.68 35.065 264.68 35.065 264.68 34.8H264.415C264.415 35.065 264.68 35.065 264.68 35.065ZM264.945 37.45C265.21 37.45 265.21 37.45 265.21 37.185C265.21 37.185 265.21 36.92 264.945 36.92V37.185C264.945 37.45 264.945 37.45 264.945 37.45ZM269.715 18.635C269.715 18.9 269.715 18.9 269.98 18.635H269.715ZM269.715 26.585C269.715 26.85 269.715 26.85 269.715 26.85H269.98L269.715 26.585ZM268.655 31.62C268.39 31.885 268.39 32.15 268.655 32.415C269.45 32.15 268.655 31.09 268.655 31.62ZM267.86 8.56499V8.82998C267.86 9.095 267.86 9.35999 267.86 9.62499C267.86 9.62499 268.125 9.62499 268.125 9.88999C268.125 9.62499 268.125 9.62499 268.125 9.35999C268.125 9.095 268.125 8.82998 268.125 8.56499C268.125 8.29999 268.125 8.29999 268.125 8.29999C267.86 8.29999 267.86 8.56499 267.86 8.56499ZM267.595 7.50499C267.595 7.76998 267.595 7.76998 267.86 7.50499H267.595ZM267.595 22.08C267.595 22.61 267.595 23.14 267.595 23.67C267.595 23.935 267.595 23.935 267.595 23.935L267.86 23.67C267.86 23.405 267.86 23.405 267.86 23.14C267.86 22.875 267.86 22.345 267.86 22.08H267.595ZM267.065 24.995C267.065 25.26 267.065 25.26 267.065 25.525C267.065 25.79 267.065 25.79 267.33 26.055C267.33 25.79 267.33 25.79 267.33 25.525C267.33 25.26 267.33 25.26 267.33 25.26C267.33 24.995 267.33 24.995 267.33 24.995C267.065 24.995 267.065 24.995 267.065 24.995ZM266.535 28.175C266.535 28.44 266.535 28.44 266.535 28.705C266.535 28.705 266.535 28.97 266.8 28.97C266.8 28.97 266.8 28.705 267.065 28.705C267.065 28.44 267.065 28.44 267.065 28.175C266.8 28.175 266.8 28.175 266.8 27.91C266.8 28.175 266.535 28.175 266.535 28.175ZM266.27 30.56V30.825C266.27 31.09 266.27 31.09 266.535 31.09C266.535 31.09 266.535 31.09 266.535 30.825V30.56C266.535 30.295 266.535 30.03 266.27 30.295C266.27 30.295 266.27 30.295 266.27 30.56ZM266.005 33.21C266.005 33.21 266.005 33.21 266.005 32.945C266.005 33.21 265.74 33.21 265.74 33.21H266.005ZM260.44 19.165C260.44 19.695 260.44 19.96 260.44 20.225H260.175V20.49C260.175 20.755 260.175 20.755 260.44 21.02C260.44 20.755 260.44 20.755 260.44 20.49C260.705 20.49 260.705 20.225 260.705 20.225C261.235 19.695 260.97 19.695 260.44 19.165ZM259.115 19.96C259.115 19.96 258.85 19.96 258.85 20.225L259.115 20.49L259.38 20.225C259.38 19.96 259.115 19.96 259.115 19.96ZM257.26 20.755C257.26 21.02 257.26 21.02 257.26 21.285C257.525 21.285 257.525 21.02 257.525 21.02C257.525 20.755 257.525 20.755 257.525 20.755C257.525 20.755 257.525 20.755 257.525 20.49C257.79 20.49 258.055 20.225 258.055 19.96C258.055 19.96 258.055 19.695 258.055 19.43C258.055 19.43 258.055 19.43 258.055 19.165C258.585 19.165 258.32 18.9 258.32 18.37H258.585C258.85 18.37 258.85 18.105 258.85 17.84C258.85 17.84 258.585 17.84 258.585 17.575C258.585 17.84 258.585 17.84 258.585 17.84C258.585 18.105 258.585 18.37 258.585 18.37H258.32C258.055 18.635 258.055 18.9 258.055 19.165C258.055 19.165 258.055 19.165 258.055 19.43C257.79 19.43 257.525 19.695 257.525 19.96C257.525 19.96 257.525 20.225 257.525 20.49C257.525 20.49 257.525 20.49 257.525 20.755H257.26ZM258.85 21.285L258.585 21.02C258.585 21.285 258.585 21.285 258.585 21.285H258.85ZM258.32 22.08H258.055C258.055 22.08 258.055 22.08 258.32 22.345C258.32 22.08 258.32 22.08 258.32 22.08ZM257.525 24.2C257.26 24.2 257.26 24.2 257.26 24.2C257.26 24.2 257.26 24.2 257.26 24.465C257.525 24.2 257.525 24.2 257.525 24.2ZM256.73 22.875C256.465 22.875 256.465 22.875 256.465 23.14C256.465 23.405 256.465 23.405 256.465 23.405H256.73C256.73 23.14 256.73 22.875 256.73 22.875C256.73 22.61 256.73 22.61 256.73 22.61C256.995 22.61 257.26 22.61 257.26 22.08C256.995 22.08 256.995 22.08 256.995 22.08H256.73C256.73 22.345 256.73 22.61 256.73 22.61V22.875ZM255.935 24.995C255.67 24.995 255.405 25.26 255.405 25.525H255.67H255.935C255.935 25.26 255.935 24.995 255.935 24.995V24.73C256.2 24.73 256.2 24.73 256.2 24.465C256.2 24.2 256.2 24.2 256.2 24.2H255.935C255.935 24.465 255.935 24.73 255.935 24.73V24.995ZM256.2 29.235C255.935 29.235 255.935 29.5 256.2 29.5C256.2 29.5 256.2 29.5 256.2 29.235ZM255.67 31.09C255.935 31.09 255.67 31.09 255.67 30.825C255.67 31.09 255.67 31.09 255.67 31.09C255.67 31.355 255.67 31.355 255.67 31.09ZM255.14 27.38C254.61 27.38 254.61 27.645 254.61 27.91C254.61 27.91 254.61 28.175 254.875 28.175V27.91C255.14 27.91 255.14 27.645 255.14 27.38C255.67 27.115 255.405 26.85 255.405 26.32C255.405 26.32 255.405 26.32 255.14 26.32C255.14 26.85 255.14 27.115 255.14 27.38ZM255.405 32.15V31.885C255.14 31.885 255.14 31.885 255.14 32.15V32.415C255.405 32.415 255.405 32.15 255.405 32.15ZM251.96 37.185C251.43 37.45 251.695 37.98 251.695 38.245C251.96 38.245 251.96 38.245 251.96 38.245C251.96 37.98 251.96 37.715 251.96 37.185C252.225 37.185 252.49 37.185 252.49 36.92C252.49 36.39 252.49 36.125 252.49 35.595C252.49 35.33 252.755 35.33 252.755 35.33C253.02 34.535 253.02 33.74 253.285 33.21C253.815 32.68 253.815 31.885 253.815 31.355C253.815 31.355 253.815 31.355 253.815 31.09C254.08 30.56 254.61 29.765 254.61 29.235C254.61 28.97 254.345 28.97 254.345 28.705C254.345 28.97 254.345 28.97 254.345 28.97C253.815 29.765 253.815 30.56 253.815 31.355C253.55 31.355 253.55 31.355 253.55 31.355C253.285 32.15 253.285 32.945 252.755 33.475C252.49 34.27 252.49 34.8 252.49 35.595C252.225 35.595 252.225 35.595 252.225 35.86C251.96 36.39 251.96 36.655 251.96 37.185ZM251.43 39.57C251.165 39.57 251.165 39.57 251.43 39.835V39.57ZM250.635 42.485L250.37 42.75C250.37 42.75 250.37 43.015 250.635 43.015C250.635 43.015 250.635 43.015 250.635 42.75C250.635 42.75 250.635 42.75 250.635 42.485ZM250.635 47.255C250.37 47.785 250.37 48.58 250.105 49.375C249.84 49.375 250.105 49.375 250.105 49.375C250.105 49.64 250.105 49.375 250.37 49.375L250.635 49.11C250.9 47.785 251.43 46.725 251.165 45.4H251.43C251.695 44.87 251.96 44.075 251.96 43.545C251.96 43.545 251.96 43.28 251.96 43.015C251.96 42.75 251.96 42.75 251.96 42.485C251.695 42.485 251.695 42.75 251.695 42.75C251.165 43.545 251.165 44.34 251.165 45.4C250.9 45.4 250.9 45.665 250.9 45.665C250.635 46.195 250.635 46.725 250.635 47.255ZM250.105 50.17C249.84 50.7 249.31 51.23 249.575 52.025C249.575 52.025 249.575 52.29 249.575 52.555C249.84 52.29 249.84 52.29 249.84 52.29C249.84 51.76 250.105 51.495 250.105 51.23C250.37 50.965 250.37 50.7 250.37 50.435C250.37 50.435 250.37 50.17 250.105 50.17ZM249.045 53.88V54.145C249.045 54.41 249.31 54.41 249.31 54.675C249.31 54.41 249.31 54.41 249.575 54.145V53.88C249.31 53.88 249.31 53.615 249.31 53.615L249.045 53.88ZM247.455 55.47C247.455 55.735 247.455 55.735 247.455 56V56.265C247.72 56.265 247.72 56 247.72 55.735C247.72 55.47 247.72 55.47 247.455 55.205C247.455 55.47 247.455 55.47 247.455 55.47ZM247.72 59.445C247.985 60.505 247.19 61.3 247.455 62.36C247.455 62.625 247.455 62.625 247.455 62.89C247.72 62.625 247.72 62.625 247.72 62.36C247.985 61.565 248.515 60.77 248.25 59.71C248.78 58.915 248.515 58.12 248.515 57.325H248.78L249.045 57.06C249.045 56.53 249.045 56 249.045 55.47H248.78C248.78 55.47 248.78 55.205 248.78 55.47C248.78 56 248.78 56.795 248.78 57.325C248.515 57.325 248.515 57.325 248.515 57.325C248.515 57.325 248.25 57.325 248.25 57.59C247.985 58.12 248.515 58.915 247.72 59.445ZM247.19 57.06C247.19 57.06 246.925 57.06 246.925 57.325L247.19 57.59V57.325V57.06ZM247.19 63.95C246.925 64.48 246.395 64.745 246.66 65.275C246.66 65.54 246.66 65.54 246.66 65.54V65.805L246.925 65.54C246.925 65.01 247.455 64.745 247.455 63.95C247.19 63.95 247.19 63.95 247.19 63.95ZM246.13 76.67C246.13 76.935 246.13 77.465 246.13 77.73H246.395C246.395 77.465 246.395 77.465 246.395 77.2V76.935C246.395 76.67 246.395 76.67 246.395 76.67H246.13ZM245.865 78.79C245.6 79.055 245.6 79.055 245.6 79.32C245.6 79.585 245.865 79.585 245.865 79.85C245.865 79.585 246.13 79.585 246.13 79.32C246.13 79.055 246.13 79.055 245.865 78.79ZM245.335 65.275C245.335 65.54 245.335 65.54 245.335 65.805C245.6 65.54 245.6 65.54 245.6 65.275C245.6 65.275 245.6 65.275 245.6 65.01C245.6 65.01 245.6 64.745 245.335 64.745C245.335 64.745 245.335 65.01 245.335 65.275ZM245.6 81.175L245.335 80.91V81.175C245.335 81.44 245.335 81.44 245.335 81.44C245.6 81.44 245.6 81.175 245.6 81.175ZM247.19 78.26C246.395 81.705 245.6 85.415 244.805 88.86C244.54 90.715 242.42 96.015 243.215 97.605C242.685 96.545 246.395 88.595 246.925 87.27C248.78 81.97 249.84 76.14 251.96 71.105C253.02 68.985 249.84 69.515 249.045 70.575C247.985 71.9 247.72 76.67 247.19 78.26ZM242.685 90.98C242.685 90.98 242.685 91.245 242.95 91.245C242.95 91.245 242.95 91.245 242.95 90.98C242.95 90.98 242.95 90.98 242.95 90.715L242.685 90.98ZM242.685 98.665C242.685 98.4 242.95 98.135 242.685 98.665V98.665ZM242.685 84.09C242.685 84.355 242.685 84.355 242.95 84.62C242.95 84.355 242.95 84.355 242.95 84.355C242.95 84.09 242.95 84.09 242.95 83.825C242.95 84.09 242.685 84.09 242.685 84.09ZM244.54 76.14C244.54 76.405 244.54 76.405 244.54 76.405C244.54 76.67 244.54 76.67 244.54 76.67H244.805C244.805 76.405 244.805 76.405 244.54 76.14ZM244.275 87.8C244.275 87.27 244.275 86.475 244.275 85.945C244.01 85.945 244.01 86.21 244.01 86.475C244.01 86.74 244.01 87.27 244.01 87.8C244.01 87.8 243.745 88.065 243.48 88.065C243.48 88.595 243.48 89.125 243.48 89.655C243.745 89.655 243.745 89.655 244.01 89.39C244.01 88.86 244.275 88.33 244.275 87.8ZM243.215 81.44C243.215 81.705 243.215 82.235 243.215 82.5C243.215 82.765 243.215 82.765 243.215 82.765C243.215 82.765 243.48 82.765 243.48 82.5C243.48 82.235 243.48 81.705 243.48 81.175C243.745 81.175 244.01 81.175 244.01 80.91C244.01 80.38 244.01 79.85 244.01 79.585C244.01 79.32 244.275 79.32 244.275 79.32C244.54 78.79 244.275 78.26 244.275 77.73C244.275 77.465 244.275 77.465 244.275 77.465C244.01 77.465 244.01 77.465 244.01 77.73C244.01 78.26 244.01 78.79 244.01 79.585C243.745 79.585 243.48 79.585 243.48 79.85C243.48 80.38 243.48 80.645 243.48 81.175L243.215 81.44ZM242.685 76.935C242.685 77.2 242.42 77.73 242.42 77.995C242.42 77.995 242.42 78.26 242.685 78.26L242.95 77.995C242.95 77.73 242.95 77.465 242.95 77.465C242.95 77.2 242.95 76.935 242.95 76.935V76.67L242.685 76.935ZM241.625 98.4C241.36 98.665 241.36 99.725 241.625 99.725L241.89 99.46C241.89 98.93 241.89 98.93 241.89 98.665L241.625 98.4ZM241.36 90.185L241.625 90.45C241.625 90.45 241.89 90.185 241.625 90.185C241.625 89.92 241.625 89.92 241.625 89.92L241.36 90.185ZM241.89 96.015C241.89 96.545 241.89 97.075 241.89 97.605C242.155 97.605 242.155 97.605 242.155 97.605C242.155 97.075 242.155 96.545 242.155 96.28C242.42 96.015 242.685 95.75 242.685 95.485C242.685 95.22 242.685 94.69 242.42 94.425H242.155C242.155 94.955 242.155 95.485 242.155 96.015H241.89ZM241.89 88.065V88.33C242.155 88.33 242.155 88.065 242.155 88.065V87.8C241.89 87.8 241.89 87.8 241.89 88.065ZM242.155 86.74C242.42 86.74 242.42 87.005 242.42 87.005C242.42 87.005 242.685 86.74 242.685 86.475C242.685 86.21 242.42 86.21 242.42 85.945C242.42 86.21 242.42 86.21 242.155 86.475C242.155 86.475 242.155 86.475 242.155 86.74ZM240.3 87.27C240.3 87.8 240.3 88.33 240.3 88.595V88.86C240.3 88.86 240.3 88.595 240.565 88.595C240.565 88.065 240.565 87.8 240.565 87.27C240.565 87.27 240.565 87.27 240.565 87.005H240.83C241.095 86.21 240.83 85.68 241.36 85.15C241.36 84.09 242.155 83.03 241.89 81.97C242.155 81.97 242.155 81.97 242.155 81.705C242.155 81.175 242.155 80.645 242.155 79.85C242.685 79.85 242.685 79.32 242.685 79.055L242.42 78.79C242.42 78.79 242.155 78.79 242.155 79.055C242.155 79.32 242.155 79.585 242.155 79.85C241.89 80.115 241.89 80.115 241.89 80.38C241.89 80.91 241.89 81.44 241.89 81.97C241.625 81.97 241.625 81.97 241.625 82.235C241.095 83.03 241.095 84.09 240.83 84.885C240.83 85.15 240.565 85.415 240.565 85.68C240.565 85.945 240.565 86.475 240.565 87.005C240.565 87.27 240.565 87.27 240.565 87.27C240.3 87.27 240.3 87.27 240.3 87.27ZM241.36 92.04H241.095C241.095 92.04 241.095 92.04 241.095 92.305L241.36 92.04ZM240.565 96.015C240.3 96.015 240.3 95.75 240.3 95.75C240.035 95.75 240.035 96.015 240.3 96.015C240.3 96.015 240.3 96.015 240.565 96.015ZM240.3 103.17L240.035 103.435L240.3 103.7L240.565 103.435C240.3 103.17 240.3 103.17 240.3 103.17ZM236.59 106.88C236.855 106.615 236.59 105.82 236.59 105.29C236.325 105.29 236.325 105.29 236.325 105.29C236.325 106.085 235.795 106.615 235.795 107.41C235.795 108.47 235.265 109.795 235.53 110.855C235.53 111.12 235.265 111.12 235.265 111.385C234.735 112.18 235 112.975 234.47 113.77C234.735 114.83 234.205 115.625 234.205 116.42C234.205 117.48 233.675 118.01 233.675 118.805C233.94 120.13 233.145 121.19 233.145 122.25C232.615 123.045 232.88 123.84 232.88 124.635C232.88 124.635 232.88 124.635 232.88 124.9C232.615 124.9 232.35 125.165 232.615 125.43H232.88C232.88 125.165 232.88 124.9 232.88 124.9V124.635H233.145C233.145 123.84 233.675 123.31 233.675 122.78C233.94 122.515 233.94 122.25 234.205 121.985C234.205 121.455 234.205 120.925 234.205 120.395C234.205 119.6 234.735 119.335 234.47 118.805C234.205 117.215 235.265 115.89 235 114.565V114.3C235.795 113.505 235 112.445 235.795 111.65C235.795 110.59 236.06 109.53 236.325 108.735C236.325 108.205 236.325 107.675 236.59 106.88ZM237.915 100.52C237.915 100.255 237.915 99.99 237.915 99.46C237.915 99.46 237.915 99.46 237.65 99.195C237.65 99.195 237.65 99.195 237.65 99.46C237.385 100.255 237.12 101.05 237.12 101.845C237.12 102.11 237.12 102.375 236.855 102.64C236.59 102.905 236.855 103.435 236.59 103.7C236.59 103.965 236.59 103.965 236.59 104.23C236.855 104.23 236.855 104.495 236.855 104.495L237.12 104.23C237.12 103.17 237.65 102.375 237.65 101.05C237.65 101.05 237.915 100.785 237.915 100.52ZM238.18 98.135C238.18 98.135 238.445 97.87 238.445 97.605C238.445 97.34 238.18 97.34 238.18 97.075C238.18 97.075 238.18 97.075 238.18 97.34C238.18 97.605 237.915 97.87 238.18 98.135ZM238.71 96.545C238.71 96.28 238.71 96.28 238.71 96.28C238.71 96.015 238.71 96.015 238.71 95.75C238.445 96.015 238.445 96.015 238.445 96.015C238.445 96.28 238.445 96.28 238.71 96.545ZM238.975 102.905C239.24 102.64 239.24 102.64 239.24 102.375H238.975C238.975 102.375 238.975 102.375 238.975 102.64C238.975 102.64 238.975 102.64 238.975 102.905ZM239.24 94.16C239.24 93.895 239.24 93.895 239.24 93.63C239.24 93.63 239.24 93.365 238.975 93.365V93.63C238.975 93.895 238.71 93.895 238.975 94.16C239.24 94.16 239.24 94.16 239.24 94.16ZM239.505 100.255C239.505 100.255 239.505 99.99 239.77 99.99C239.505 99.99 239.505 99.725 239.505 99.725L239.24 99.99L239.505 100.255ZM239.505 92.57C239.505 92.04 239.505 91.51 239.77 90.98C239.77 90.98 240.035 90.98 240.035 90.715C240.035 90.45 240.035 90.185 240.035 89.655V89.39C239.77 89.655 239.77 89.655 239.77 89.655C239.77 90.185 239.77 90.45 239.77 90.98C239.505 91.245 239.505 91.245 239.505 91.245C239.24 91.775 239.24 92.04 239.24 92.57H239.505ZM240.035 98.4C240.035 98.135 240.035 98.135 239.77 97.87C239.77 98.135 239.77 98.135 239.77 98.4C239.77 98.4 239.77 98.4 239.77 98.665C240.035 98.4 240.035 98.4 240.035 98.4ZM240.035 105.025C240.035 104.76 240.035 104.76 240.035 104.495H239.77V105.29H240.035V105.025ZM242.95 104.495C243.48 103.7 243.215 103.17 242.95 102.375C242.95 102.375 242.95 102.375 242.95 102.11C242.95 102.375 242.685 102.375 242.685 102.375C242.685 102.905 242.155 103.435 242.155 103.965C242.155 104.76 241.625 105.555 241.095 106.35C240.83 106.35 240.83 106.35 240.83 106.35C240.83 106.085 240.83 106.085 240.565 106.085V106.35C240.83 106.35 240.83 106.35 240.83 106.35C240.83 106.35 240.83 106.35 241.095 106.35C241.095 106.615 241.095 106.88 240.83 107.145C240.565 107.94 240.565 109 240.565 109.795C240.3 109.795 240.035 110.06 240.035 110.325C240.035 110.325 240.3 110.325 240.3 110.59C240.3 110.59 240.565 110.59 240.565 110.325C240.565 110.325 240.565 110.06 240.565 109.795C240.565 109.795 240.83 109.795 240.83 109.53C241.36 107.94 242.155 106.085 242.95 104.495ZM245.335 100.785C245.335 100.785 245.6 100.785 245.6 100.52C245.6 100.52 245.6 100.52 245.335 100.52C245.335 100.785 245.335 100.785 245.335 100.785ZM245.865 99.725H246.13C246.13 99.46 245.865 99.46 245.865 99.195C245.865 99.46 245.6 99.46 245.6 99.46C245.6 99.725 245.865 99.725 245.865 99.725ZM247.19 93.1V92.835C247.19 92.305 246.925 91.775 246.925 91.245H246.66C246.395 91.775 246.13 92.04 246.13 92.57C246.13 93.1 246.13 93.365 245.6 93.895C245.335 94.16 245.335 94.425 245.335 94.69C244.805 95.75 244.54 97.075 244.01 98.135C243.48 99.195 243.48 100.255 243.215 101.315V101.58H243.48C244.01 100.255 244.805 98.4 245.335 96.545C245.335 96.545 245.335 96.28 245.6 96.015C245.6 95.75 246.395 95.485 246.395 94.69C246.13 94.16 246.925 93.895 247.19 93.1ZM247.455 95.485C247.72 95.485 247.72 95.485 247.72 95.22C247.72 95.22 247.72 95.22 247.72 94.955C247.455 94.955 247.455 95.22 247.455 95.22V95.485ZM247.455 91.775C247.72 91.775 247.72 91.775 247.72 91.775C247.72 91.51 247.72 91.51 247.455 91.51C247.455 91.51 247.455 91.51 247.455 91.775ZM248.515 93.365V93.1C248.515 92.835 248.515 92.835 248.515 92.835C248.25 92.835 248.25 93.1 248.25 93.1C248.25 93.365 248.25 93.365 248.25 93.63C247.985 93.63 247.72 93.895 247.72 94.16H247.985H248.25C248.25 93.895 248.25 93.895 248.25 93.63C248.25 93.365 248.515 93.365 248.515 93.365ZM248.78 91.775H249.045C249.045 91.51 248.78 91.51 248.78 91.51C248.78 91.51 248.78 91.51 248.78 91.775ZM248.78 87.27C248.515 87.27 248.515 87.27 248.515 87.27C248.78 86.74 248.515 86.21 249.045 85.68C249.31 85.415 249.045 84.885 249.045 84.62V84.355C248.78 84.355 248.78 84.355 248.78 84.62C248.25 86.21 247.72 87.8 247.19 89.39C246.925 89.655 246.925 89.92 246.925 90.185L247.19 90.45C247.455 89.92 247.455 89.92 247.72 89.655C247.72 89.92 247.72 89.92 247.72 90.185L247.985 90.45L248.25 90.185C248.25 89.92 248.25 89.92 248.25 89.655C248.515 89.655 248.515 89.39 248.515 89.125C248.515 88.86 248.515 88.86 248.515 88.595H248.78V88.33C249.045 88.065 249.045 87.535 248.78 87.27ZM249.31 90.45V90.185C249.045 90.45 249.045 90.45 249.31 90.45ZM252.49 75.345C252.49 75.345 252.49 75.08 252.225 75.08H251.96C251.695 75.61 251.43 76.14 251.165 76.67C251.165 77.995 250.37 79.32 250.105 80.645C249.84 81.44 249.31 82.235 249.575 83.295C249.31 83.295 249.31 83.56 249.31 83.56C249.045 83.56 249.31 83.825 249.31 83.56C249.31 83.56 249.31 83.56 249.575 83.295H249.84C249.84 83.56 249.84 83.825 249.84 83.825L250.105 84.09L250.37 83.825C250.37 83.825 250.37 83.56 250.37 83.295C250.635 83.295 250.635 83.03 250.635 82.765C250.635 82.5 250.635 82.5 250.37 82.5C250.105 81.705 250.9 80.91 250.9 80.115C250.9 79.585 251.43 79.055 251.165 78.525C251.96 77.465 251.96 76.405 252.49 75.345ZM255.405 60.77C256.73 55.47 258.32 50.7 259.91 45.665C261.235 40.1 262.56 34.27 263.62 28.44C264.415 24.465 267.065 16.78 265.475 12.54C263.09 13.6 261.765 19.165 260.97 21.285C259.115 25.525 257.79 29.765 256.465 34.005C254.08 42.22 252.49 50.965 250.635 59.445C250.105 61.565 248.515 67.66 253.02 65.01C254.875 64.215 254.875 62.625 255.405 60.77ZM257.79 61.035C257.79 61.035 257.79 61.035 258.055 61.035L257.79 60.77C257.79 60.77 257.79 60.77 257.79 61.035ZM258.32 69.515C258.585 69.25 258.85 69.25 258.85 68.72L258.585 68.455C258.32 68.72 258.055 68.985 258.055 69.25C258.055 69.515 258.32 69.515 258.32 69.515ZM258.585 58.385C258.85 58.385 259.38 58.12 259.38 57.59C259.38 57.59 259.115 57.59 259.115 57.325C259.115 57.325 259.115 57.325 259.115 57.59C258.585 57.59 258.585 57.855 258.585 58.385ZM260.175 53.88H260.44C260.97 52.82 261.235 51.76 260.97 50.435L260.705 50.17V50.435C260.705 50.7 260.44 51.23 260.175 51.495C260.175 52.025 259.91 52.555 259.91 52.82C259.91 53.085 260.175 53.615 260.175 53.88C259.91 53.88 259.91 54.145 259.91 54.145C259.91 54.675 259.645 55.205 259.38 55.735C259.38 55.735 259.38 55.735 259.645 56V55.735C259.91 55.735 260.175 55.47 260.175 55.205C260.175 54.675 260.175 54.41 260.175 53.88ZM273.955 67.925C278.46 67.66 283.23 66.6 288 66.335C286.675 66.335 282.7 66.07 280.315 66.335C277.93 66.6 275.28 66.865 272.895 66.865C271.04 67.13 261.5 67.13 260.97 68.985C260.97 68.985 272.63 68.19 273.955 67.925ZM290.915 65.805C291.18 65.805 288.265 64.48 288.265 65.805C289.06 65.805 290.12 65.805 290.915 65.805ZM294.89 65.54C294.36 65.54 296.48 65.275 294.89 65.54V65.54ZM303.9 65.01C304.96 64.745 303.105 63.95 302.84 64.745C302.84 65.01 304.165 65.01 303.9 65.01ZM321.92 63.155C322.715 63.685 323.245 63.685 324.305 63.155C324.305 63.155 322.715 62.36 321.92 63.155ZM328.015 63.155C328.015 63.155 326.955 62.625 326.16 63.155C326.69 63.42 327.485 63.42 328.015 63.155ZM340.47 64.48C340.735 64.215 339.94 64.215 339.94 64.48C339.94 64.48 340.205 64.745 340.47 64.48ZM280.89 145.57C280.625 145.57 280.89 145.57 280.89 145.57V145.57ZM317.195 131.26C317.99 131.525 312.955 136.56 312.425 136.825C309.775 138.15 310.57 138.415 308.715 140.27C306.86 142.125 288.84 151.93 289.9 154.315C289.9 154.58 291.755 153.785 291.755 153.785C291.755 154.315 290.165 156.17 289.9 156.965C289.105 158.555 289.105 158.025 288.84 160.41C288.575 165.445 288.045 170.48 286.455 175.515C284.6 181.08 281.42 185.32 277.71 189.56C275.855 191.415 271.35 196.98 268.965 196.715C269.23 195.655 270.82 195.39 270.82 194.33C268.17 194.33 266.05 197.775 263.135 197.775C259.69 197.51 260.485 194.86 257.04 196.45C257.04 196.185 257.835 195.39 257.305 194.86C257.04 194.595 256.245 195.92 255.98 194.86C255.715 194.33 256.51 192.475 256.245 192.21C245.645 189.56 266.845 168.89 270.025 165.71C272.145 163.325 274.265 161.205 276.65 158.82C278.505 157.23 282.48 154.845 283.275 152.725C284.335 149.81 280.095 143.98 278.24 141.595C275.06 137.09 271.615 133.38 271.085 127.55C270.555 122.78 272.145 117.745 275.59 114.3C278.505 111.385 284.6 107.145 288.84 107.145C291.225 107.145 291.225 108.205 292.55 109.53C292.815 109.795 294.67 110.855 294.67 111.12C294.935 112.975 293.61 111.915 292.815 112.445C293.61 111.915 295.2 113.505 295.465 113.77C292.815 114.83 289.9 114.565 286.72 115.625C283.275 116.95 279.83 119.335 277.71 122.515C271.88 130.465 277.445 136.03 282.48 142.39C283.54 143.98 285.66 149.28 287.78 149.545C289.635 149.81 295.465 144.245 297.32 142.92C301.03 140.27 304.74 137.62 308.45 135.235C310.835 133.645 314.28 130.2 317.195 131.26ZM260.75 194.595C261.015 194.595 263.665 195.125 263.665 194.33C263.665 194.33 260.75 193.8 260.485 194.065C260.485 194.33 260.485 194.33 260.75 194.595ZM263.665 194.33C264.99 194.33 266.58 193.8 267.64 192.74C267.375 193.005 263.665 193.27 263.665 194.33ZM267.64 192.475C267.905 192.475 268.435 192.74 268.435 192.21C268.17 192.21 267.64 191.945 267.64 192.475ZM268.435 192.21C268.7 192.21 268.7 191.945 268.7 191.68C268.7 191.68 268.435 191.945 268.435 192.21ZM268.965 191.68C269.23 191.68 269.23 191.15 268.965 191.68V191.68ZM270.82 190.355C270.555 190.09 271.085 190.09 270.82 190.355V190.355ZM271.085 194.33C271.35 194.33 271.35 194.065 271.35 193.8C271.085 193.8 271.085 194.065 271.085 194.33ZM271.35 193.8C271.88 193.8 272.145 194.065 272.145 193.535C271.88 193.535 271.615 193.27 271.35 193.8ZM272.145 193.535C272.41 193.27 272.675 193.27 272.675 193.005C272.41 193.005 272.145 193.27 272.145 193.535ZM272.94 192.74C272.675 193.535 273.205 192.475 272.94 192.74V192.74ZM285.66 159.085C285.925 159.085 285.395 157.495 285.395 157.23C285.395 157.76 274.795 167.3 273.205 168.89C271.085 171.275 269.23 173.395 267.11 175.78C266.845 176.045 263.93 178.96 265.785 178.96C265.52 180.285 260.75 185.85 262.87 185.585C262.605 188.235 257.57 192.475 262.87 191.68C267.11 191.15 271.35 186.645 274 183.73C277.18 180.285 280.095 176.045 281.95 171.275C283.805 167.3 284.07 163.06 285.66 159.085ZM294.67 149.015C294.67 149.015 294.67 149.015 294.935 149.015C294.67 149.015 294.67 149.015 294.67 149.015ZM296.26 147.425C296.26 147.425 296.525 146.895 296.26 147.425V147.425ZM296.26 147.425C296.26 147.69 296.26 147.425 296.26 147.425V147.425ZM296.525 147.425C297.055 147.425 297.32 147.425 297.32 146.895C297.055 146.895 296.79 146.895 296.525 147.425ZM297.85 146.63C297.32 147.425 297.85 146.365 297.85 146.63V146.63ZM303.415 142.655C303.68 142.655 303.68 141.86 303.415 142.655V142.655ZM304.74 141.86C305.27 141.86 305.8 141.595 306.065 141.065C305.27 140.8 305.005 141.065 304.74 141.86ZM306.065 140.8C306.595 141.065 307.125 140.8 307.125 140.005C306.595 140.005 306.065 140.27 306.065 140.8ZM307.39 140.005C308.185 140.27 308.45 139.475 308.98 138.945C307.92 138.68 307.655 139.475 307.39 140.005ZM308.98 138.68C309.245 138.68 309.245 138.15 308.98 138.68V138.68ZM310.04 137.09C309.775 136.825 310.57 136.56 310.04 137.09V137.09ZM311.63 135.765C311.895 135.765 311.895 135.235 311.63 135.765V135.765ZM315.075 133.645C315.34 133.645 315.34 133.115 315.075 133.645V133.645ZM292.285 153.255C292.55 152.725 292.815 152.46 293.61 152.46C293.345 152.99 293.08 153.255 292.285 153.255ZM275.59 138.945C275.855 139.475 275.855 139.74 276.12 140.005C274.795 139.74 275.325 138.68 275.59 138.945ZM289.9 159.615C289.635 159.35 289.635 159.35 289.9 158.82C290.165 159.085 290.165 159.35 289.9 159.615ZM293.61 152.195C293.61 152.195 293.61 152.195 293.875 152.195C293.875 151.93 293.61 152.195 293.61 152.195ZM292.02 153.785C292.02 153.52 292.02 153.255 292.285 153.255C292.285 153.52 292.285 153.785 292.02 153.785ZM292.02 153.785C291.755 153.785 292.02 153.785 292.02 153.785V153.785ZM294.405 115.095C293.875 114.3 294.67 115.36 294.405 115.095V115.095ZM294.14 114.83C293.875 114.83 294.14 114.83 294.14 114.83V114.83ZM276.385 140.27C275.855 139.475 276.65 140.535 276.385 140.27V140.27ZM255.45 193.27C255.715 193.535 255.715 193.535 255.45 193.27V193.27ZM255.185 193.27C255.185 193.005 255.715 193.8 255.185 193.27V193.27ZM277.975 142.655C277.71 142.655 278.505 142.39 277.975 142.655V142.655ZM257.57 196.98C257.04 197.245 257.835 196.715 257.57 196.98V196.98ZM268.435 197.245C268.435 196.45 268.7 197.51 268.435 197.245V197.245ZM268.7 196.98C268.965 196.98 268.965 196.715 268.7 196.98V196.98ZM278.77 143.715C278.505 143.715 279.565 143.45 278.77 143.715V143.715ZM279.035 143.98C279.3 143.98 279.565 143.98 279.565 144.245C279.3 144.245 279.035 144.245 279.035 143.98ZM279.565 144.245C279.565 144.51 279.565 144.245 279.565 144.245V144.245ZM279.83 144.775C279.565 144.775 279.565 144.51 279.565 144.245C279.83 144.51 279.83 144.51 279.83 144.775ZM279.83 144.775C279.83 144.775 280.095 144.775 279.83 144.775V144.775ZM280.095 145.04C279.3 145.305 280.89 145.04 280.095 145.04V145.04ZM280.36 145.835C280.36 145.04 280.625 146.63 280.36 145.835V145.835ZM280.89 146.1C280.89 146.895 281.685 146.1 280.89 146.1V146.1ZM281.155 146.365C281.155 146.63 281.155 146.365 281.155 146.365V146.365Z" fill="white"/>
</svg>
