<svg width="369" height="207" viewBox="0 0 369 207" fill="none" xmlns="http://www.w3.org/2000/svg">
<path d="M68.25 157.495C68.25 157.495 68.515 157.495 68.25 157.495V157.495ZM53.94 38.51C54.205 38.51 54.205 38.51 54.205 38.51H53.94ZM98.46 27.115C98.725 33.21 97.135 39.305 95.81 45.135C95.015 48.05 94.22 51.23 92.895 54.145C92.365 55.205 91.835 56.53 91.305 57.59C90.775 58.65 90.245 61.035 89.45 58.915C88.92 60.505 88.125 62.095 87.595 63.685C87.065 64.745 85.21 67.66 87.33 66.335C84.415 74.02 80.97 81.705 75.14 87.8C71.96 91.245 65.6 103.7 59.24 98.4C70.635 79.85 79.645 59.975 85.74 39.04C86.27 42.75 84.15 46.725 83.09 50.17C81.765 53.88 80.175 57.855 78.85 61.565C75.67 69.515 72.225 77.465 68.515 85.15C70.635 84.885 72.755 77.995 73.55 76.405C75.14 72.695 76.73 68.985 78.32 65.01C81.235 57.59 84.15 49.905 86.535 42.22C83.355 57.59 76.465 71.9 69.84 85.945C70.9 86.21 71.695 83.825 72.225 83.03C72.755 82.5 73.815 82.235 74.345 81.175C75.405 79.85 75.935 78.26 76.465 76.67C79.115 71.105 81.765 65.54 84.15 59.71C85.21 56.795 86.535 53.615 87.33 50.435C87.86 49.375 88.125 48.05 88.655 46.99C88.92 46.46 89.98 46.195 89.98 45.665C90.245 44.605 89.45 43.545 89.715 42.485C89.715 41.955 91.04 42.22 91.04 41.955C91.835 39.57 91.57 36.39 91.835 33.74C92.63 34.005 92.895 34.535 92.895 35.33C93.69 29.5 92.63 14.13 83.355 18.105C79.91 19.43 77.525 22.345 74.61 24.465C70.37 27.645 66.66 30.03 63.215 34.005C59.505 38.245 56.59 43.015 53.41 47.52C51.82 49.375 50.23 53.615 48.11 54.94C47.05 55.735 47.05 54.94 47.05 54.41C47.315 53.085 50.23 48.845 51.025 47.52C52.615 44.87 57.915 40.1 58.18 36.655C55.265 36.92 54.735 44.075 51.82 44.34C51.82 43.28 56.325 37.185 56.06 37.185C55.795 36.92 55 37.98 54.735 37.715C54.735 37.45 55.265 36.655 55 36.39C54.47 36.92 51.82 40.1 53.94 38.51C52.615 40.1 39.365 63.685 38.04 62.89C38.57 63.685 38.57 64.215 37.775 65.01C36.98 65.275 36.45 65.805 36.98 66.865C36.45 67.925 35.655 68.985 34.86 70.31C33.005 72.695 32.21 75.08 30.885 77.73C26.645 86.21 23.2 95.485 19.755 104.495C13.13 122.515 8.625 141.86 9.42 161.205C9.95 169.95 11.275 178.695 16.045 186.115C17.635 188.765 20.285 192.74 23.465 193.27C26.91 193.8 30.355 190.885 33.005 189.56C40.425 184.79 46.785 178.96 53.145 172.865C56.06 169.685 59.24 166.505 61.89 163.325C63.48 161.47 66.395 156.435 68.515 155.905C69.31 155.64 66.66 159.085 66.66 159.085C65.335 161.205 64.01 163.325 62.685 165.18C58.975 170.48 54.735 175.25 50.76 180.285C44.93 187.97 35.655 195.92 26.115 198.835C1.205 206.52 0.94 159.88 2.53 145.835C4.915 122.515 13.395 98.93 22.935 77.73C32.21 56.795 44.4 36.125 60.3 19.695C64.01 15.72 68.25 12.275 72.755 9.095C74.875 7.76998 77.26 5.91499 79.645 5.11999C82.03 4.325 82.295 4.85499 84.68 6.44498C92.1 11.745 98.195 17.31 98.46 27.115ZM37.51 64.745C36.98 64.48 37.775 64.48 37.51 64.745V64.745ZM55.265 36.125C55.53 36.125 55.53 36.125 55.53 35.86C55.265 35.86 55.265 35.86 55.265 36.125ZM55.53 35.86C56.325 35.595 56.59 35.33 56.325 34.535C55.795 34.8 55.53 35.065 55.53 35.86ZM57.12 33.475C56.855 33.74 57.915 32.945 57.12 33.475V33.475ZM57.65 33.21C57.12 33.74 57.915 32.68 57.65 33.21V33.21ZM60.3 34.8C60.83 34.27 58.18 35.33 58.18 36.655C59.24 36.655 59.505 35.33 60.3 34.8ZM61.89 32.68C61.36 32.945 62.155 32.415 61.89 32.68V32.68ZM62.155 27.115C61.89 26.85 62.42 26.85 62.155 27.115V27.115ZM62.95 26.055C62.685 26.585 63.48 25.525 62.95 26.055V26.055ZM71.43 17.84C71.695 17.84 71.695 17.84 71.695 17.575C71.43 17.575 71.43 17.575 71.43 17.84ZM71.695 17.575C71.96 17.31 72.225 17.31 72.225 17.045C71.96 17.045 71.695 17.31 71.695 17.575ZM72.225 17.045C72.49 17.045 72.755 16.78 72.755 16.515C72.49 16.515 72.225 16.78 72.225 17.045ZM74.08 15.72C73.815 14.925 74.08 15.985 74.08 15.72V15.72ZM74.345 15.19C74.61 15.19 74.875 15.19 74.875 14.925C74.61 14.925 74.345 14.925 74.345 15.19ZM74.875 14.925C75.14 14.925 75.14 14.13 74.875 14.925V14.925ZM76.465 13.865C76.465 13.6 76.2 14.13 76.2 14.13C76.2 14.13 76.2 14.13 76.465 13.865ZM78.585 12.275C78.055 12.54 77.26 12.54 78.055 12.805C78.32 12.54 78.32 12.54 78.585 12.275ZM78.585 12.275C78.85 12.275 79.38 12.54 79.38 12.01C79.115 12.01 78.85 11.745 78.585 12.275ZM66.925 89.125C67.455 88.86 67.985 87.8 67.985 87.005C67.19 87.27 66.66 88.595 66.925 89.125ZM68.25 86.74C68.515 86.21 67.985 86.21 67.985 86.74C67.985 87.27 67.985 87.27 68.25 86.74ZM68.78 85.68C68.25 85.945 69.31 85.15 68.78 85.68V85.68ZM70.105 86.475C70.105 85.945 70.105 85.945 69.575 86.475C69.575 87.005 70.105 87.005 70.105 86.475ZM90.775 14.13C91.04 14.925 92.365 15.19 93.16 15.455C93.955 15.985 92.365 13.6 90.775 14.13ZM86.005 64.48C85.21 64.48 85.475 65.01 85.475 65.275C86.005 65.275 85.74 64.745 86.005 64.48ZM84.945 65.54C84.945 66.07 85.475 66.07 85.475 65.54C85.475 65.275 85.475 65.01 84.945 65.54ZM81.5 77.995C81.765 77.73 81.765 77.465 81.5 77.2C80.97 77.73 81.235 77.73 81.5 77.995ZM82.03 76.405C82.56 76.14 82.56 75.875 82.295 75.61C82.03 75.61 81.235 76.405 82.03 76.405ZM83.355 73.755C83.355 73.225 83.355 73.225 82.825 73.755C82.825 74.285 83.355 74.02 83.355 73.755ZM83.62 72.96C83.885 72.43 83.355 72.695 83.355 72.96C83.355 73.49 83.355 73.49 83.62 72.96ZM83.885 68.72C83.62 68.985 84.15 68.985 84.15 68.72C84.15 68.19 84.15 68.19 83.885 68.72ZM84.415 71.37C84.68 71.105 84.68 70.84 84.415 70.84C83.885 71.105 84.415 71.9 84.415 71.37ZM84.15 68.19C84.68 68.19 84.68 67.66 84.68 67.395C84.15 67.395 84.15 67.925 84.15 68.19ZM84.68 67.13C84.415 67.395 84.68 67.395 84.945 67.13C84.945 66.6 84.68 66.6 84.68 67.13ZM85.21 70.045C85.475 69.78 85.475 69.25 85.475 68.72C84.68 68.72 84.415 70.84 85.21 70.045ZM85.475 68.72C86.005 68.72 85.74 68.19 85.74 67.925C85.21 67.925 85.475 68.455 85.475 68.72ZM86.005 67.925C86.535 67.66 86.27 67.395 86.27 66.865C85.74 67.13 86.005 67.395 86.005 67.925ZM86.8 62.89C87.33 62.095 87.595 61.035 87.595 60.24C86.535 60.505 85.74 63.42 86.005 64.48C86.535 63.95 86.8 63.42 86.8 62.89ZM90.245 58.65C90.245 58.12 89.715 58.12 89.715 58.385C89.715 58.915 89.715 58.915 90.245 58.65ZM92.1 52.82C92.365 52.555 92.365 52.29 92.1 52.025C91.835 52.29 91.835 52.555 92.1 52.82ZM92.365 51.495C92.365 51.76 92.895 51.23 92.365 51.495V51.495ZM93.16 50.17C93.16 49.64 93.16 49.64 92.895 49.64C92.63 49.905 92.895 50.435 93.16 50.17ZM91.305 51.495C91.835 49.64 92.365 45.135 93.425 44.075C93.16 41.425 95.015 37.98 95.28 35.33C95.545 32.68 96.075 25.79 94.22 23.935C93.16 24.995 94.485 30.56 94.485 32.415C94.22 35.595 93.69 38.51 92.895 41.69C92.365 44.605 91.57 47.52 90.775 50.435C89.98 52.82 87.065 57.59 87.595 60.24C88.92 59.975 90.775 53.085 91.305 51.495ZM93.955 47.255C93.955 46.99 93.955 46.725 93.69 46.46C93.425 46.99 93.425 46.99 93.955 47.255ZM94.22 45.93C94.485 46.195 94.22 45.4 94.22 45.4C93.955 45.4 93.955 45.665 94.22 45.93ZM95.81 39.835C96.34 39.305 96.34 37.98 96.075 37.715C95.015 38.51 94.22 43.545 94.485 44.605C95.81 43.545 94.75 40.895 95.81 39.835ZM96.34 34.8C96.605 34.535 96.605 34.27 96.34 34.27C96.075 34.535 96.075 34.8 96.34 34.8ZM38.835 62.625C38.305 63.155 39.1 62.095 38.835 62.625V62.625ZM70.635 152.46C72.49 152.46 69.31 157.495 69.31 158.025C69.575 158.82 69.84 159.35 69.575 159.88C69.045 160.41 68.515 160.94 67.985 161.47C67.455 162.265 66.925 163.325 66.395 164.12C65.6 165.18 63.215 168.36 64.275 169.685C64.54 169.95 65.335 167.83 66.13 168.095C66.925 168.625 63.745 171.275 63.215 171.54C62.685 171.805 62.95 170.215 62.685 170.215C61.89 170.215 61.625 171.01 60.83 171.01C60.83 166.24 67.985 162.265 68.515 157.495C69.84 157.23 69.31 152.46 70.635 152.46ZM68.78 156.7C68.78 156.7 68.78 156.435 68.78 156.7V156.7ZM91.835 26.85C91.835 27.645 93.425 33.21 91.305 30.295C89.715 28.175 91.04 21.815 89.185 20.225C91.04 21.815 91.305 24.73 91.835 26.85ZM50.23 183.465C51.025 182.67 50.495 184.79 50.495 184.525C50.23 185.32 48.11 186.91 47.58 187.44C46.255 188.5 43.34 192.21 41.485 191.945C42.81 189.295 47.845 185.585 50.23 183.465ZM40.955 192.475C40.955 192.475 41.22 192.475 40.955 192.475V192.475ZM33.535 196.98C33.535 195.655 38.305 194.33 39.365 193.27C39.63 192.74 40.425 192.475 40.955 192.475C40.425 193.8 33.535 197.51 33.535 196.98ZM52.615 181.08C52.35 180.02 57.65 176.31 57.65 176.575C57.65 177.105 52.88 181.875 52.615 181.08ZM86.27 34.535C86.535 34.27 86.535 34.005 86.8 33.74C87.86 34.27 85.475 41.955 86.27 34.535ZM56.06 180.285C56.855 179.49 57.65 178.695 58.445 177.9C58.445 179.225 55.795 180.55 56.06 180.285ZM58.445 177.9C58.445 177.9 58.71 177.9 58.445 177.9V177.9ZM87.065 29.5C87.065 30.03 87.33 32.945 87.065 33.21C86.27 32.415 87.065 28.705 87.065 29.5ZM51.82 44.34C51.82 44.34 51.025 46.725 50.76 46.46C50.495 46.195 50.23 45.93 50.495 45.4C50.76 44.87 51.29 44.605 51.82 44.34ZM64.54 34.005C64.54 35.595 62.42 36.125 62.95 35.595C63.215 35.065 63.745 34.535 64.54 34.005ZM11.805 164.65C11.54 164.65 11.805 161.47 11.805 161.47C12.07 161.735 12.335 164.385 11.805 164.65ZM65.335 32.68C65.335 31.885 65.865 31.885 66.13 32.15C66.66 32.68 65.07 33.475 65.07 33.74C65.07 33.475 65.07 32.945 65.335 32.68ZM75.935 75.61C76.465 75.61 75.14 77.2 75.14 76.405C75.405 76.14 75.405 75.875 75.935 75.61ZM88.39 62.89C88.92 62.625 88.92 63.42 88.125 63.95C87.86 63.42 88.125 63.42 88.39 62.89ZM88.92 61.83C88.125 61.83 89.715 59.975 89.715 60.77C89.715 61.3 89.45 61.565 88.92 61.83ZM11.805 158.82C12.07 159.085 12.07 159.615 11.805 159.88C11.54 159.615 11.54 159.085 11.805 158.82ZM87.595 64.745C87.595 64.48 88.125 64.48 87.86 65.01C87.595 65.275 87.595 65.275 87.595 64.745ZM87.595 65.275C87.595 65.54 87.595 66.07 87.065 66.07C87.065 65.805 87.065 65.275 87.595 65.275ZM91.835 32.68C92.1 31.885 92.1 31.885 92.365 32.415C92.365 32.68 92.1 32.68 91.835 32.68ZM64.54 34.005C64.54 33.74 64.805 33.74 65.07 33.74C65.07 34.005 64.805 34.005 64.54 34.005ZM69.045 155.11C68.78 154.845 69.31 154.845 69.045 155.11V155.11ZM60.565 171.275C60.83 171.01 60.83 171.01 60.565 171.275V171.275ZM60.565 171.54C60.3 171.54 61.36 171.01 60.565 171.54V171.54ZM59.505 174.19C59.77 174.455 59.77 173.925 59.505 174.19V174.19ZM58.71 177.9C58.445 177.9 58.71 177.9 58.71 177.9V177.9ZM58.71 177.635C57.915 178.165 58.975 177.37 58.71 177.635V177.635ZM40.955 192.475C41.22 192.21 41.22 191.945 41.485 191.945C41.485 192.21 41.22 192.475 40.955 192.475ZM114.256 133.645C115.316 142.39 107.101 152.725 101.801 159.085C99.6815 161.735 95.9715 167.035 91.9965 166.505C89.3465 165.975 84.8415 162.53 84.0465 160.145C82.4565 155.905 84.8415 150.605 86.6965 146.895C87.7565 145.04 90.1415 142.655 90.6715 140.535C90.9365 138.415 90.9365 139.74 89.0815 137.885C86.6965 135.5 86.4315 132.32 88.0215 129.14C88.5515 127.815 92.2615 122.515 94.1165 123.045C94.1165 123.31 94.1165 123.575 93.8515 123.84C94.9115 123.045 110.016 127.285 109.486 127.55C109.221 127.55 106.571 127.02 106.571 127.815C106.836 128.345 110.546 129.14 111.341 129.405C112.931 130.465 113.991 131.79 114.256 133.645ZM103.656 126.755C103.126 127.02 105.511 127.55 106.306 127.02C105.246 126.49 104.716 126.225 103.656 126.755ZM99.1515 129.935C98.3565 130.465 97.8265 131.26 97.2965 132.055C98.6215 131.79 99.9465 129.405 99.1515 129.935ZM97.2965 132.055C97.0315 132.055 96.7665 132.055 96.7665 132.32C97.0315 132.32 97.2965 132.32 97.2965 132.055ZM96.7665 132.32C96.5015 132.32 96.5015 132.585 96.5015 132.85C96.7665 132.85 96.7665 132.585 96.7665 132.32ZM96.5015 132.85C96.2365 132.85 95.9715 132.85 95.9715 133.115C96.2365 133.115 96.5015 133.115 96.5015 132.85ZM92.2615 139.74C91.9965 140.27 92.7915 139.74 92.2615 139.74V139.74ZM91.9965 125.96C91.4665 126.225 92.2615 125.96 91.9965 125.96V125.96ZM89.6115 136.295C89.8765 136.56 91.2015 138.15 91.9965 137.885C94.1165 137.355 88.0215 134.705 89.6115 136.295ZM102.066 148.485C102.331 148.485 102.331 148.22 102.331 147.69C101.801 147.955 102.066 148.22 102.066 148.485ZM102.066 146.365C101.801 146.1 102.331 146.895 102.066 146.365V146.365ZM102.596 147.69C102.331 148.22 102.861 147.16 102.596 147.69V147.69ZM104.186 145.305C104.716 144.775 103.656 144.775 103.656 145.305C103.921 145.57 103.921 145.57 104.186 145.305ZM103.656 143.185C103.656 142.92 103.921 143.715 103.656 143.185V143.185ZM104.451 142.125C104.451 141.595 104.451 141.595 104.186 142.125C103.921 142.655 104.451 142.655 104.451 142.125ZM104.981 141.065C104.451 141.065 104.451 141.33 104.451 141.86C104.981 141.595 104.981 141.33 104.981 141.065ZM104.716 143.715C104.451 143.98 105.511 143.45 104.716 143.715V143.715ZM104.981 143.45C105.246 143.185 105.511 142.92 105.246 142.92C104.981 142.92 104.716 143.185 104.981 143.45ZM105.776 141.86C106.306 141.595 106.041 141.33 106.041 141.065C105.511 141.065 105.776 141.33 105.776 141.86ZM108.161 137.355C108.956 134.97 107.631 131.26 105.246 129.67C104.186 128.875 100.476 128.08 99.6815 129.935C100.211 128.875 102.331 130.465 102.331 130.73C103.126 132.32 101.801 133.115 101.271 134.44C99.1515 137.355 97.2965 140.535 95.7065 143.98L91.2015 157.76C94.3815 157.76 98.8865 148.485 99.9465 146.365C101.801 143.715 103.391 140.8 104.716 137.885C105.246 136.825 105.246 134.175 106.041 133.38C106.041 133.645 105.776 140.8 104.981 140.8C105.511 140.8 105.776 139.21 106.041 139.21C106.306 142.92 107.631 138.68 108.161 137.355ZM217.468 135.765C217.468 136.03 217.468 136.03 217.468 136.03C216.938 136.295 216.673 136.825 216.408 137.09C214.818 137.62 213.758 138.68 212.433 139.475C211.638 139.74 211.108 140.27 210.313 140.8C210.313 140.8 210.048 140.8 210.048 141.065C210.048 141.065 210.048 141.33 210.313 141.33C209.253 142.655 207.398 142.92 206.073 144.245C204.748 146.1 203.423 147.16 201.303 148.22C200.243 149.015 198.918 149.545 197.858 150.34C197.063 150.87 196.268 151.4 195.473 151.665C195.208 151.93 194.943 152.195 194.943 152.46C195.473 152.46 196.003 152.46 196.533 151.93C197.328 151.135 198.653 150.87 199.713 150.34H199.978C197.858 153.255 193.353 155.905 189.643 156.965C188.848 157.23 187.788 157.76 186.993 157.76C176.393 159.615 169.238 148.75 166.588 140.005C166.588 139.74 166.323 139.74 166.323 139.475C166.058 137.885 164.998 137.62 163.673 137.62C163.143 137.355 162.878 137.62 162.613 137.62C162.348 137.62 162.083 137.62 162.083 137.885C161.818 138.415 161.288 138.68 161.023 138.68C159.433 139.475 157.843 140.27 156.518 141.33C154.663 142.655 152.543 143.98 150.688 145.57C147.773 147.69 145.123 150.34 142.738 153.255C140.883 155.375 139.028 157.495 137.438 159.88C137.438 159.88 137.438 160.145 137.173 160.145C136.643 160.94 136.378 161.735 135.848 162.53L135.583 162.795C134.788 163.325 133.463 165.18 132.403 164.65C132.138 164.65 131.873 164.385 131.873 164.12C131.873 163.855 132.138 163.59 132.138 163.325C132.403 163.06 132.403 162.795 132.138 162.795C131.343 164.12 129.488 163.325 128.693 162.265C128.693 162 128.428 161.735 128.428 161.47C128.428 158.025 128.163 154.315 128.958 150.87C129.488 147.16 130.283 143.185 130.813 139.475C131.078 137.09 131.608 134.705 131.873 132.32C132.138 130.73 131.873 128.345 132.668 126.755C132.933 126.49 132.668 126.225 132.668 125.695C132.668 125.43 132.138 125.165 132.668 125.165C132.933 125.165 133.198 125.165 133.463 125.43C134.258 125.695 134.523 126.49 135.318 126.49C136.908 127.815 138.233 129.14 138.233 130.995C138.233 132.055 138.233 132.85 138.498 133.91C138.498 134.175 138.498 134.705 138.498 134.97C138.498 135.235 138.498 135.765 138.498 136.03C138.498 136.825 138.498 141.86 137.703 142.39C137.173 142.655 136.908 142.92 136.378 143.45C135.848 142.92 135.848 143.185 135.848 143.715C135.848 144.245 135.848 144.51 135.848 144.775C135.848 145.04 136.113 145.305 136.378 145.04H136.643C136.908 144.51 137.438 144.245 137.968 144.51C137.968 144.775 137.968 144.775 137.968 145.04H138.233C138.763 145.04 139.028 144.775 139.558 144.51C143.268 141.065 147.773 137.62 152.543 135.235C156.783 133.115 161.818 131.79 166.058 134.705C166.588 134.97 166.853 135.235 167.118 135.765C167.648 137.09 168.443 138.15 168.973 139.475C170.828 144.775 176.128 153.255 182.753 152.725C190.438 152.195 197.593 146.365 204.218 142.655C207.398 140.8 211.108 138.415 214.553 137.09C215.348 136.825 216.143 136.56 216.673 136.03C216.938 135.765 216.938 135.765 217.203 135.765C217.203 135.765 217.203 135.765 217.468 135.765ZM137.173 130.465C136.908 130.73 136.908 130.995 136.908 130.995C136.908 131.525 136.908 131.79 136.908 132.055C137.173 132.055 137.173 132.055 137.173 132.32C137.173 132.055 137.438 132.055 137.438 132.055C137.438 131.525 137.438 130.995 137.703 130.465V130.2C137.438 130.2 137.173 130.465 137.173 130.465ZM136.908 134.175C136.643 134.175 136.643 134.44 136.643 134.705C136.643 134.705 136.643 134.705 136.908 134.705C137.173 134.705 136.908 134.44 136.908 134.175ZM136.378 135.5C136.378 135.5 136.113 135.5 136.113 135.765C136.113 136.03 136.113 136.56 136.378 136.825C136.378 136.825 136.378 136.825 136.378 137.09C136.378 136.825 136.378 136.825 136.378 136.825C136.643 136.56 136.643 136.56 136.643 136.56C136.643 136.03 136.643 135.765 136.643 135.765C136.643 135.5 136.378 135.5 136.378 135.5ZM135.848 139.74C135.583 140.005 135.848 140.005 135.848 140.27C136.113 140.27 136.113 140.005 136.113 140.005C136.113 139.74 135.848 139.74 135.848 139.74ZM141.413 144.51H141.148H141.413ZM137.173 156.17C137.438 155.905 137.703 155.64 137.703 155.11C137.438 155.11 137.173 155.11 136.908 155.375C137.173 155.64 137.173 155.905 137.173 156.17ZM141.413 151.4C141.413 151.135 141.413 150.87 141.413 150.605C140.088 151.665 139.028 152.99 137.703 154.315C137.703 154.58 137.703 154.845 137.703 154.845C139.028 154.05 140.088 152.46 141.413 151.4ZM151.218 142.92C151.748 142.655 152.013 142.39 152.278 141.86C152.013 141.86 151.483 141.86 151.483 141.86C150.423 142.125 149.893 142.92 149.363 143.45C148.038 144.245 146.713 145.305 145.388 146.63C144.858 146.895 144.328 147.425 144.063 147.69C143.268 148.485 142.473 149.015 141.943 149.81C141.678 150.075 141.413 150.34 141.413 150.605C141.943 150.87 142.208 150.605 142.473 150.34C143.268 149.545 144.328 148.75 145.123 147.69C146.183 146.63 147.773 145.835 148.833 144.51C149.893 144.245 150.158 143.185 151.218 142.92ZM155.988 139.74C156.253 139.475 156.253 139.475 156.518 139.21C154.928 139.475 153.073 140.535 152.278 141.595C152.278 141.595 152.278 141.595 152.278 141.86C152.278 141.86 152.543 141.86 152.808 141.595C153.868 141.065 154.928 140.27 155.988 139.74ZM156.518 139.21C156.783 139.21 157.048 139.21 157.313 138.68C157.048 138.68 156.518 138.68 156.518 139.21ZM157.843 138.68C157.843 138.68 158.108 138.68 158.108 138.415H157.843C157.578 138.415 157.313 138.415 157.313 138.68C157.578 138.68 157.578 138.68 157.843 138.68ZM159.168 138.15C159.168 138.15 159.168 137.885 158.903 137.885C158.903 137.885 158.903 138.15 158.638 138.15C158.903 138.15 158.903 138.15 159.168 138.15ZM193.883 153.255C193.883 152.99 193.883 152.99 193.883 152.99C193.883 152.99 193.618 152.99 193.883 153.255ZM194.148 152.725C194.413 152.725 194.678 152.99 194.943 152.46C194.678 152.46 194.148 152.195 194.148 152.725ZM210.843 141.33C210.578 141.33 210.578 141.33 210.313 141.33C210.313 141.065 210.313 141.065 210.313 140.8C210.578 140.8 210.578 140.8 210.843 140.8C210.843 140.8 211.108 141.065 210.843 141.065V141.33ZM200.243 150.075C200.243 150.34 200.243 150.34 199.978 150.34C199.978 150.075 200.243 150.075 200.243 150.075ZM201.038 149.545C201.303 149.545 201.303 149.81 201.038 149.81C201.038 149.81 201.038 149.81 201.038 149.545ZM366.269 71.9C368.389 73.225 361.499 72.165 361.499 72.165C358.584 71.635 355.669 71.37 352.489 70.84C346.394 69.515 339.769 68.72 333.409 67.925C328.639 67.395 322.279 66.335 317.509 67.13C315.654 67.395 314.329 67.925 312.474 67.925C310.884 67.925 307.704 67.13 306.644 68.455C307.969 66.865 305.584 67.925 304.789 67.925C303.464 67.66 301.874 67.925 300.549 67.925C296.574 68.19 292.864 68.19 288.889 68.19C281.204 67.925 273.254 68.985 265.834 69.78C262.389 70.31 256.824 69.78 253.644 71.105C251.789 71.635 250.994 73.755 249.934 75.61C246.489 84.09 244.369 92.835 239.864 100.785C243.044 92.04 246.489 83.295 249.669 74.55C249.139 73.755 245.694 82.765 245.429 83.295C244.104 86.475 243.044 89.92 241.719 93.1C239.334 99.725 236.949 106.085 234.829 112.71C232.709 118.275 229.529 123.045 228.734 129.14C228.204 134.97 226.879 140.8 226.349 146.895C224.759 159.35 224.229 172.335 225.289 184.79C225.554 187.705 225.554 191.15 226.614 194.065C226.879 194.86 228.999 196.715 228.999 197.245C229.264 198.835 226.084 199.63 224.494 199.1C214.954 195.92 217.604 177.37 217.604 169.95C218.134 157.23 219.194 144.245 221.049 131.525C222.904 118.805 225.554 106.35 228.204 93.895C229.529 88.065 230.854 82.235 231.649 76.405C231.914 75.875 232.709 71.635 232.709 71.635C232.179 70.84 229.529 71.635 228.469 71.9C218.134 72.96 207.799 76.14 197.464 78.26C192.164 79.32 186.599 79.32 181.299 80.91C180.769 80.91 175.204 83.56 174.939 83.03C175.204 83.295 178.119 83.56 177.324 84.355C176.529 84.355 168.579 83.825 168.579 84.09C168.844 82.5 170.964 83.295 171.759 83.03C172.289 82.765 172.554 82.235 172.289 81.97C171.759 80.91 172.289 80.645 173.879 80.645C177.324 78.525 183.154 77.73 187.129 76.67C195.344 74.285 203.824 72.43 212.039 70.84C216.544 69.78 221.314 68.985 225.819 68.19C229.794 67.395 233.504 68.19 234.564 64.215C237.214 55.47 238.539 46.195 241.189 37.45C243.574 28.97 246.489 20.755 249.404 12.54C250.464 9.095 251.789 1.67498 256.294 1.14499C258.679 0.614996 263.184 3.52999 264.509 5.64999C266.364 8.29999 265.834 11.745 265.834 14.66C265.569 23.67 262.654 31.355 261.329 39.835C261.859 36.655 262.124 33.74 262.654 30.56C262.124 32.68 261.329 35.065 260.799 37.185C260.799 36.655 260.799 35.86 260.269 35.33C259.739 37.98 252.849 63.685 252.849 63.685C254.439 63.685 259.739 40.365 260.534 37.715C260.799 43.015 258.679 49.11 257.354 54.145C256.559 56.53 254.439 59.975 254.704 62.095C254.704 64.745 256.824 63.685 259.739 63.42C272.724 62.625 285.444 61.035 298.164 60.505C321.484 59.975 345.864 59.445 366.269 71.9ZM263.184 28.97C263.184 28.175 262.919 29.5 262.919 29.5C262.919 30.295 263.449 29.765 263.184 28.97ZM174.939 82.5C174.939 81.97 175.469 83.03 174.939 82.5V82.5ZM223.964 133.38H223.699C223.964 133.645 223.964 133.645 223.964 133.38ZM221.844 186.38C222.109 185.585 222.109 185.055 221.844 184.26C221.844 184.26 221.844 184.26 221.579 183.995C221.579 181.875 221.579 180.02 221.579 177.9C221.579 177.635 221.579 177.37 221.579 177.105C221.049 176.575 221.049 176.045 221.049 175.515C221.049 171.805 221.049 168.095 221.049 164.385C221.049 164.12 221.049 163.59 221.314 163.325C221.579 162.795 221.579 162 221.579 161.47L221.314 161.205C221.314 161.205 221.314 161.47 221.049 161.47C220.784 162 220.784 162.53 220.784 163.06C220.784 167.565 220.784 172.07 220.784 176.575C220.784 176.84 220.784 177.37 220.784 177.635C221.314 177.9 221.049 178.43 221.049 178.96C221.049 180.285 221.049 181.61 221.049 182.935C221.049 183.2 221.314 183.465 221.314 183.995C221.314 183.995 221.314 183.995 221.579 183.995C221.579 184.79 221.579 185.585 221.579 186.38C221.579 186.38 221.844 186.38 221.844 186.645C221.844 186.38 221.844 186.38 221.844 186.38ZM222.374 189.03C222.374 188.765 222.374 188.765 222.374 188.765C222.374 188.5 222.374 188.5 222.374 188.235C222.374 188.235 222.374 188.235 222.374 187.97H222.109C221.844 188.235 222.109 188.765 222.109 189.03H222.374ZM223.699 138.415C223.964 137.885 223.699 137.355 223.699 136.825C223.699 136.03 223.964 135.5 223.964 134.97C224.229 134.97 223.964 134.705 223.964 134.705H223.699C223.434 134.97 223.169 135.235 223.169 135.765C223.169 136.295 223.434 137.09 223.169 137.885C222.904 138.415 222.904 138.945 222.904 139.475C222.904 140.27 222.904 141.065 222.639 141.595C222.374 142.39 222.374 142.92 222.374 143.715C222.374 144.245 222.639 144.51 222.374 144.775C221.844 145.835 222.109 146.63 222.109 147.425C221.844 147.955 222.109 148.22 221.844 148.485C221.579 149.015 221.579 149.28 221.579 149.81C221.579 151.4 221.579 153.255 221.579 155.11C221.314 155.11 221.314 155.11 221.314 155.375C221.049 156.965 221.049 158.555 221.314 160.41C221.314 160.41 221.579 160.41 221.579 160.145C221.579 159.085 221.314 158.025 221.579 156.965C221.844 156.435 221.579 155.64 221.579 155.11C221.844 155.11 221.844 154.845 221.844 154.58C221.844 153.52 221.844 152.195 222.109 151.135C222.109 150.605 221.844 150.075 222.109 149.81C222.639 149.015 222.374 148.22 222.374 147.425C222.374 147.16 222.374 146.63 222.374 146.365C222.904 145.57 222.639 144.775 222.904 143.715C222.904 143.45 222.904 143.185 222.904 142.92C223.434 142.39 223.169 141.86 223.169 141.065C223.169 140.27 223.169 139.21 223.699 138.415ZM224.229 132.585C224.229 132.85 224.494 132.85 224.494 132.585C224.494 132.585 224.494 132.585 224.229 132.585ZM225.554 198.305C225.289 198.305 225.289 198.305 225.024 198.305C225.289 198.305 225.289 198.57 225.289 198.57C225.554 198.57 225.554 198.57 225.819 198.57C225.554 198.305 225.554 198.305 225.554 198.305ZM253.379 49.11C253.379 48.845 253.379 48.845 253.379 48.845C253.379 49.11 253.379 49.11 253.379 49.11ZM253.909 48.315C253.909 48.05 253.909 47.785 253.909 47.785C253.909 47.52 253.909 47.255 253.909 47.255C253.644 47.255 253.644 47.255 253.644 47.255C253.644 47.52 253.644 47.785 253.644 48.05C253.644 48.05 253.644 48.315 253.909 48.315ZM254.174 46.195L254.439 45.93H254.174V46.195ZM254.704 47.785V47.52C254.704 47.255 254.704 47.255 254.704 47.255C254.704 47.255 254.439 47.255 254.439 47.52L254.704 47.785ZM254.704 44.87C254.704 44.605 254.969 44.605 254.969 44.34C254.969 44.075 254.704 43.81 254.704 43.81H254.439C254.439 44.075 254.439 44.34 254.439 44.605L254.704 44.87ZM254.969 46.46C255.234 46.46 255.234 46.46 255.234 46.195V45.93C254.969 45.93 254.969 45.93 254.969 46.195V46.46ZM254.969 43.015C255.234 43.015 255.234 43.015 255.234 42.75C255.234 42.75 255.234 42.75 255.234 42.485C254.969 42.485 254.969 42.75 254.969 42.75V43.015ZM256.029 43.015C256.029 43.015 256.029 43.015 256.029 42.75V42.485C255.764 42.485 255.764 42.75 255.764 42.75C255.764 43.015 255.764 43.015 256.029 43.015ZM256.294 41.425L256.559 41.16C256.559 41.16 256.559 40.895 256.294 40.895C256.294 41.16 256.294 41.16 256.294 41.425ZM256.824 35.065C256.824 35.065 256.824 35.065 256.824 34.8H256.559C256.559 35.065 256.824 35.065 256.824 35.065ZM257.089 37.45C257.354 37.45 257.354 37.45 257.354 37.185C257.354 37.185 257.354 36.92 257.089 36.92V37.185C257.089 37.45 257.089 37.45 257.089 37.45ZM261.859 18.635C261.859 18.9 261.859 18.9 262.124 18.635H261.859ZM261.859 26.585C261.859 26.85 261.859 26.85 261.859 26.85H262.124L261.859 26.585ZM260.799 31.62C260.534 31.885 260.534 32.15 260.799 32.415C261.594 32.15 260.799 31.09 260.799 31.62ZM260.004 8.56499V8.82998C260.004 9.095 260.004 9.35999 260.004 9.62499C260.004 9.62499 260.269 9.62499 260.269 9.88999C260.269 9.62499 260.269 9.62499 260.269 9.35999C260.269 9.095 260.269 8.82998 260.269 8.56499C260.269 8.29999 260.269 8.29999 260.269 8.29999C260.004 8.29999 260.004 8.56499 260.004 8.56499ZM259.739 7.50499C259.739 7.76998 259.739 7.76998 260.004 7.50499H259.739ZM259.739 22.08C259.739 22.61 259.739 23.14 259.739 23.67C259.739 23.935 259.739 23.935 259.739 23.935L260.004 23.67C260.004 23.405 260.004 23.405 260.004 23.14C260.004 22.875 260.004 22.345 260.004 22.08H259.739ZM259.209 24.995C259.209 25.26 259.209 25.26 259.209 25.525C259.209 25.79 259.209 25.79 259.474 26.055C259.474 25.79 259.474 25.79 259.474 25.525C259.474 25.26 259.474 25.26 259.474 25.26C259.474 24.995 259.474 24.995 259.474 24.995C259.209 24.995 259.209 24.995 259.209 24.995ZM258.679 28.175C258.679 28.44 258.679 28.44 258.679 28.705C258.679 28.705 258.679 28.97 258.944 28.97C258.944 28.97 258.944 28.705 259.209 28.705C259.209 28.44 259.209 28.44 259.209 28.175C258.944 28.175 258.944 28.175 258.944 27.91C258.944 28.175 258.679 28.175 258.679 28.175ZM258.414 30.56V30.825C258.414 31.09 258.414 31.09 258.679 31.09C258.679 31.09 258.679 31.09 258.679 30.825V30.56C258.679 30.295 258.679 30.03 258.414 30.295C258.414 30.295 258.414 30.295 258.414 30.56ZM258.149 33.21C258.149 33.21 258.149 33.21 258.149 32.945C258.149 33.21 257.884 33.21 257.884 33.21H258.149ZM252.584 19.165C252.584 19.695 252.584 19.96 252.584 20.225H252.319V20.49C252.319 20.755 252.319 20.755 252.584 21.02C252.584 20.755 252.584 20.755 252.584 20.49C252.849 20.49 252.849 20.225 252.849 20.225C253.379 19.695 253.114 19.695 252.584 19.165ZM251.259 19.96C251.259 19.96 250.994 19.96 250.994 20.225L251.259 20.49L251.524 20.225C251.524 19.96 251.259 19.96 251.259 19.96ZM249.404 20.755C249.404 21.02 249.404 21.02 249.404 21.285C249.669 21.285 249.669 21.02 249.669 21.02C249.669 20.755 249.669 20.755 249.669 20.755C249.669 20.755 249.669 20.755 249.669 20.49C249.934 20.49 250.199 20.225 250.199 19.96C250.199 19.96 250.199 19.695 250.199 19.43C250.199 19.43 250.199 19.43 250.199 19.165C250.729 19.165 250.464 18.9 250.464 18.37H250.729C250.994 18.37 250.994 18.105 250.994 17.84C250.994 17.84 250.729 17.84 250.729 17.575C250.729 17.84 250.729 17.84 250.729 17.84C250.729 18.105 250.729 18.37 250.729 18.37H250.464C250.199 18.635 250.199 18.9 250.199 19.165C250.199 19.165 250.199 19.165 250.199 19.43C249.934 19.43 249.669 19.695 249.669 19.96C249.669 19.96 249.669 20.225 249.669 20.49C249.669 20.49 249.669 20.49 249.669 20.755H249.404ZM250.994 21.285L250.729 21.02C250.729 21.285 250.729 21.285 250.729 21.285H250.994ZM250.464 22.08H250.199C250.199 22.08 250.199 22.08 250.464 22.345C250.464 22.08 250.464 22.08 250.464 22.08ZM249.669 24.2C249.404 24.2 249.404 24.2 249.404 24.2C249.404 24.2 249.404 24.2 249.404 24.465C249.669 24.2 249.669 24.2 249.669 24.2ZM248.874 22.875C248.609 22.875 248.609 22.875 248.609 23.14C248.609 23.405 248.609 23.405 248.609 23.405H248.874C248.874 23.14 248.874 22.875 248.874 22.875C248.874 22.61 248.874 22.61 248.874 22.61C249.139 22.61 249.404 22.61 249.404 22.08C249.139 22.08 249.139 22.08 249.139 22.08H248.874C248.874 22.345 248.874 22.61 248.874 22.61V22.875ZM248.079 24.995C247.814 24.995 247.549 25.26 247.549 25.525H247.814H248.079C248.079 25.26 248.079 24.995 248.079 24.995V24.73C248.344 24.73 248.344 24.73 248.344 24.465C248.344 24.2 248.344 24.2 248.344 24.2H248.079C248.079 24.465 248.079 24.73 248.079 24.73V24.995ZM248.344 29.235C248.079 29.235 248.079 29.5 248.344 29.5C248.344 29.5 248.344 29.5 248.344 29.235ZM247.814 31.09C248.079 31.09 247.814 31.09 247.814 30.825C247.814 31.09 247.814 31.09 247.814 31.09C247.814 31.355 247.814 31.355 247.814 31.09ZM247.284 27.38C246.754 27.38 246.754 27.645 246.754 27.91C246.754 27.91 246.754 28.175 247.019 28.175V27.91C247.284 27.91 247.284 27.645 247.284 27.38C247.814 27.115 247.549 26.85 247.549 26.32C247.549 26.32 247.549 26.32 247.284 26.32C247.284 26.85 247.284 27.115 247.284 27.38ZM247.549 32.15V31.885C247.284 31.885 247.284 31.885 247.284 32.15V32.415C247.549 32.415 247.549 32.15 247.549 32.15ZM244.104 37.185C243.574 37.45 243.839 37.98 243.839 38.245C244.104 38.245 244.104 38.245 244.104 38.245C244.104 37.98 244.104 37.715 244.104 37.185C244.369 37.185 244.634 37.185 244.634 36.92C244.634 36.39 244.634 36.125 244.634 35.595C244.634 35.33 244.899 35.33 244.899 35.33C245.164 34.535 245.164 33.74 245.429 33.21C245.959 32.68 245.959 31.885 245.959 31.355C245.959 31.355 245.959 31.355 245.959 31.09C246.224 30.56 246.754 29.765 246.754 29.235C246.754 28.97 246.489 28.97 246.489 28.705C246.489 28.97 246.489 28.97 246.489 28.97C245.959 29.765 245.959 30.56 245.959 31.355C245.694 31.355 245.694 31.355 245.694 31.355C245.429 32.15 245.429 32.945 244.899 33.475C244.634 34.27 244.634 34.8 244.634 35.595C244.369 35.595 244.369 35.595 244.369 35.86C244.104 36.39 244.104 36.655 244.104 37.185ZM243.574 39.57C243.309 39.57 243.309 39.57 243.574 39.835V39.57ZM242.779 42.485L242.514 42.75C242.514 42.75 242.514 43.015 242.779 43.015C242.779 43.015 242.779 43.015 242.779 42.75C242.779 42.75 242.779 42.75 242.779 42.485ZM242.779 47.255C242.514 47.785 242.514 48.58 242.249 49.375C241.984 49.375 242.249 49.375 242.249 49.375C242.249 49.64 242.249 49.375 242.514 49.375L242.779 49.11C243.044 47.785 243.574 46.725 243.309 45.4H243.574C243.839 44.87 244.104 44.075 244.104 43.545C244.104 43.545 244.104 43.28 244.104 43.015C244.104 42.75 244.104 42.75 244.104 42.485C243.839 42.485 243.839 42.75 243.839 42.75C243.309 43.545 243.309 44.34 243.309 45.4C243.044 45.4 243.044 45.665 243.044 45.665C242.779 46.195 242.779 46.725 242.779 47.255ZM242.249 50.17C241.984 50.7 241.454 51.23 241.719 52.025C241.719 52.025 241.719 52.29 241.719 52.555C241.984 52.29 241.984 52.29 241.984 52.29C241.984 51.76 242.249 51.495 242.249 51.23C242.514 50.965 242.514 50.7 242.514 50.435C242.514 50.435 242.514 50.17 242.249 50.17ZM241.189 53.88V54.145C241.189 54.41 241.454 54.41 241.454 54.675C241.454 54.41 241.454 54.41 241.719 54.145V53.88C241.454 53.88 241.454 53.615 241.454 53.615L241.189 53.88ZM239.599 55.47C239.599 55.735 239.599 55.735 239.599 56V56.265C239.864 56.265 239.864 56 239.864 55.735C239.864 55.47 239.864 55.47 239.599 55.205C239.599 55.47 239.599 55.47 239.599 55.47ZM239.864 59.445C240.129 60.505 239.334 61.3 239.599 62.36C239.599 62.625 239.599 62.625 239.599 62.89C239.864 62.625 239.864 62.625 239.864 62.36C240.129 61.565 240.659 60.77 240.394 59.71C240.924 58.915 240.659 58.12 240.659 57.325H240.924L241.189 57.06C241.189 56.53 241.189 56 241.189 55.47H240.924C240.924 55.47 240.924 55.205 240.924 55.47C240.924 56 240.924 56.795 240.924 57.325C240.659 57.325 240.659 57.325 240.659 57.325C240.659 57.325 240.394 57.325 240.394 57.59C240.129 58.12 240.659 58.915 239.864 59.445ZM239.334 57.06C239.334 57.06 239.069 57.06 239.069 57.325L239.334 57.59V57.325V57.06ZM239.334 63.95C239.069 64.48 238.539 64.745 238.804 65.275C238.804 65.54 238.804 65.54 238.804 65.54V65.805L239.069 65.54C239.069 65.01 239.599 64.745 239.599 63.95C239.334 63.95 239.334 63.95 239.334 63.95ZM238.274 76.67C238.274 76.935 238.274 77.465 238.274 77.73H238.539C238.539 77.465 238.539 77.465 238.539 77.2V76.935C238.539 76.67 238.539 76.67 238.539 76.67H238.274ZM238.009 78.79C237.744 79.055 237.744 79.055 237.744 79.32C237.744 79.585 238.009 79.585 238.009 79.85C238.009 79.585 238.274 79.585 238.274 79.32C238.274 79.055 238.274 79.055 238.009 78.79ZM237.479 65.275C237.479 65.54 237.479 65.54 237.479 65.805C237.744 65.54 237.744 65.54 237.744 65.275C237.744 65.275 237.744 65.275 237.744 65.01C237.744 65.01 237.744 64.745 237.479 64.745C237.479 64.745 237.479 65.01 237.479 65.275ZM237.744 81.175L237.479 80.91V81.175C237.479 81.44 237.479 81.44 237.479 81.44C237.744 81.44 237.744 81.175 237.744 81.175ZM239.334 78.26C238.539 81.705 237.744 85.415 236.949 88.86C236.684 90.715 234.564 96.015 235.359 97.605C234.829 96.545 238.539 88.595 239.069 87.27C240.924 81.97 241.984 76.14 244.104 71.105C245.164 68.985 241.984 69.515 241.189 70.575C240.129 71.9 239.864 76.67 239.334 78.26ZM234.829 90.98C234.829 90.98 234.829 91.245 235.094 91.245C235.094 91.245 235.094 91.245 235.094 90.98C235.094 90.98 235.094 90.98 235.094 90.715L234.829 90.98ZM234.829 98.665C234.829 98.4 235.094 98.135 234.829 98.665V98.665ZM234.829 84.09C234.829 84.355 234.829 84.355 235.094 84.62C235.094 84.355 235.094 84.355 235.094 84.355C235.094 84.09 235.094 84.09 235.094 83.825C235.094 84.09 234.829 84.09 234.829 84.09ZM236.684 76.14C236.684 76.405 236.684 76.405 236.684 76.405C236.684 76.67 236.684 76.67 236.684 76.67H236.949C236.949 76.405 236.949 76.405 236.684 76.14ZM236.419 87.8C236.419 87.27 236.419 86.475 236.419 85.945C236.154 85.945 236.154 86.21 236.154 86.475C236.154 86.74 236.154 87.27 236.154 87.8C236.154 87.8 235.889 88.065 235.624 88.065C235.624 88.595 235.624 89.125 235.624 89.655C235.889 89.655 235.889 89.655 236.154 89.39C236.154 88.86 236.419 88.33 236.419 87.8ZM235.359 81.44C235.359 81.705 235.359 82.235 235.359 82.5C235.359 82.765 235.359 82.765 235.359 82.765C235.359 82.765 235.624 82.765 235.624 82.5C235.624 82.235 235.624 81.705 235.624 81.175C235.889 81.175 236.154 81.175 236.154 80.91C236.154 80.38 236.154 79.85 236.154 79.585C236.154 79.32 236.419 79.32 236.419 79.32C236.684 78.79 236.419 78.26 236.419 77.73C236.419 77.465 236.419 77.465 236.419 77.465C236.154 77.465 236.154 77.465 236.154 77.73C236.154 78.26 236.154 78.79 236.154 79.585C235.889 79.585 235.624 79.585 235.624 79.85C235.624 80.38 235.624 80.645 235.624 81.175L235.359 81.44ZM234.829 76.935C234.829 77.2 234.564 77.73 234.564 77.995C234.564 77.995 234.564 78.26 234.829 78.26L235.094 77.995C235.094 77.73 235.094 77.465 235.094 77.465C235.094 77.2 235.094 76.935 235.094 76.935V76.67L234.829 76.935ZM233.769 98.4C233.504 98.665 233.504 99.725 233.769 99.725L234.034 99.46C234.034 98.93 234.034 98.93 234.034 98.665L233.769 98.4ZM233.504 90.185L233.769 90.45C233.769 90.45 234.034 90.185 233.769 90.185C233.769 89.92 233.769 89.92 233.769 89.92L233.504 90.185ZM234.034 96.015C234.034 96.545 234.034 97.075 234.034 97.605C234.299 97.605 234.299 97.605 234.299 97.605C234.299 97.075 234.299 96.545 234.299 96.28C234.564 96.015 234.829 95.75 234.829 95.485C234.829 95.22 234.829 94.69 234.564 94.425H234.299C234.299 94.955 234.299 95.485 234.299 96.015H234.034ZM234.034 88.065V88.33C234.299 88.33 234.299 88.065 234.299 88.065V87.8C234.034 87.8 234.034 87.8 234.034 88.065ZM234.299 86.74C234.564 86.74 234.564 87.005 234.564 87.005C234.564 87.005 234.829 86.74 234.829 86.475C234.829 86.21 234.564 86.21 234.564 85.945C234.564 86.21 234.564 86.21 234.299 86.475C234.299 86.475 234.299 86.475 234.299 86.74ZM232.444 87.27C232.444 87.8 232.444 88.33 232.444 88.595V88.86C232.444 88.86 232.444 88.595 232.709 88.595C232.709 88.065 232.709 87.8 232.709 87.27C232.709 87.27 232.709 87.27 232.709 87.005H232.974C233.239 86.21 232.974 85.68 233.504 85.15C233.504 84.09 234.299 83.03 234.034 81.97C234.299 81.97 234.299 81.97 234.299 81.705C234.299 81.175 234.299 80.645 234.299 79.85C234.829 79.85 234.829 79.32 234.829 79.055L234.564 78.79C234.564 78.79 234.299 78.79 234.299 79.055C234.299 79.32 234.299 79.585 234.299 79.85C234.034 80.115 234.034 80.115 234.034 80.38C234.034 80.91 234.034 81.44 234.034 81.97C233.769 81.97 233.769 81.97 233.769 82.235C233.239 83.03 233.239 84.09 232.974 84.885C232.974 85.15 232.709 85.415 232.709 85.68C232.709 85.945 232.709 86.475 232.709 87.005C232.709 87.27 232.709 87.27 232.709 87.27C232.444 87.27 232.444 87.27 232.444 87.27ZM233.504 92.04H233.239C233.239 92.04 233.239 92.04 233.239 92.305L233.504 92.04ZM232.709 96.015C232.444 96.015 232.444 95.75 232.444 95.75C232.179 95.75 232.179 96.015 232.444 96.015C232.444 96.015 232.444 96.015 232.709 96.015ZM232.444 103.17L232.179 103.435L232.444 103.7L232.709 103.435C232.444 103.17 232.444 103.17 232.444 103.17ZM228.734 106.88C228.999 106.615 228.734 105.82 228.734 105.29C228.469 105.29 228.469 105.29 228.469 105.29C228.469 106.085 227.939 106.615 227.939 107.41C227.939 108.47 227.409 109.795 227.674 110.855C227.674 111.12 227.409 111.12 227.409 111.385C226.879 112.18 227.144 112.975 226.614 113.77C226.879 114.83 226.349 115.625 226.349 116.42C226.349 117.48 225.819 118.01 225.819 118.805C226.084 120.13 225.289 121.19 225.289 122.25C224.759 123.045 225.024 123.84 225.024 124.635C225.024 124.635 225.024 124.635 225.024 124.9C224.759 124.9 224.494 125.165 224.759 125.43H225.024C225.024 125.165 225.024 124.9 225.024 124.9V124.635H225.289C225.289 123.84 225.819 123.31 225.819 122.78C226.084 122.515 226.084 122.25 226.349 121.985C226.349 121.455 226.349 120.925 226.349 120.395C226.349 119.6 226.879 119.335 226.614 118.805C226.349 117.215 227.409 115.89 227.144 114.565V114.3C227.939 113.505 227.144 112.445 227.939 111.65C227.939 110.59 228.204 109.53 228.469 108.735C228.469 108.205 228.469 107.675 228.734 106.88ZM230.059 100.52C230.059 100.255 230.059 99.99 230.059 99.46C230.059 99.46 230.059 99.46 229.794 99.195C229.794 99.195 229.794 99.195 229.794 99.46C229.529 100.255 229.264 101.05 229.264 101.845C229.264 102.11 229.264 102.375 228.999 102.64C228.734 102.905 228.999 103.435 228.734 103.7C228.734 103.965 228.734 103.965 228.734 104.23C228.999 104.23 228.999 104.495 228.999 104.495L229.264 104.23C229.264 103.17 229.794 102.375 229.794 101.05C229.794 101.05 230.059 100.785 230.059 100.52ZM230.324 98.135C230.324 98.135 230.589 97.87 230.589 97.605C230.589 97.34 230.324 97.34 230.324 97.075C230.324 97.075 230.324 97.075 230.324 97.34C230.324 97.605 230.059 97.87 230.324 98.135ZM230.854 96.545C230.854 96.28 230.854 96.28 230.854 96.28C230.854 96.015 230.854 96.015 230.854 95.75C230.589 96.015 230.589 96.015 230.589 96.015C230.589 96.28 230.589 96.28 230.854 96.545ZM231.119 102.905C231.384 102.64 231.384 102.64 231.384 102.375H231.119C231.119 102.375 231.119 102.375 231.119 102.64C231.119 102.64 231.119 102.64 231.119 102.905ZM231.384 94.16C231.384 93.895 231.384 93.895 231.384 93.63C231.384 93.63 231.384 93.365 231.119 93.365V93.63C231.119 93.895 230.854 93.895 231.119 94.16C231.384 94.16 231.384 94.16 231.384 94.16ZM231.649 100.255C231.649 100.255 231.649 99.99 231.914 99.99C231.649 99.99 231.649 99.725 231.649 99.725L231.384 99.99L231.649 100.255ZM231.649 92.57C231.649 92.04 231.649 91.51 231.914 90.98C231.914 90.98 232.179 90.98 232.179 90.715C232.179 90.45 232.179 90.185 232.179 89.655V89.39C231.914 89.655 231.914 89.655 231.914 89.655C231.914 90.185 231.914 90.45 231.914 90.98C231.649 91.245 231.649 91.245 231.649 91.245C231.384 91.775 231.384 92.04 231.384 92.57H231.649ZM232.179 98.4C232.179 98.135 232.179 98.135 231.914 97.87C231.914 98.135 231.914 98.135 231.914 98.4C231.914 98.4 231.914 98.4 231.914 98.665C232.179 98.4 232.179 98.4 232.179 98.4ZM232.179 105.025C232.179 104.76 232.179 104.76 232.179 104.495H231.914V105.29H232.179V105.025ZM235.094 104.495C235.624 103.7 235.359 103.17 235.094 102.375C235.094 102.375 235.094 102.375 235.094 102.11C235.094 102.375 234.829 102.375 234.829 102.375C234.829 102.905 234.299 103.435 234.299 103.965C234.299 104.76 233.769 105.555 233.239 106.35C232.974 106.35 232.974 106.35 232.974 106.35C232.974 106.085 232.974 106.085 232.709 106.085V106.35C232.974 106.35 232.974 106.35 232.974 106.35C232.974 106.35 232.974 106.35 233.239 106.35C233.239 106.615 233.239 106.88 232.974 107.145C232.709 107.94 232.709 109 232.709 109.795C232.444 109.795 232.179 110.06 232.179 110.325C232.179 110.325 232.444 110.325 232.444 110.59C232.444 110.59 232.709 110.59 232.709 110.325C232.709 110.325 232.709 110.06 232.709 109.795C232.709 109.795 232.974 109.795 232.974 109.53C233.504 107.94 234.299 106.085 235.094 104.495ZM237.479 100.785C237.479 100.785 237.744 100.785 237.744 100.52C237.744 100.52 237.744 100.52 237.479 100.52C237.479 100.785 237.479 100.785 237.479 100.785ZM238.009 99.725H238.274C238.274 99.46 238.009 99.46 238.009 99.195C238.009 99.46 237.744 99.46 237.744 99.46C237.744 99.725 238.009 99.725 238.009 99.725ZM239.334 93.1V92.835C239.334 92.305 239.069 91.775 239.069 91.245H238.804C238.539 91.775 238.274 92.04 238.274 92.57C238.274 93.1 238.274 93.365 237.744 93.895C237.479 94.16 237.479 94.425 237.479 94.69C236.949 95.75 236.684 97.075 236.154 98.135C235.624 99.195 235.624 100.255 235.359 101.315V101.58H235.624C236.154 100.255 236.949 98.4 237.479 96.545C237.479 96.545 237.479 96.28 237.744 96.015C237.744 95.75 238.539 95.485 238.539 94.69C238.274 94.16 239.069 93.895 239.334 93.1ZM239.599 95.485C239.864 95.485 239.864 95.485 239.864 95.22C239.864 95.22 239.864 95.22 239.864 94.955C239.599 94.955 239.599 95.22 239.599 95.22V95.485ZM239.599 91.775C239.864 91.775 239.864 91.775 239.864 91.775C239.864 91.51 239.864 91.51 239.599 91.51C239.599 91.51 239.599 91.51 239.599 91.775ZM240.659 93.365V93.1C240.659 92.835 240.659 92.835 240.659 92.835C240.394 92.835 240.394 93.1 240.394 93.1C240.394 93.365 240.394 93.365 240.394 93.63C240.129 93.63 239.864 93.895 239.864 94.16H240.129H240.394C240.394 93.895 240.394 93.895 240.394 93.63C240.394 93.365 240.659 93.365 240.659 93.365ZM240.924 91.775H241.189C241.189 91.51 240.924 91.51 240.924 91.51C240.924 91.51 240.924 91.51 240.924 91.775ZM240.924 87.27C240.659 87.27 240.659 87.27 240.659 87.27C240.924 86.74 240.659 86.21 241.189 85.68C241.454 85.415 241.189 84.885 241.189 84.62V84.355C240.924 84.355 240.924 84.355 240.924 84.62C240.394 86.21 239.864 87.8 239.334 89.39C239.069 89.655 239.069 89.92 239.069 90.185L239.334 90.45C239.599 89.92 239.599 89.92 239.864 89.655C239.864 89.92 239.864 89.92 239.864 90.185L240.129 90.45L240.394 90.185C240.394 89.92 240.394 89.92 240.394 89.655C240.659 89.655 240.659 89.39 240.659 89.125C240.659 88.86 240.659 88.86 240.659 88.595H240.924V88.33C241.189 88.065 241.189 87.535 240.924 87.27ZM241.454 90.45V90.185C241.189 90.45 241.189 90.45 241.454 90.45ZM244.634 75.345C244.634 75.345 244.634 75.08 244.369 75.08H244.104C243.839 75.61 243.574 76.14 243.309 76.67C243.309 77.995 242.514 79.32 242.249 80.645C241.984 81.44 241.454 82.235 241.719 83.295C241.454 83.295 241.454 83.56 241.454 83.56C241.189 83.56 241.454 83.825 241.454 83.56C241.454 83.56 241.454 83.56 241.719 83.295H241.984C241.984 83.56 241.984 83.825 241.984 83.825L242.249 84.09L242.514 83.825C242.514 83.825 242.514 83.56 242.514 83.295C242.779 83.295 242.779 83.03 242.779 82.765C242.779 82.5 242.779 82.5 242.514 82.5C242.249 81.705 243.044 80.91 243.044 80.115C243.044 79.585 243.574 79.055 243.309 78.525C244.104 77.465 244.104 76.405 244.634 75.345ZM247.549 60.77C248.874 55.47 250.464 50.7 252.054 45.665C253.379 40.1 254.704 34.27 255.764 28.44C256.559 24.465 259.209 16.78 257.619 12.54C255.234 13.6 253.909 19.165 253.114 21.285C251.259 25.525 249.934 29.765 248.609 34.005C246.224 42.22 244.634 50.965 242.779 59.445C242.249 61.565 240.659 67.66 245.164 65.01C247.019 64.215 247.019 62.625 247.549 60.77ZM249.934 61.035C249.934 61.035 249.934 61.035 250.199 61.035L249.934 60.77C249.934 60.77 249.934 60.77 249.934 61.035ZM250.464 69.515C250.729 69.25 250.994 69.25 250.994 68.72L250.729 68.455C250.464 68.72 250.199 68.985 250.199 69.25C250.199 69.515 250.464 69.515 250.464 69.515ZM250.729 58.385C250.994 58.385 251.524 58.12 251.524 57.59C251.524 57.59 251.259 57.59 251.259 57.325C251.259 57.325 251.259 57.325 251.259 57.59C250.729 57.59 250.729 57.855 250.729 58.385ZM252.319 53.88H252.584C253.114 52.82 253.379 51.76 253.114 50.435L252.849 50.17V50.435C252.849 50.7 252.584 51.23 252.319 51.495C252.319 52.025 252.054 52.555 252.054 52.82C252.054 53.085 252.319 53.615 252.319 53.88C252.054 53.88 252.054 54.145 252.054 54.145C252.054 54.675 251.789 55.205 251.524 55.735C251.524 55.735 251.524 55.735 251.789 56V55.735C252.054 55.735 252.319 55.47 252.319 55.205C252.319 54.675 252.319 54.41 252.319 53.88ZM266.099 67.925C270.604 67.66 275.374 66.6 280.144 66.335C278.819 66.335 274.844 66.07 272.459 66.335C270.074 66.6 267.424 66.865 265.039 66.865C263.184 67.13 253.644 67.13 253.114 68.985C253.114 68.985 264.774 68.19 266.099 67.925ZM283.059 65.805C283.324 65.805 280.409 64.48 280.409 65.805C281.204 65.805 282.264 65.805 283.059 65.805ZM287.034 65.54C286.504 65.54 288.624 65.275 287.034 65.54V65.54ZM296.044 65.01C297.104 64.745 295.249 63.95 294.984 64.745C294.984 65.01 296.309 65.01 296.044 65.01ZM314.064 63.155C314.859 63.685 315.389 63.685 316.449 63.155C316.449 63.155 314.859 62.36 314.064 63.155ZM320.159 63.155C320.159 63.155 319.099 62.625 318.304 63.155C318.834 63.42 319.629 63.42 320.159 63.155ZM332.614 64.48C332.879 64.215 332.084 64.215 332.084 64.48C332.084 64.48 332.349 64.745 332.614 64.48Z" fill="white"/>
</svg>
