<svg width="252" height="266" viewBox="0 0 252 266" fill="none" xmlns="http://www.w3.org/2000/svg">
<path fill-rule="evenodd" clip-rule="evenodd" d="M251.458 261H172.997L171.501 259.397C167.282 254.877 163.036 250.327 158.372 245.153C141.753 256.824 119.564 265.026 91.356 265.026C60.5162 265.026 37.7042 255.83 22.5584 241.621C7.43328 227.432 0.346008 208.601 0.346008 190.12C0.346008 157.073 18.4198 132.985 45.2835 117.561C35.5472 105.086 28.528 87.5414 28.528 70.438C28.528 36.6016 55.2537 0.290039 107.46 0.290039C127.436 0.290039 145.383 6.14912 158.43 17.0545C171.557 28.0274 179.438 43.8916 179.438 63.1181C179.438 89.3163 164.496 111.141 132.641 128.473C137.129 133.485 141.613 138.595 146.008 143.604C152.945 151.511 159.661 159.165 165.825 165.779C173.678 151.451 179.834 132.152 182.669 113.25L183.308 108.992H243.35L242.314 114.861C235.921 151.09 224.012 182.702 203.044 207.657C216.033 222.345 229.349 237.312 243.607 252.588L251.458 261ZM196.398 207.688C217.371 184.268 229.664 154.171 236.466 118.992C236.786 117.337 237.094 115.67 237.39 113.992H187.614C184.623 133.929 178.013 154.469 169.426 169.587C168.554 171.121 167.662 172.6 166.752 174.016C165.592 172.821 164.406 171.576 163.195 170.286C156.683 163.35 149.483 155.146 142.1 146.733C137.455 141.44 132.738 136.064 128.073 130.869C128.018 130.808 127.962 130.746 127.907 130.684C127.067 129.75 126.229 128.821 125.394 127.9L125.76 126.436C126.745 125.938 127.713 125.438 128.665 124.933C128.843 124.839 129.02 124.745 129.197 124.65C160.786 107.772 174.438 87.1517 174.438 63.1181C174.438 27.6161 145.524 5.29004 107.46 5.29004C58.05 5.29004 33.528 39.3281 33.528 70.438C33.528 86.62 40.3596 103.423 49.7324 115.127C49.9156 115.355 50.0998 115.582 50.2849 115.807C50.9109 116.567 51.5477 117.305 52.194 118.018V119.482C24.012 134.122 5.34601 157.546 5.34601 190.12C5.34601 224.524 31.698 260.026 91.356 260.026C120.636 260.026 142.962 250.876 159.066 238.432C164.922 245.02 170.046 250.51 175.17 256H239.952C238.393 254.33 236.845 252.663 235.308 251C221.688 236.267 208.895 221.83 196.398 207.688ZM133.08 207.322C131.933 206.175 130.76 204.989 129.562 203.768C114.704 188.616 96.076 167.931 77.448 146.932C67.2 154.252 58.05 164.866 58.05 180.97C58.05 201.832 73.788 219.766 99.042 219.766C111.342 219.766 121.834 215.891 129.215 210.528C130.619 209.507 131.91 208.433 133.08 207.322ZM125.654 206.924C119.185 211.422 109.975 214.766 99.042 214.766C76.5494 214.766 63.05 199.071 63.05 180.97C63.05 168.883 68.9493 160.268 76.8014 153.735C94.2441 173.362 111.579 192.546 125.654 206.924ZM105.63 45.0601C95.0714 45.0601 88.304 54.2035 88.304 65.314C88.304 74.9451 92.3356 83.8932 100.931 94.1294C116.191 83.0802 122.224 75.2541 122.224 64.5821C122.224 59.63 120.738 54.6183 117.945 50.9663C115.263 47.4586 111.297 45.0601 105.63 45.0601ZM100.14 100.816C89.16 88.7381 83.304 77.7581 83.304 65.314C83.304 52.504 91.356 40.0601 105.63 40.0601C120.27 40.0601 127.224 52.8701 127.224 64.5821C127.224 78.856 118.074 88.3721 100.14 100.816Z" fill="white"/>
</svg>
