<svg width="252" height="266" viewBox="0 0 252 266" fill="none" xmlns="http://www.w3.org/2000/svg">
<path d="M184.647 113.547L185.03 110.992H240.966L240.344 114.513C233.988 150.533 222.179 181.774 201.512 206.37L200.403 207.69L201.545 208.981C214.536 223.672 227.868 238.656 242.145 253.953L246.856 259H173.866L172.963 258.032C168.743 253.511 164.508 248.973 159.857 243.814L158.672 242.498L157.222 243.516C140.943 254.949 119.156 263.026 91.356 263.026C60.9202 263.026 38.6321 253.958 23.9267 240.162C9.23371 226.379 2.34601 208.09 2.34601 190.12C2.34601 157.945 19.8888 134.448 46.2794 119.295L48.2784 118.147L46.8601 116.33C37.3608 104.159 30.528 87.0382 30.528 70.438C30.528 37.6919 56.3725 2.29004 107.46 2.29004C127.059 2.29004 144.525 8.03823 157.147 18.589C169.818 29.1805 177.438 44.4817 177.438 63.1181C177.438 88.3526 163.129 109.608 131.685 126.717L129.465 127.925L131.151 129.808C135.632 134.81 140.109 139.913 144.505 144.924L144.518 144.938C151.445 152.833 158.177 160.506 164.362 167.143L166.249 169.168L167.579 166.741C175.564 152.171 181.783 132.639 184.647 113.547ZM134.458 208.772L135.945 207.359L134.494 205.908C133.352 204.766 132.183 203.585 130.99 202.367C116.171 187.256 97.5736 166.605 78.9442 145.605L77.7499 144.259L76.2855 145.305C65.7607 152.822 56.05 163.965 56.05 180.97C56.05 202.937 72.6834 221.766 99.042 221.766C111.758 221.766 122.663 217.761 130.39 212.146C131.862 211.076 133.222 209.946 134.458 208.772ZM99.3998 95.4156L100.597 96.841L102.104 95.7493C117.438 84.646 124.224 76.2962 124.224 64.5821C124.224 59.2677 122.637 53.8087 119.534 49.7514C116.496 45.7793 111.957 43.0601 105.63 43.0601C93.6131 43.0601 86.304 53.4894 86.304 65.314C86.304 75.5862 90.6331 84.9759 99.3998 95.4156Z" stroke="white" stroke-width="4"/>
</svg>
