<svg width="912" height="271" viewBox="0 0 912 271" fill="none" xmlns="http://www.w3.org/2000/svg">
<g clip-path="url(#clip0_47_72)">
<path d="M397.394 202.086H218.338V259.356H397.394V202.086Z" fill="white"/>
<path d="M297.284 114.328H224.053V168.316H297.284V114.328Z" fill="white"/>
<path d="M397.394 11.3271H218.338V65.3154H397.394V11.3271Z" fill="white"/>
<path d="M878.02 66.5855C867.332 45.5195 851.988 29.0055 832.304 17.2551C812.938 5.82227 790.186 0 764.894 0C739.601 0 717.061 5.71641 697.589 17.0434C678.011 28.3703 662.667 44.7785 651.872 65.7387C641.184 86.2754 635.681 110.517 635.681 137.723C635.681 164.929 641.078 187.054 651.661 207.061C662.349 227.28 677.694 243.053 697.377 254.168C716.955 265.389 739.601 271.106 764.788 271.106C789.974 271.106 812.832 265.495 832.304 254.592C851.776 243.582 867.226 227.809 878.02 207.696C888.497 187.583 893.894 164.294 893.894 138.57C893.894 112.846 888.497 87.6516 877.915 66.7973L878.02 66.5855ZM868.814 202.509C858.972 220.823 845.003 235.114 827.224 245.17C809.34 255.227 788.387 260.414 764.894 260.414C741.4 260.414 720.659 255.227 702.668 244.959C684.784 234.902 670.815 220.505 661.079 202.191C651.237 183.666 646.264 162.071 646.264 137.829C646.264 112.317 651.343 89.7687 661.185 70.7141C671.027 51.5535 684.996 36.6273 702.774 26.359C720.553 15.9848 741.4 10.6918 764.682 10.6918C787.963 10.6918 809.023 15.9848 826.695 26.4648C844.58 37.1566 858.549 52.2945 868.285 71.4551C878.126 90.8273 883.1 113.375 883.1 138.464C883.1 163.553 878.126 184.089 868.496 202.615L868.814 202.509Z" fill="white"/>
<path d="M786.27 62.6689C779.286 59.9166 771.984 58.4346 764.576 58.4346C752.724 58.4346 742.035 61.7162 732.723 68.0678C723.516 74.4193 716.108 83.6291 710.923 95.3795C705.737 106.918 703.198 120.362 703.198 135.5C703.198 142.593 703.832 149.474 704.997 155.931L707.007 166.835L793.149 65.3154L786.376 62.5631L786.27 62.6689ZM713.886 142.381C713.78 140.158 713.674 137.829 713.674 135.5C713.674 121.95 716.002 109.882 720.553 99.7197C724.997 89.7689 731.135 82.0412 738.755 76.8541C746.374 71.5611 754.84 69.0205 764.682 69.0205C768.28 69.0205 771.772 69.4439 775.264 70.185L713.992 142.381H713.886Z" fill="white"/>
<path d="M822.674 102.79L735.897 205.05L742.459 207.908C749.549 210.978 757.168 212.566 764.894 212.566C776.534 212.566 787.223 209.284 796.641 202.933C805.954 196.581 813.467 187.371 818.864 175.515C824.156 163.87 826.801 150.109 826.801 134.547C826.801 127.243 826.166 120.15 824.896 113.587L822.78 102.79H822.674ZM809.128 171.069C804.578 181.125 798.334 188.853 790.609 194.146C782.884 199.439 774.418 201.98 764.894 201.98C760.978 201.98 757.274 201.556 753.57 200.604L815.901 127.243C816.113 129.678 816.113 132.113 816.113 134.653C816.113 148.627 813.785 160.906 809.128 171.175V171.069Z" fill="white"/>
<path d="M71.1144 202.086L189.744 88.181L121.064 87.9692L0.21165 202.086H0L0.105825 202.192L0 202.297H0.21165L31.9592 259.356H179.162L145.404 202.086H71.1144Z" fill="white"/>
<path d="M0 11.3271L33.864 65.3154H189.744L155.563 11.3271H0Z" fill="white"/>
<path d="M458.017 50.1776C458.651 50.1776 459.075 49.8601 459.392 49.3308C459.71 48.8015 459.816 47.9546 459.816 46.7901V44.2495H456.006V47.0019C456.006 49.119 456.641 50.1776 457.911 50.1776H458.017Z" fill="white"/>
<path d="M453.995 153.073C455.794 153.073 457.064 152.65 458.016 151.803C458.969 150.956 459.392 149.686 459.392 148.098V145.98H448.386V147.886C448.386 149.58 448.81 150.85 449.762 151.697C450.715 152.544 452.09 153.073 453.889 153.073H453.995Z" fill="white"/>
<path d="M450.185 51.0245C450.82 51.0245 451.349 50.7069 451.773 50.0718C452.196 49.4366 452.408 48.5897 452.408 47.4253V44.2495H448.175V47.4253C448.175 48.6956 448.386 49.6483 448.704 50.1776C449.021 50.7069 449.55 51.0245 450.291 51.0245H450.185Z" fill="white"/>
<path d="M457.276 202.509C458.969 202.509 459.921 201.45 459.921 199.333V197.428H454.948V199.333C454.948 201.45 455.794 202.509 457.382 202.509H457.276Z" fill="white"/>
<path d="M457.17 68.809C456.218 68.3855 455.159 68.1738 453.995 68.1738C452.831 68.1738 451.773 68.3855 450.82 68.809C449.868 69.2324 449.233 69.7617 448.704 70.5027C448.281 71.2437 447.963 71.9848 447.963 72.9375C447.963 73.8902 448.175 74.6312 448.704 75.3723C449.233 76.1133 449.868 76.6426 450.82 77.066C451.773 77.4895 452.831 77.7012 453.995 77.7012C455.159 77.7012 456.218 77.4895 457.17 77.066C458.017 76.6426 458.757 76.1133 459.181 75.3723C459.604 74.6312 459.921 73.8902 459.921 72.9375C459.921 71.9848 459.71 71.2437 459.181 70.5027C458.651 69.7617 458.017 69.2324 457.064 68.809H457.17Z" fill="white"/>
<path d="M579.609 166.623C607.336 152.861 621.199 129.254 621.199 95.8029C621.199 78.442 617.389 63.41 609.875 50.7068C602.362 38.0037 591.779 28.2646 578.022 21.4896C564.265 14.7146 547.968 11.3271 529.131 11.3271H422.142V259.356H489.447V133.595H490.716L496.748 145.345L514.527 177.421L559.609 259.356H631.675L579.609 166.623ZM443.73 47.4252L447.751 44.2494H443.73V38.6389H464.366V47.0018C464.366 49.86 463.943 51.9771 462.99 53.4592C462.038 54.9412 460.768 55.6822 458.969 55.6822C457.805 55.6822 456.852 55.3646 456.006 54.6236C455.265 53.9885 454.736 52.9299 454.418 51.6596C454.101 53.2475 453.572 54.4119 452.725 55.2588C451.879 56.1057 450.715 56.5291 449.445 56.5291C447.646 56.5291 446.27 55.8939 445.212 54.6236C444.259 53.3533 443.73 51.5537 443.73 49.3307V47.2135V47.4252ZM464.366 219.976L456.006 223.999V224.21L464.366 228.233V234.479L450.185 226.963H443.73V221.352H450.185L464.366 213.836V220.082V219.976ZM464.366 200.71C464.366 202.297 464.049 203.674 463.519 204.732C462.99 205.897 462.144 206.744 461.085 207.379C460.027 208.014 458.757 208.331 457.382 208.331C454.63 208.331 452.619 207.167 451.455 204.838L443.73 209.178V203.144L450.609 199.333L453.254 197.851L454.207 197.322H443.73V191.712H464.366V200.604V200.71ZM464.366 178.691L443.73 185.783V179.644L447.751 178.479V174.668L452.196 173.821V177.209L459.075 175.197L443.73 170.646V164.506L464.366 171.175V178.797V178.691ZM464.366 147.568C464.366 151.379 463.519 154.131 461.826 155.931C460.133 157.731 457.593 158.683 454.101 158.683C451.773 158.683 449.868 158.26 448.281 157.519C446.693 156.672 445.529 155.613 444.788 154.237C444.048 152.861 443.624 151.167 443.73 149.368L447.963 146.086H443.73V140.476H464.366V147.568ZM464.366 119.939L456.323 125.655L452.937 127.984C455.159 127.878 457.17 127.667 459.075 127.667H464.366V133.277H443.73V128.619L451.879 123.009L455.265 120.786C453.784 120.786 451.879 120.997 449.762 120.997H443.73V115.387H464.366V119.939ZM464.366 95.8029H452.09C450.82 95.8029 449.868 96.1205 449.127 96.6498C448.386 97.1791 448.069 98.026 448.069 99.1904C448.069 100.355 448.386 101.096 449.127 101.731C449.868 102.26 450.82 102.578 452.09 102.578H464.366V108.294H451.879C449.868 108.294 448.281 107.871 447.011 107.13C445.741 106.389 444.788 105.33 444.153 103.954C443.518 102.684 443.201 101.096 443.201 99.2963C443.201 96.4381 443.942 94.215 445.423 92.6271C446.905 91.0393 449.127 90.2982 451.879 90.2982H464.366V96.0146V95.8029ZM463.519 78.2303C462.567 79.8182 461.297 80.9826 459.604 81.8295C457.911 82.6764 456.006 83.0998 453.784 83.0998C451.561 83.0998 449.868 82.6764 448.175 81.8295C446.587 80.9826 445.318 79.7123 444.471 78.2303C443.624 76.7482 443.201 74.8428 443.201 72.8314C443.201 70.8201 443.624 69.0205 444.577 67.4326C445.423 65.8447 446.693 64.6803 448.281 63.8334C449.868 62.9865 451.773 62.5631 453.889 62.5631C456.112 62.5631 458.017 62.9865 459.71 63.8334C461.403 64.6803 462.673 65.9506 463.625 67.4326C464.578 68.9146 465.001 70.8201 465.001 72.8314C465.001 74.8428 464.578 76.6424 463.625 78.2303H463.519ZM512.94 125.02H489.447V64.9978H512.94C538.338 64.9978 551.037 75.4779 551.037 96.4381C551.037 115.493 538.338 125.02 512.94 125.02Z" fill="white"/>
</g>
<defs>
<clipPath id="clip0_47_72">
<rect width="912" height="271" fill="white"/>
</clipPath>
</defs>
</svg>
